<svg width="447" height="181" viewBox="0 0 447 181" fill="none" xmlns="http://www.w3.org/2000/svg">
<rect width="447" height="181" fill="#F8FAFC"/>
<path d="M81.5937 51.2672C78.1562 42.0228 68.625 36 57.6875 36C46.75 36 37.2188 42.1629 33.7813 51.2672C21.5938 53.6483 13 63.3129 13 74.3781V74.5182C13 83.0622 20.1875 90.2056 29.4062 91.6063C29.4062 96.3685 29.5625 105.893 29.7187 111.916C29.7187 116.678 34.0937 120.6 39.4062 120.6H75.8125C81.125 120.6 85.5 116.818 85.5 112.056L85.9687 91.6063C95.1875 90.2056 102.219 82.9222 102.219 74.2381C102.375 63.3129 93.7812 53.6483 81.5937 51.2672ZM75.9687 114.437H39.5625C38.1562 114.437 36.9062 113.317 36.9062 112.056C36.9062 110.375 36.9062 108.274 36.75 106.313H78.7812L78.625 111.916C78.625 113.317 77.375 114.437 75.9687 114.437ZM83.4687 85.5834C81.125 85.7235 79.25 87.4043 79.25 89.5053L78.9375 99.8702H36.5937C36.5937 95.3881 36.4375 91.1861 36.4375 89.5053C36.4375 87.4043 34.5625 85.7235 32.2187 85.5834C25.5 85.3033 20.0312 80.401 20.0312 74.5182V74.3781C20.0312 66.1142 26.5937 58.8308 35.8125 57.2901C37.8437 56.8699 39.5625 55.6093 40.1875 53.7884C42.5312 46.9252 49.5625 42.303 57.6875 42.303C65.8125 42.303 72.8437 46.9252 75.1875 53.7884C75.8125 55.6093 77.5312 57.0099 79.5625 57.2901C88.625 58.8308 95.3437 66.1142 95.3437 74.3781C95.3437 80.401 90.1875 85.3033 83.4687 85.5834Z" fill="#373737"/>
<mask id="path-3-outside-1_60_1216" maskUnits="userSpaceOnUse" x="36" y="46" width="400" height="62" fill="black">
<rect fill="white" x="36" y="46" width="400" height="62"/>
<path d="M74.3182 66H70.0909C69.8409 64.7841 69.4034 63.7159 68.7784 62.7955C68.1648 61.875 67.4148 61.1023 66.5284 60.4773C65.6534 59.8409 64.6818 59.3636 63.6136 59.0455C62.5455 58.7273 61.4318 58.5682 60.2727 58.5682C58.1591 58.5682 56.2443 59.1023 54.5284 60.1705C52.8239 61.2386 51.4659 62.8125 50.4545 64.892C49.4545 66.9716 48.9545 69.5227 48.9545 72.5455C48.9545 75.5682 49.4545 78.1193 50.4545 80.1989C51.4659 82.2784 52.8239 83.8523 54.5284 84.9205C56.2443 85.9886 58.1591 86.5227 60.2727 86.5227C61.4318 86.5227 62.5455 86.3636 63.6136 86.0455C64.6818 85.7273 65.6534 85.2557 66.5284 84.6307C67.4148 83.9943 68.1648 83.2159 68.7784 82.2955C69.4034 81.3636 69.8409 80.2955 70.0909 79.0909H74.3182C74 80.875 73.4205 82.4716 72.5795 83.8807C71.7386 85.2898 70.6932 86.4886 69.4432 87.4773C68.1932 88.4545 66.7898 89.1989 65.233 89.7102C63.6875 90.2216 62.0341 90.4773 60.2727 90.4773C57.2955 90.4773 54.6477 89.75 52.3295 88.2955C50.0114 86.8409 48.1875 84.7727 46.858 82.0909C45.5284 79.4091 44.8636 76.2273 44.8636 72.5455C44.8636 68.8636 45.5284 65.6818 46.858 63C48.1875 60.3182 50.0114 58.25 52.3295 56.7955C54.6477 55.3409 57.2955 54.6136 60.2727 54.6136C62.0341 54.6136 63.6875 54.8693 65.233 55.3807C66.7898 55.892 68.1932 56.642 69.4432 57.6307C70.6932 58.608 71.7386 59.8011 72.5795 61.2102C73.4205 62.608 74 64.2045 74.3182 66ZM97.1037 79.2955V63.8182H101.126V90H97.1037V85.5682H96.831C96.2173 86.8977 95.2628 88.0284 93.9673 88.9602C92.6719 89.8807 91.0355 90.3409 89.0582 90.3409C87.4219 90.3409 85.9673 89.983 84.6946 89.267C83.4219 88.5398 82.4219 87.4489 81.6946 85.9943C80.9673 84.5284 80.6037 82.6818 80.6037 80.4545V63.8182H84.6264V80.1818C84.6264 82.0909 85.1605 83.6136 86.2287 84.75C87.3082 85.8864 88.6832 86.4545 90.3537 86.4545C91.3537 86.4545 92.3707 86.1989 93.4048 85.6875C94.4503 85.1761 95.3253 84.392 96.0298 83.3352C96.7457 82.2784 97.1037 80.9318 97.1037 79.2955ZM112.517 55.0909V90H108.494V55.0909H112.517ZM119.885 90V63.8182H123.908V90H119.885ZM121.93 59.4545C121.146 59.4545 120.47 59.1875 119.902 58.6534C119.345 58.1193 119.067 57.4773 119.067 56.7273C119.067 55.9773 119.345 55.3352 119.902 54.8011C120.47 54.267 121.146 54 121.93 54C122.714 54 123.385 54.267 123.942 54.8011C124.51 55.3352 124.794 55.9773 124.794 56.7273C124.794 57.4773 124.51 58.1193 123.942 58.6534C123.385 59.1875 122.714 59.4545 121.93 59.4545ZM135.298 74.25V90H131.276V63.8182H135.162V67.9091H135.503C136.116 66.5795 137.048 65.5114 138.298 64.7045C139.548 63.8864 141.162 63.4773 143.139 63.4773C144.912 63.4773 146.463 63.8409 147.793 64.5682C149.122 65.2841 150.156 66.375 150.895 67.8409C151.634 69.2955 152.003 71.1364 152.003 73.3636V90H147.98V73.6364C147.98 71.5795 147.446 69.9773 146.378 68.8295C145.31 67.6705 143.844 67.0909 141.98 67.0909C140.696 67.0909 139.548 67.3693 138.537 67.9261C137.537 68.483 136.747 69.2955 136.168 70.3636C135.588 71.4318 135.298 72.7273 135.298 74.25ZM167.058 90.6136C165.399 90.6136 163.893 90.3011 162.541 89.6761C161.189 89.0398 160.115 88.125 159.32 86.9318C158.524 85.7273 158.126 84.2727 158.126 82.5682C158.126 81.0682 158.422 79.8523 159.013 78.9205C159.604 77.9773 160.393 77.2386 161.382 76.7045C162.371 76.1705 163.462 75.7727 164.655 75.5114C165.859 75.2386 167.07 75.0227 168.286 74.8636C169.876 74.6591 171.166 74.5057 172.155 74.4034C173.155 74.2898 173.882 74.1023 174.337 73.8409C174.803 73.5795 175.036 73.125 175.036 72.4773V72.3409C175.036 70.6591 174.575 69.3523 173.655 68.4205C172.746 67.4886 171.365 67.0227 169.513 67.0227C167.592 67.0227 166.087 67.4432 164.996 68.2841C163.905 69.125 163.138 70.0227 162.695 70.9773L158.876 69.6136C159.558 68.0227 160.467 66.7841 161.604 65.8977C162.751 65 164.001 64.375 165.354 64.0227C166.717 63.6591 168.058 63.4773 169.376 63.4773C170.217 63.4773 171.183 63.5795 172.274 63.7841C173.376 63.9773 174.439 64.3807 175.462 64.9943C176.496 65.608 177.354 66.5341 178.036 67.7727C178.717 69.0114 179.058 70.6705 179.058 72.75V90H175.036V86.4545H174.831C174.558 87.0227 174.104 87.6307 173.467 88.2784C172.831 88.9261 171.984 89.4773 170.928 89.9318C169.871 90.3864 168.581 90.6136 167.058 90.6136ZM167.672 87C169.263 87 170.604 86.6875 171.695 86.0625C172.797 85.4375 173.626 84.6307 174.183 83.642C174.751 82.6534 175.036 81.6136 175.036 80.5227V76.8409C174.865 77.0455 174.49 77.233 173.911 77.4034C173.342 77.5625 172.683 77.7045 171.933 77.8295C171.195 77.9432 170.473 78.0455 169.768 78.1364C169.075 78.2159 168.513 78.2841 168.081 78.3409C167.036 78.4773 166.058 78.6989 165.149 79.0057C164.251 79.3011 163.524 79.75 162.967 80.3523C162.422 80.9432 162.149 81.75 162.149 82.7727C162.149 84.1705 162.666 85.2273 163.7 85.9432C164.746 86.6477 166.07 87 167.672 87ZM186.401 90V63.8182H190.287V67.7727H190.56C191.037 66.4773 191.901 65.4261 193.151 64.6193C194.401 63.8125 195.81 63.4091 197.378 63.4091C197.673 63.4091 198.043 63.4148 198.486 63.4261C198.929 63.4375 199.264 63.4545 199.491 63.4773V67.5682C199.355 67.5341 199.043 67.483 198.554 67.4148C198.077 67.3352 197.571 67.2955 197.037 67.2955C195.764 67.2955 194.628 67.5625 193.628 68.0966C192.639 68.6193 191.855 69.3466 191.276 70.2784C190.707 71.1989 190.423 72.25 190.423 73.4318V90H186.401ZM207.648 99.8182C206.966 99.8182 206.358 99.7614 205.824 99.6477C205.29 99.5455 204.92 99.4432 204.716 99.3409L205.739 95.7955C206.716 96.0455 207.58 96.1364 208.33 96.0682C209.08 96 209.744 95.6648 210.324 95.0625C210.915 94.4716 211.455 93.5114 211.943 92.1818L212.693 90.1364L203.011 63.8182H207.375L214.602 84.6818H214.875L222.102 63.8182H226.466L215.352 93.8182C214.852 95.1705 214.233 96.2898 213.494 97.1761C212.756 98.0739 211.898 98.7386 210.92 99.1705C209.955 99.6023 208.864 99.8182 207.648 99.8182ZM245.821 90V55.0909H266.889V58.8409H250.048V70.6364H265.798V74.3864H250.048V86.25H267.162V90H245.821ZM276.963 63.8182L283.236 74.5227L289.509 63.8182H294.145L285.69 76.9091L294.145 90H289.509L283.236 79.8409L276.963 90H272.327L280.645 76.9091L272.327 63.8182H276.963ZM299.885 99.8182V63.8182H303.771V67.9773H304.249C304.544 67.5227 304.953 66.9432 305.476 66.2386C306.01 65.5227 306.771 64.8864 307.76 64.3295C308.76 63.7614 310.112 63.4773 311.817 63.4773C314.021 63.4773 315.964 64.0284 317.646 65.1307C319.328 66.233 320.641 67.7955 321.584 69.8182C322.527 71.8409 322.999 74.2273 322.999 76.9773C322.999 79.75 322.527 82.1534 321.584 84.1875C320.641 86.2102 319.334 87.7784 317.663 88.892C315.993 89.9943 314.067 90.5455 311.885 90.5455C310.203 90.5455 308.857 90.267 307.845 89.7102C306.834 89.142 306.055 88.5 305.51 87.7841C304.964 87.0568 304.544 86.4545 304.249 85.9773H303.908V99.8182H299.885ZM303.839 76.9091C303.839 78.8864 304.129 80.6307 304.709 82.142C305.288 83.642 306.135 84.8182 307.249 85.6705C308.362 86.5114 309.726 86.9318 311.339 86.9318C313.021 86.9318 314.425 86.4886 315.55 85.6023C316.686 84.7045 317.538 83.5 318.107 81.9886C318.686 80.4659 318.976 78.7727 318.976 76.9091C318.976 75.0682 318.692 73.4091 318.124 71.9318C317.567 70.4432 316.72 69.267 315.584 68.4034C314.459 67.5284 313.044 67.0909 311.339 67.0909C309.703 67.0909 308.328 67.5057 307.214 68.3352C306.101 69.1534 305.26 70.3011 304.692 71.7784C304.124 73.2443 303.839 74.9545 303.839 76.9091ZM333.158 55.0909V90H329.135V55.0909H333.158ZM351.162 90.5455C348.798 90.5455 346.724 89.983 344.94 88.858C343.168 87.733 341.781 86.1591 340.781 84.1364C339.793 82.1136 339.298 79.75 339.298 77.0455C339.298 74.3182 339.793 71.9375 340.781 69.9034C341.781 67.8693 343.168 66.2898 344.94 65.1648C346.724 64.0398 348.798 63.4773 351.162 63.4773C353.526 63.4773 355.594 64.0398 357.366 65.1648C359.151 66.2898 360.537 67.8693 361.526 69.9034C362.526 71.9375 363.026 74.3182 363.026 77.0455C363.026 79.75 362.526 82.1136 361.526 84.1364C360.537 86.1591 359.151 87.733 357.366 88.858C355.594 89.983 353.526 90.5455 351.162 90.5455ZM351.162 86.9318C352.957 86.9318 354.435 86.4716 355.594 85.5511C356.753 84.6307 357.611 83.4205 358.168 81.9205C358.724 80.4205 359.003 78.7955 359.003 77.0455C359.003 75.2955 358.724 73.6648 358.168 72.1534C357.611 70.642 356.753 69.4205 355.594 68.4886C354.435 67.5568 352.957 67.0909 351.162 67.0909C349.366 67.0909 347.889 67.5568 346.73 68.4886C345.571 69.4205 344.713 70.642 344.156 72.1534C343.599 73.6648 343.321 75.2955 343.321 77.0455C343.321 78.7955 343.599 80.4205 344.156 81.9205C344.713 83.4205 345.571 84.6307 346.73 85.5511C347.889 86.4716 349.366 86.9318 351.162 86.9318ZM369.166 90V63.8182H373.053V67.7727H373.325C373.803 66.4773 374.666 65.4261 375.916 64.6193C377.166 63.8125 378.575 63.4091 380.143 63.4091C380.439 63.4091 380.808 63.4148 381.251 63.4261C381.695 63.4375 382.03 63.4545 382.257 63.4773V67.5682C382.121 67.5341 381.808 67.483 381.32 67.4148C380.842 67.3352 380.337 67.2955 379.803 67.2955C378.53 67.2955 377.393 67.5625 376.393 68.0966C375.405 68.6193 374.621 69.3466 374.041 70.2784C373.473 71.1989 373.189 72.25 373.189 73.4318V90H369.166ZM397.206 90.5455C394.683 90.5455 392.507 89.9886 390.678 88.875C388.859 87.75 387.456 86.1818 386.467 84.1705C385.49 82.1477 385.001 79.7955 385.001 77.1136C385.001 74.4318 385.49 72.0682 386.467 70.0227C387.456 67.9659 388.831 66.3636 390.592 65.2159C392.365 64.0568 394.433 63.4773 396.797 63.4773C398.161 63.4773 399.507 63.7045 400.837 64.1591C402.166 64.6136 403.376 65.3523 404.467 66.375C405.558 67.3864 406.428 68.7273 407.075 70.3977C407.723 72.0682 408.047 74.125 408.047 76.5682V78.2727H387.865V74.7955H403.956C403.956 73.3182 403.661 72 403.07 70.8409C402.49 69.6818 401.661 68.767 400.581 68.0966C399.513 67.4261 398.251 67.0909 396.797 67.0909C395.195 67.0909 393.808 67.4886 392.638 68.2841C391.479 69.0682 390.587 70.0909 389.962 71.3523C389.337 72.6136 389.024 73.9659 389.024 75.4091V77.7273C389.024 79.7045 389.365 81.3807 390.047 82.7557C390.74 84.1193 391.7 85.1591 392.928 85.875C394.155 86.5795 395.581 86.9318 397.206 86.9318C398.263 86.9318 399.217 86.7841 400.07 86.4886C400.933 86.1818 401.678 85.7273 402.303 85.125C402.928 84.5114 403.411 83.75 403.751 82.8409L407.638 83.9318C407.229 85.25 406.541 86.4091 405.575 87.4091C404.609 88.3977 403.416 89.1705 401.996 89.7273C400.575 90.2727 398.979 90.5455 397.206 90.5455ZM414.166 90V63.8182H418.053V67.7727H418.325C418.803 66.4773 419.666 65.4261 420.916 64.6193C422.166 63.8125 423.575 63.4091 425.143 63.4091C425.439 63.4091 425.808 63.4148 426.251 63.4261C426.695 63.4375 427.03 63.4545 427.257 63.4773V67.5682C427.121 67.5341 426.808 67.483 426.32 67.4148C425.842 67.3352 425.337 67.2955 424.803 67.2955C423.53 67.2955 422.393 67.5625 421.393 68.0966C420.405 68.6193 419.621 69.3466 419.041 70.2784C418.473 71.1989 418.189 72.25 418.189 73.4318V90H414.166Z"/>
</mask>
<path d="M74.3182 66H70.0909C69.8409 64.7841 69.4034 63.7159 68.7784 62.7955C68.1648 61.875 67.4148 61.1023 66.5284 60.4773C65.6534 59.8409 64.6818 59.3636 63.6136 59.0455C62.5455 58.7273 61.4318 58.5682 60.2727 58.5682C58.1591 58.5682 56.2443 59.1023 54.5284 60.1705C52.8239 61.2386 51.4659 62.8125 50.4545 64.892C49.4545 66.9716 48.9545 69.5227 48.9545 72.5455C48.9545 75.5682 49.4545 78.1193 50.4545 80.1989C51.4659 82.2784 52.8239 83.8523 54.5284 84.9205C56.2443 85.9886 58.1591 86.5227 60.2727 86.5227C61.4318 86.5227 62.5455 86.3636 63.6136 86.0455C64.6818 85.7273 65.6534 85.2557 66.5284 84.6307C67.4148 83.9943 68.1648 83.2159 68.7784 82.2955C69.4034 81.3636 69.8409 80.2955 70.0909 79.0909H74.3182C74 80.875 73.4205 82.4716 72.5795 83.8807C71.7386 85.2898 70.6932 86.4886 69.4432 87.4773C68.1932 88.4545 66.7898 89.1989 65.233 89.7102C63.6875 90.2216 62.0341 90.4773 60.2727 90.4773C57.2955 90.4773 54.6477 89.75 52.3295 88.2955C50.0114 86.8409 48.1875 84.7727 46.858 82.0909C45.5284 79.4091 44.8636 76.2273 44.8636 72.5455C44.8636 68.8636 45.5284 65.6818 46.858 63C48.1875 60.3182 50.0114 58.25 52.3295 56.7955C54.6477 55.3409 57.2955 54.6136 60.2727 54.6136C62.0341 54.6136 63.6875 54.8693 65.233 55.3807C66.7898 55.892 68.1932 56.642 69.4432 57.6307C70.6932 58.608 71.7386 59.8011 72.5795 61.2102C73.4205 62.608 74 64.2045 74.3182 66ZM97.1037 79.2955V63.8182H101.126V90H97.1037V85.5682H96.831C96.2173 86.8977 95.2628 88.0284 93.9673 88.9602C92.6719 89.8807 91.0355 90.3409 89.0582 90.3409C87.4219 90.3409 85.9673 89.983 84.6946 89.267C83.4219 88.5398 82.4219 87.4489 81.6946 85.9943C80.9673 84.5284 80.6037 82.6818 80.6037 80.4545V63.8182H84.6264V80.1818C84.6264 82.0909 85.1605 83.6136 86.2287 84.75C87.3082 85.8864 88.6832 86.4545 90.3537 86.4545C91.3537 86.4545 92.3707 86.1989 93.4048 85.6875C94.4503 85.1761 95.3253 84.392 96.0298 83.3352C96.7457 82.2784 97.1037 80.9318 97.1037 79.2955ZM112.517 55.0909V90H108.494V55.0909H112.517ZM119.885 90V63.8182H123.908V90H119.885ZM121.93 59.4545C121.146 59.4545 120.47 59.1875 119.902 58.6534C119.345 58.1193 119.067 57.4773 119.067 56.7273C119.067 55.9773 119.345 55.3352 119.902 54.8011C120.47 54.267 121.146 54 121.93 54C122.714 54 123.385 54.267 123.942 54.8011C124.51 55.3352 124.794 55.9773 124.794 56.7273C124.794 57.4773 124.51 58.1193 123.942 58.6534C123.385 59.1875 122.714 59.4545 121.93 59.4545ZM135.298 74.25V90H131.276V63.8182H135.162V67.9091H135.503C136.116 66.5795 137.048 65.5114 138.298 64.7045C139.548 63.8864 141.162 63.4773 143.139 63.4773C144.912 63.4773 146.463 63.8409 147.793 64.5682C149.122 65.2841 150.156 66.375 150.895 67.8409C151.634 69.2955 152.003 71.1364 152.003 73.3636V90H147.98V73.6364C147.98 71.5795 147.446 69.9773 146.378 68.8295C145.31 67.6705 143.844 67.0909 141.98 67.0909C140.696 67.0909 139.548 67.3693 138.537 67.9261C137.537 68.483 136.747 69.2955 136.168 70.3636C135.588 71.4318 135.298 72.7273 135.298 74.25ZM167.058 90.6136C165.399 90.6136 163.893 90.3011 162.541 89.6761C161.189 89.0398 160.115 88.125 159.32 86.9318C158.524 85.7273 158.126 84.2727 158.126 82.5682C158.126 81.0682 158.422 79.8523 159.013 78.9205C159.604 77.9773 160.393 77.2386 161.382 76.7045C162.371 76.1705 163.462 75.7727 164.655 75.5114C165.859 75.2386 167.07 75.0227 168.286 74.8636C169.876 74.6591 171.166 74.5057 172.155 74.4034C173.155 74.2898 173.882 74.1023 174.337 73.8409C174.803 73.5795 175.036 73.125 175.036 72.4773V72.3409C175.036 70.6591 174.575 69.3523 173.655 68.4205C172.746 67.4886 171.365 67.0227 169.513 67.0227C167.592 67.0227 166.087 67.4432 164.996 68.2841C163.905 69.125 163.138 70.0227 162.695 70.9773L158.876 69.6136C159.558 68.0227 160.467 66.7841 161.604 65.8977C162.751 65 164.001 64.375 165.354 64.0227C166.717 63.6591 168.058 63.4773 169.376 63.4773C170.217 63.4773 171.183 63.5795 172.274 63.7841C173.376 63.9773 174.439 64.3807 175.462 64.9943C176.496 65.608 177.354 66.5341 178.036 67.7727C178.717 69.0114 179.058 70.6705 179.058 72.75V90H175.036V86.4545H174.831C174.558 87.0227 174.104 87.6307 173.467 88.2784C172.831 88.9261 171.984 89.4773 170.928 89.9318C169.871 90.3864 168.581 90.6136 167.058 90.6136ZM167.672 87C169.263 87 170.604 86.6875 171.695 86.0625C172.797 85.4375 173.626 84.6307 174.183 83.642C174.751 82.6534 175.036 81.6136 175.036 80.5227V76.8409C174.865 77.0455 174.49 77.233 173.911 77.4034C173.342 77.5625 172.683 77.7045 171.933 77.8295C171.195 77.9432 170.473 78.0455 169.768 78.1364C169.075 78.2159 168.513 78.2841 168.081 78.3409C167.036 78.4773 166.058 78.6989 165.149 79.0057C164.251 79.3011 163.524 79.75 162.967 80.3523C162.422 80.9432 162.149 81.75 162.149 82.7727C162.149 84.1705 162.666 85.2273 163.7 85.9432C164.746 86.6477 166.07 87 167.672 87ZM186.401 90V63.8182H190.287V67.7727H190.56C191.037 66.4773 191.901 65.4261 193.151 64.6193C194.401 63.8125 195.81 63.4091 197.378 63.4091C197.673 63.4091 198.043 63.4148 198.486 63.4261C198.929 63.4375 199.264 63.4545 199.491 63.4773V67.5682C199.355 67.5341 199.043 67.483 198.554 67.4148C198.077 67.3352 197.571 67.2955 197.037 67.2955C195.764 67.2955 194.628 67.5625 193.628 68.0966C192.639 68.6193 191.855 69.3466 191.276 70.2784C190.707 71.1989 190.423 72.25 190.423 73.4318V90H186.401ZM207.648 99.8182C206.966 99.8182 206.358 99.7614 205.824 99.6477C205.29 99.5455 204.92 99.4432 204.716 99.3409L205.739 95.7955C206.716 96.0455 207.58 96.1364 208.33 96.0682C209.08 96 209.744 95.6648 210.324 95.0625C210.915 94.4716 211.455 93.5114 211.943 92.1818L212.693 90.1364L203.011 63.8182H207.375L214.602 84.6818H214.875L222.102 63.8182H226.466L215.352 93.8182C214.852 95.1705 214.233 96.2898 213.494 97.1761C212.756 98.0739 211.898 98.7386 210.92 99.1705C209.955 99.6023 208.864 99.8182 207.648 99.8182ZM245.821 90V55.0909H266.889V58.8409H250.048V70.6364H265.798V74.3864H250.048V86.25H267.162V90H245.821ZM276.963 63.8182L283.236 74.5227L289.509 63.8182H294.145L285.69 76.9091L294.145 90H289.509L283.236 79.8409L276.963 90H272.327L280.645 76.9091L272.327 63.8182H276.963ZM299.885 99.8182V63.8182H303.771V67.9773H304.249C304.544 67.5227 304.953 66.9432 305.476 66.2386C306.01 65.5227 306.771 64.8864 307.76 64.3295C308.76 63.7614 310.112 63.4773 311.817 63.4773C314.021 63.4773 315.964 64.0284 317.646 65.1307C319.328 66.233 320.641 67.7955 321.584 69.8182C322.527 71.8409 322.999 74.2273 322.999 76.9773C322.999 79.75 322.527 82.1534 321.584 84.1875C320.641 86.2102 319.334 87.7784 317.663 88.892C315.993 89.9943 314.067 90.5455 311.885 90.5455C310.203 90.5455 308.857 90.267 307.845 89.7102C306.834 89.142 306.055 88.5 305.51 87.7841C304.964 87.0568 304.544 86.4545 304.249 85.9773H303.908V99.8182H299.885ZM303.839 76.9091C303.839 78.8864 304.129 80.6307 304.709 82.142C305.288 83.642 306.135 84.8182 307.249 85.6705C308.362 86.5114 309.726 86.9318 311.339 86.9318C313.021 86.9318 314.425 86.4886 315.55 85.6023C316.686 84.7045 317.538 83.5 318.107 81.9886C318.686 80.4659 318.976 78.7727 318.976 76.9091C318.976 75.0682 318.692 73.4091 318.124 71.9318C317.567 70.4432 316.72 69.267 315.584 68.4034C314.459 67.5284 313.044 67.0909 311.339 67.0909C309.703 67.0909 308.328 67.5057 307.214 68.3352C306.101 69.1534 305.26 70.3011 304.692 71.7784C304.124 73.2443 303.839 74.9545 303.839 76.9091ZM333.158 55.0909V90H329.135V55.0909H333.158ZM351.162 90.5455C348.798 90.5455 346.724 89.983 344.94 88.858C343.168 87.733 341.781 86.1591 340.781 84.1364C339.793 82.1136 339.298 79.75 339.298 77.0455C339.298 74.3182 339.793 71.9375 340.781 69.9034C341.781 67.8693 343.168 66.2898 344.94 65.1648C346.724 64.0398 348.798 63.4773 351.162 63.4773C353.526 63.4773 355.594 64.0398 357.366 65.1648C359.151 66.2898 360.537 67.8693 361.526 69.9034C362.526 71.9375 363.026 74.3182 363.026 77.0455C363.026 79.75 362.526 82.1136 361.526 84.1364C360.537 86.1591 359.151 87.733 357.366 88.858C355.594 89.983 353.526 90.5455 351.162 90.5455ZM351.162 86.9318C352.957 86.9318 354.435 86.4716 355.594 85.5511C356.753 84.6307 357.611 83.4205 358.168 81.9205C358.724 80.4205 359.003 78.7955 359.003 77.0455C359.003 75.2955 358.724 73.6648 358.168 72.1534C357.611 70.642 356.753 69.4205 355.594 68.4886C354.435 67.5568 352.957 67.0909 351.162 67.0909C349.366 67.0909 347.889 67.5568 346.73 68.4886C345.571 69.4205 344.713 70.642 344.156 72.1534C343.599 73.6648 343.321 75.2955 343.321 77.0455C343.321 78.7955 343.599 80.4205 344.156 81.9205C344.713 83.4205 345.571 84.6307 346.73 85.5511C347.889 86.4716 349.366 86.9318 351.162 86.9318ZM369.166 90V63.8182H373.053V67.7727H373.325C373.803 66.4773 374.666 65.4261 375.916 64.6193C377.166 63.8125 378.575 63.4091 380.143 63.4091C380.439 63.4091 380.808 63.4148 381.251 63.4261C381.695 63.4375 382.03 63.4545 382.257 63.4773V67.5682C382.121 67.5341 381.808 67.483 381.32 67.4148C380.842 67.3352 380.337 67.2955 379.803 67.2955C378.53 67.2955 377.393 67.5625 376.393 68.0966C375.405 68.6193 374.621 69.3466 374.041 70.2784C373.473 71.1989 373.189 72.25 373.189 73.4318V90H369.166ZM397.206 90.5455C394.683 90.5455 392.507 89.9886 390.678 88.875C388.859 87.75 387.456 86.1818 386.467 84.1705C385.49 82.1477 385.001 79.7955 385.001 77.1136C385.001 74.4318 385.49 72.0682 386.467 70.0227C387.456 67.9659 388.831 66.3636 390.592 65.2159C392.365 64.0568 394.433 63.4773 396.797 63.4773C398.161 63.4773 399.507 63.7045 400.837 64.1591C402.166 64.6136 403.376 65.3523 404.467 66.375C405.558 67.3864 406.428 68.7273 407.075 70.3977C407.723 72.0682 408.047 74.125 408.047 76.5682V78.2727H387.865V74.7955H403.956C403.956 73.3182 403.661 72 403.07 70.8409C402.49 69.6818 401.661 68.767 400.581 68.0966C399.513 67.4261 398.251 67.0909 396.797 67.0909C395.195 67.0909 393.808 67.4886 392.638 68.2841C391.479 69.0682 390.587 70.0909 389.962 71.3523C389.337 72.6136 389.024 73.9659 389.024 75.4091V77.7273C389.024 79.7045 389.365 81.3807 390.047 82.7557C390.74 84.1193 391.7 85.1591 392.928 85.875C394.155 86.5795 395.581 86.9318 397.206 86.9318C398.263 86.9318 399.217 86.7841 400.07 86.4886C400.933 86.1818 401.678 85.7273 402.303 85.125C402.928 84.5114 403.411 83.75 403.751 82.8409L407.638 83.9318C407.229 85.25 406.541 86.4091 405.575 87.4091C404.609 88.3977 403.416 89.1705 401.996 89.7273C400.575 90.2727 398.979 90.5455 397.206 90.5455ZM414.166 90V63.8182H418.053V67.7727H418.325C418.803 66.4773 419.666 65.4261 420.916 64.6193C422.166 63.8125 423.575 63.4091 425.143 63.4091C425.439 63.4091 425.808 63.4148 426.251 63.4261C426.695 63.4375 427.03 63.4545 427.257 63.4773V67.5682C427.121 67.5341 426.808 67.483 426.32 67.4148C425.842 67.3352 425.337 67.2955 424.803 67.2955C423.53 67.2955 422.393 67.5625 421.393 68.0966C420.405 68.6193 419.621 69.3466 419.041 70.2784C418.473 71.1989 418.189 72.25 418.189 73.4318V90H414.166Z" fill="#9C8712"/>
<path d="M74.3182 66V74H83.8606L82.1954 64.604L74.3182 66ZM70.0909 66L62.2548 67.6112L63.5684 74H70.0909V66ZM68.7784 62.7955L62.122 67.2331L62.1409 67.2613L62.16 67.2895L68.7784 62.7955ZM66.5284 60.4773L61.823 66.9472L61.8704 66.9816L61.9182 67.0153L66.5284 60.4773ZM63.6136 59.0455L61.3298 66.7125L61.3298 66.7125L63.6136 59.0455ZM54.5284 60.1705L50.3006 53.3789L50.2904 53.3852L50.2803 53.3916L54.5284 60.1705ZM50.4545 64.892L43.2602 61.3932L43.2525 61.4091L43.2448 61.4251L50.4545 64.892ZM50.4545 80.1989L43.2448 83.6658L43.2525 83.6818L43.2602 83.6977L50.4545 80.1989ZM54.5284 84.9205L50.2803 91.6994L50.2904 91.7057L50.3006 91.712L54.5284 84.9205ZM63.6136 86.0455L61.3298 78.3784L61.3298 78.3784L63.6136 86.0455ZM66.5284 84.6307L71.1783 91.1406L71.1862 91.1349L71.1941 91.1293L66.5284 84.6307ZM68.7784 82.2955L62.1345 77.8392L62.1282 77.8485L62.122 77.8578L68.7784 82.2955ZM70.0909 79.0909V71.0909H63.5808L62.2578 77.4652L70.0909 79.0909ZM74.3182 79.0909L82.1939 80.4955L83.8712 71.0909H74.3182V79.0909ZM72.5795 83.8807L65.7098 79.781L65.7098 79.781L72.5795 83.8807ZM69.4432 87.4773L74.3706 93.7797L74.3883 93.7659L74.4059 93.752L69.4432 87.4773ZM65.233 89.7102L62.7364 82.1097L62.7282 82.1125L62.7199 82.1152L65.233 89.7102ZM52.3295 88.2955L48.0776 95.072L48.0776 95.072L52.3295 88.2955ZM46.858 82.0909L54.0255 78.5375L54.0255 78.5375L46.858 82.0909ZM65.233 55.3807L62.7199 62.9757L62.7282 62.9785L62.7364 62.9812L65.233 55.3807ZM69.4432 57.6307L64.4805 63.9054L64.4981 63.9193L64.5158 63.9331L69.4432 57.6307ZM72.5795 61.2102L65.7098 65.3099L65.7172 65.3221L65.7245 65.3344L72.5795 61.2102ZM74.3182 58H70.0909V74H74.3182V58ZM77.927 64.3888C77.4894 62.2606 76.6784 60.1888 75.3969 58.3014L62.16 67.2895C62.1495 67.274 62.1557 67.2789 62.1722 67.3191C62.1893 67.361 62.2223 67.4531 62.2548 67.6112L77.927 64.3888ZM75.4348 58.3578C74.2855 56.6339 72.8469 55.1438 71.1386 53.9392L61.9182 67.0153C61.9826 67.0608 62.044 67.1161 62.122 67.2331L75.4348 58.3578ZM71.2338 54.0074C69.6032 52.8215 67.8083 51.9475 65.8974 51.3784L61.3298 66.7125C61.5554 66.7797 61.7036 66.8603 61.823 66.9472L71.2338 54.0074ZM65.8975 51.3784C64.0589 50.8307 62.1741 50.5682 60.2727 50.5682V66.5682C60.6895 66.5682 61.032 66.6238 61.3298 66.7125L65.8975 51.3784ZM60.2727 50.5682C56.7363 50.5682 53.3447 51.4839 50.3006 53.3789L58.7563 66.962C59.1439 66.7207 59.5819 66.5682 60.2727 66.5682V50.5682ZM50.2803 53.3916C47.1249 55.3689 44.8269 58.1718 43.2602 61.3932L57.6488 68.3909C58.1049 67.4532 58.5229 67.1083 58.7765 66.9494L50.2803 53.3916ZM43.2448 61.4251C41.5894 64.8676 40.9545 68.6793 40.9545 72.5455H56.9545C56.9545 70.3661 57.3197 69.0756 57.6643 68.359L43.2448 61.4251ZM40.9545 72.5455C40.9545 76.4116 41.5894 80.2233 43.2448 83.6658L57.6643 76.7319C57.3197 76.0153 56.9545 74.7248 56.9545 72.5455H40.9545ZM43.2602 83.6977C44.8269 86.9191 47.1249 89.722 50.2803 91.6994L58.7765 78.1416C58.5229 77.9826 58.1049 77.6377 57.6488 76.7L43.2602 83.6977ZM50.3006 91.712C53.3447 93.607 56.7363 94.5227 60.2727 94.5227V78.5227C59.5819 78.5227 59.1439 78.3702 58.7563 78.1289L50.3006 91.712ZM60.2727 94.5227C62.1741 94.5227 64.0589 94.2602 65.8975 93.7125L61.3298 78.3784C61.032 78.4671 60.6895 78.5227 60.2727 78.5227V94.5227ZM65.8974 93.7125C67.7815 93.1513 69.5579 92.298 71.1783 91.1406L61.8785 78.1208C61.749 78.2134 61.5821 78.3032 61.3298 78.3784L65.8974 93.7125ZM71.1941 91.1293C72.8736 89.9234 74.2946 88.4434 75.4348 86.7331L62.122 77.8578C62.035 77.9884 61.9559 78.0652 61.8628 78.1321L71.1941 91.1293ZM75.4223 86.7517C76.6759 84.8827 77.4844 82.8347 77.924 80.7166L62.2578 77.4652C62.2262 77.6178 62.193 77.7125 62.1722 77.7633C62.1519 77.8127 62.138 77.8339 62.1345 77.8392L75.4223 86.7517ZM70.0909 87.0909H74.3182V71.0909H70.0909V87.0909ZM66.4425 77.6863C66.2763 78.6178 66.0062 79.2844 65.7098 79.781L79.4492 87.9803C80.8347 85.6587 81.7237 83.1322 82.1939 80.4955L66.4425 77.6863ZM65.7098 79.781C65.3521 80.3804 64.9453 80.835 64.4805 81.2026L74.4059 93.752C76.4411 92.1423 78.1251 90.1991 79.4492 87.9803L65.7098 79.781ZM64.5158 81.1748C64.0188 81.5634 63.4432 81.8776 62.7364 82.1097L67.7295 97.3107C70.1363 96.5201 72.3676 95.3457 74.3706 93.7797L64.5158 81.1748ZM62.7199 82.1152C62.049 82.3372 61.2501 82.4773 60.2727 82.4773V98.4773C62.8181 98.4773 65.326 98.106 67.746 97.3053L62.7199 82.1152ZM60.2727 82.4773C58.6623 82.4773 57.5141 82.1041 56.5815 81.5189L48.0776 95.072C51.7814 97.3959 55.9286 98.4773 60.2727 98.4773V82.4773ZM56.5815 81.5189C55.63 80.9219 54.7628 80.0248 54.0255 78.5375L39.6904 85.6443C41.6122 89.5207 44.3928 92.7599 48.0776 95.072L56.5815 81.5189ZM54.0255 78.5375C53.355 77.1851 52.8636 75.2728 52.8636 72.5455H36.8636C36.8636 77.1817 37.7018 81.6331 39.6904 85.6443L54.0255 78.5375ZM52.8636 72.5455C52.8636 69.8181 53.355 67.9058 54.0255 66.5534L39.6904 59.4466C37.7018 63.4578 36.8636 67.9092 36.8636 72.5455H52.8636ZM54.0255 66.5534C54.7628 65.0661 55.63 64.169 56.5815 63.572L48.0776 50.0189C44.3928 52.331 41.6122 55.5702 39.6904 59.4466L54.0255 66.5534ZM56.5815 63.572C57.5141 62.9868 58.6623 62.6136 60.2727 62.6136V46.6136C55.9286 46.6136 51.7814 47.695 48.0776 50.0189L56.5815 63.572ZM60.2727 62.6136C61.2501 62.6136 62.049 62.7537 62.7199 62.9757L67.746 47.7856C65.326 46.9849 62.8181 46.6136 60.2727 46.6136V62.6136ZM62.7364 62.9812C63.4253 63.2074 63.9891 63.5167 64.4805 63.9054L74.4059 51.356C72.3973 49.7674 70.1543 48.5767 67.7295 47.7802L62.7364 62.9812ZM64.5158 63.9331C64.9614 64.2815 65.3573 64.7191 65.7098 65.3099L79.4493 57.1106C78.12 54.8831 76.425 52.9344 74.3706 51.3282L64.5158 63.9331ZM65.7245 65.3344C66.0046 65.7998 66.2736 66.4517 66.4409 67.396L82.1954 64.604C81.7264 61.9574 80.8364 59.4161 79.4346 57.0861L65.7245 65.3344ZM97.1037 63.8182V55.8182H89.1037V63.8182H97.1037ZM101.126 63.8182H109.126V55.8182H101.126V63.8182ZM101.126 90V98H109.126V90H101.126ZM97.1037 90H89.1037V98H97.1037V90ZM97.1037 85.5682H105.104V77.5682H97.1037V85.5682ZM96.831 85.5682V77.5682H91.7123L89.5673 82.2157L96.831 85.5682ZM93.9673 88.9602L98.601 95.4817L98.6199 95.4682L98.6388 95.4547L93.9673 88.9602ZM84.6946 89.267L80.7255 96.213L80.749 96.2264L80.7725 96.2396L84.6946 89.267ZM81.6946 85.9943L74.5281 89.5498L74.5336 89.5609L74.5392 89.572L81.6946 85.9943ZM80.6037 63.8182V55.8182H72.6037V63.8182H80.6037ZM84.6264 63.8182H92.6264V55.8182H84.6264V63.8182ZM86.2287 84.75L80.3997 90.2293L80.4141 90.2447L80.4287 90.26L86.2287 84.75ZM93.4048 85.6875L89.8897 78.5011L89.8742 78.5087L89.8587 78.5164L93.4048 85.6875ZM96.0298 83.3352L89.4065 78.8484L89.3899 78.873L89.3734 78.8976L96.0298 83.3352ZM105.104 79.2955V63.8182H89.1037V79.2955H105.104ZM97.1037 71.8182H101.126V55.8182H97.1037V71.8182ZM93.1264 63.8182V90H109.126V63.8182H93.1264ZM101.126 82H97.1037V98H101.126V82ZM105.104 90V85.5682H89.1037V90H105.104ZM97.1037 77.5682H96.831V93.5682H97.1037V77.5682ZM89.5673 82.2157C89.5644 82.222 89.5612 82.2299 89.5419 82.2527C89.5203 82.2783 89.4517 82.3538 89.2959 82.4658L98.6388 95.4547C100.951 93.7911 102.851 91.6144 104.095 88.9206L89.5673 82.2157ZM89.3337 82.4388C89.4037 82.389 89.4695 82.3521 89.5234 82.3267C89.5766 82.3016 89.6061 82.2935 89.6025 82.2945C89.593 82.2972 89.4309 82.3409 89.0582 82.3409V98.3409C92.2864 98.3409 95.6524 97.5768 98.601 95.4817L89.3337 82.4388ZM89.0582 82.3409C88.8255 82.3409 88.6988 82.3158 88.6518 82.3042C88.6093 82.2938 88.6058 82.2883 88.6167 82.2944L80.7725 96.2396C83.3818 97.7074 86.2169 98.3409 89.0582 98.3409V82.3409ZM88.6637 82.3211C88.7033 82.3437 88.7463 82.3725 88.7888 82.4065C88.8311 82.4403 88.8642 82.4724 88.8873 82.4976C88.9365 82.5513 88.9138 82.5441 88.85 82.4166L74.5392 89.572C75.8925 92.2787 77.9335 94.6176 80.7255 96.213L88.6637 82.3211ZM88.8611 82.4388C88.8432 82.4027 88.6037 81.8708 88.6037 80.4545H72.6037C72.6037 83.4929 73.0915 86.6541 74.5281 89.5498L88.8611 82.4388ZM88.6037 80.4545V63.8182H72.6037V80.4545H88.6037ZM80.6037 71.8182H84.6264V55.8182H80.6037V71.8182ZM76.6264 63.8182V80.1818H92.6264V63.8182H76.6264ZM76.6264 80.1818C76.6264 83.6463 77.6392 87.2926 80.3997 90.2293L92.0577 79.2707C92.315 79.5444 92.4868 79.8532 92.5761 80.1079C92.6565 80.3371 92.6264 80.3956 92.6264 80.1818H76.6264ZM80.4287 90.26C83.1261 93.0994 86.6515 94.4545 90.3537 94.4545V78.4545C90.4383 78.4545 90.7314 78.4722 91.1248 78.6348C91.5294 78.8019 91.8379 79.0392 92.0287 79.24L80.4287 90.26ZM90.3537 94.4545C92.7599 94.4545 94.9838 93.8314 96.951 92.8586L89.8587 78.5164C89.801 78.5449 89.8216 78.5279 89.916 78.5042C90.0142 78.4795 90.1648 78.4545 90.3537 78.4545V94.4545ZM96.9199 92.8739C99.3519 91.6843 101.27 89.8969 102.686 87.7728L89.3734 78.8976C89.3646 78.9109 89.4036 78.85 89.5063 78.758C89.612 78.6633 89.7445 78.5721 89.8897 78.5011L96.9199 92.8739ZM102.653 87.822C104.489 85.1125 105.104 82.0826 105.104 79.2955H89.1037C89.1037 79.5371 89.0767 79.5793 89.1037 79.4775C89.1341 79.3631 89.2173 79.1277 89.4065 78.8484L102.653 87.822ZM112.517 55.0909H120.517V47.0909H112.517V55.0909ZM112.517 90V98H120.517V90H112.517ZM108.494 90H100.494V98H108.494V90ZM108.494 55.0909V47.0909H100.494V55.0909H108.494ZM104.517 55.0909V90H120.517V55.0909H104.517ZM112.517 82H108.494V98H112.517V82ZM116.494 90V55.0909H100.494V90H116.494ZM108.494 63.0909H112.517V47.0909H108.494V63.0909ZM119.885 90H111.885V98H119.885V90ZM119.885 63.8182V55.8182H111.885V63.8182H119.885ZM123.908 63.8182H131.908V55.8182H123.908V63.8182ZM123.908 90V98H131.908V90H123.908ZM119.902 58.6534L114.364 64.4269L114.393 64.4548L114.423 64.4824L119.902 58.6534ZM119.902 54.8011L114.423 48.9721L114.393 48.9998L114.364 49.0277L119.902 54.8011ZM123.942 54.8011L118.404 60.5746L118.433 60.6025L118.462 60.6302L123.942 54.8011ZM123.942 58.6534L118.462 52.8244L118.433 52.852L118.404 52.88L123.942 58.6534ZM127.885 90V63.8182H111.885V90H127.885ZM119.885 71.8182H123.908V55.8182H119.885V71.8182ZM115.908 63.8182V90H131.908V63.8182H115.908ZM123.908 82H119.885V98H123.908V82ZM121.93 51.4545C122.465 51.4545 123.105 51.5494 123.774 51.8136C124.444 52.0781 124.982 52.4492 125.381 52.8244L114.423 64.4824C116.484 66.4196 119.123 67.4545 121.93 67.4545V51.4545ZM125.44 52.88C125.849 53.2726 126.29 53.8394 126.615 54.5886C126.942 55.3427 127.067 56.087 127.067 56.7273H111.067C111.067 59.7264 112.285 62.4329 114.364 64.4269L125.44 52.88ZM127.067 56.7273C127.067 57.3676 126.942 58.1119 126.615 58.8659C126.29 59.6151 125.849 60.1819 125.44 60.5746L114.364 49.0277C112.285 51.0217 111.067 53.7282 111.067 56.7273H127.067ZM125.381 60.6302C124.982 61.0054 124.444 61.3765 123.774 61.641C123.105 61.9052 122.465 62 121.93 62V46C119.123 46 116.484 47.0349 114.423 48.9721L125.381 60.6302ZM121.93 62C121.397 62 120.746 61.9053 120.061 61.6324C119.373 61.3586 118.818 60.9715 118.404 60.5746L129.48 49.0277C127.406 47.0391 124.741 46 121.93 46V62ZM118.462 60.6302C118.054 60.2459 117.601 59.6803 117.265 58.9203C116.926 58.1534 116.794 57.3899 116.794 56.7273H132.794C132.794 53.6728 131.526 50.9505 129.421 48.9721L118.462 60.6302ZM116.794 56.7273C116.794 56.0646 116.926 55.3011 117.265 54.5342C117.601 53.7742 118.054 53.2086 118.462 52.8244L129.421 64.4824C131.526 62.504 132.794 59.7818 132.794 56.7273H116.794ZM118.404 52.88C118.818 52.483 119.373 52.096 120.061 51.8221C120.746 51.5492 121.397 51.4545 121.93 51.4545V67.4545C124.741 67.4545 127.406 66.4154 129.48 64.4269L118.404 52.88ZM135.298 90V98H143.298V90H135.298ZM131.276 90H123.276V98H131.276V90ZM131.276 63.8182V55.8182H123.276V63.8182H131.276ZM135.162 63.8182H143.162V55.8182H135.162V63.8182ZM135.162 67.9091H127.162V75.9091H135.162V67.9091ZM135.503 67.9091V75.9091H140.621L142.767 71.2616L135.503 67.9091ZM138.298 64.7045L142.637 71.426L142.658 71.4122L142.68 71.3982L138.298 64.7045ZM147.793 64.5682L143.953 71.5868L143.977 71.5994L144 71.6119L147.793 64.5682ZM150.895 67.8409L143.751 71.4408L143.756 71.452L143.762 71.4631L150.895 67.8409ZM152.003 90V98H160.003V90H152.003ZM147.98 90H139.98V98H147.98V90ZM146.378 68.8295L140.495 74.251L140.508 74.2654L140.522 74.2798L146.378 68.8295ZM138.537 67.9261L134.679 60.9181L134.662 60.9273L134.645 60.9366L138.537 67.9261ZM136.168 70.3636L129.136 66.5486L129.136 66.5486L136.168 70.3636ZM127.298 74.25V90H143.298V74.25H127.298ZM135.298 82H131.276V98H135.298V82ZM139.276 90V63.8182H123.276V90H139.276ZM131.276 71.8182H135.162V55.8182H131.276V71.8182ZM127.162 63.8182V67.9091H143.162V63.8182H127.162ZM135.162 75.9091H135.503V59.9091H135.162V75.9091ZM142.767 71.2616C142.767 71.2596 142.762 71.2723 142.747 71.295C142.732 71.318 142.713 71.3439 142.69 71.3697C142.668 71.3955 142.648 71.4145 142.635 71.426C142.621 71.4374 142.62 71.4367 142.637 71.426L133.96 57.9831C131.457 59.5988 129.499 61.8262 128.239 64.5566L142.767 71.2616ZM142.68 71.3982C142.484 71.526 142.366 71.5504 142.412 71.5388C142.469 71.5242 142.693 71.4773 143.139 71.4773V55.4773C140.099 55.4773 136.829 56.1051 133.917 58.0109L142.68 71.3982ZM143.139 71.4773C143.479 71.4773 143.692 71.512 143.806 71.5388C143.864 71.5523 143.9 71.5647 143.921 71.5724C143.941 71.58 143.95 71.5852 143.953 71.5868L151.632 57.5496C148.94 56.0769 146.025 55.4773 143.139 55.4773V71.4773ZM144 71.6119C143.965 71.5932 143.922 71.5664 143.876 71.5312C143.83 71.4959 143.79 71.4597 143.759 71.4269C143.693 71.3569 143.7 71.3406 143.751 71.4408L158.039 64.2411C156.63 61.4447 154.485 59.0859 151.585 57.5244L144 71.6119ZM143.762 71.4631C143.761 71.4619 144.003 71.9587 144.003 73.3636H160.003C160.003 70.314 159.506 67.129 158.028 64.2187L143.762 71.4631ZM144.003 73.3636V90H160.003V73.3636H144.003ZM152.003 82H147.98V98H152.003V82ZM155.98 90V73.6364H139.98V90H155.98ZM155.98 73.6364C155.98 70.2053 155.066 66.422 152.234 63.3793L140.522 74.2798C140.379 74.1266 140.26 73.9635 140.167 73.803C140.074 73.6441 140.02 73.5107 139.99 73.4219C139.933 73.2519 139.98 73.2872 139.98 73.6364H155.98ZM152.261 63.4081C149.401 60.3051 145.635 59.0909 141.98 59.0909V75.0909C142.085 75.0909 141.893 75.1066 141.536 74.9653C141.149 74.8123 140.777 74.5571 140.495 74.251L152.261 63.4081ZM141.98 59.0909C139.501 59.0909 137 59.6399 134.679 60.9181L142.395 74.9342C142.266 75.0053 142.141 75.0503 142.042 75.0742C141.947 75.0972 141.919 75.0909 141.98 75.0909V59.0909ZM134.645 60.9366C132.235 62.2785 130.393 64.232 129.136 66.5486L143.199 74.1787C143.165 74.2416 143.082 74.3739 142.931 74.5292C142.778 74.6871 142.602 74.8191 142.429 74.9156L134.645 60.9366ZM129.136 66.5486C127.78 69.048 127.298 71.7259 127.298 74.25H143.298C143.298 73.9921 143.323 73.8806 143.323 73.8827C143.322 73.8849 143.315 73.9156 143.296 73.9688C143.276 74.0226 143.245 74.0945 143.199 74.1787L129.136 66.5486ZM162.541 89.6761L159.135 96.9147L159.16 96.9264L159.185 96.938L162.541 89.6761ZM159.32 86.9318L152.644 91.3403L152.654 91.3549L152.663 91.3694L159.32 86.9318ZM159.013 78.9205L165.769 83.2048L165.781 83.1863L165.792 83.1678L159.013 78.9205ZM164.655 75.5114L166.367 83.3261L166.394 83.3201L166.421 83.3139L164.655 75.5114ZM168.286 74.8636L167.265 66.929L167.256 66.9301L167.248 66.9312L168.286 74.8636ZM172.155 74.4034L172.978 82.3609L173.018 82.3568L173.058 82.3523L172.155 74.4034ZM174.337 73.8409L170.423 66.8638L170.386 66.8845L170.349 66.9057L174.337 73.8409ZM173.655 68.4205L167.929 74.007L167.946 74.0248L167.963 74.0425L173.655 68.4205ZM164.996 68.2841L169.88 74.6202L169.88 74.6202L164.996 68.2841ZM162.695 70.9773L160.004 78.5112L166.877 80.966L169.951 74.3462L162.695 70.9773ZM158.876 69.6136L151.523 66.4623L148.171 74.285L156.186 77.1476L158.876 69.6136ZM161.604 65.8977L166.524 72.2058L166.532 72.1991L161.604 65.8977ZM165.354 64.0227L167.37 71.7644L167.393 71.7585L167.415 71.7526L165.354 64.0227ZM172.274 63.7841L170.8 71.6471L170.846 71.6558L170.893 71.664L172.274 63.7841ZM175.462 64.9943L171.346 71.8543L171.362 71.8643L171.379 71.8742L175.462 64.9943ZM178.036 67.7727L171.027 71.6305L171.027 71.6305L178.036 67.7727ZM179.058 90V98H187.058V90H179.058ZM175.036 90H167.036V98H175.036V90ZM175.036 86.4545H183.036V78.4545H175.036V86.4545ZM174.831 86.4545V78.4545H169.797L167.619 82.9927L174.831 86.4545ZM173.467 88.2784L179.174 93.885L179.174 93.885L173.467 88.2784ZM170.928 89.9318L167.767 82.5828L170.928 89.9318ZM171.695 86.0625L167.749 79.1033L167.733 79.1121L167.718 79.121L171.695 86.0625ZM174.183 83.642L167.247 79.6558L167.23 79.6859L167.213 79.7162L174.183 83.642ZM175.036 76.8409H183.036V54.7444L168.89 71.7194L175.036 76.8409ZM173.911 77.4034L176.068 85.1071L176.118 85.0931L176.168 85.0783L173.911 77.4034ZM171.933 77.8295L173.15 85.7365L173.199 85.7289L173.248 85.7207L171.933 77.8295ZM169.768 78.1364L170.681 86.0842L170.736 86.0778L170.792 86.0706L169.768 78.1364ZM168.081 78.3409L169.116 86.2737L169.125 86.2725L168.081 78.3409ZM165.149 79.0057L167.65 86.6047L167.679 86.5953L167.707 86.5856L165.149 79.0057ZM162.967 80.3523L157.093 74.9214L157.089 74.926L162.967 80.3523ZM163.7 85.9432L159.147 92.5207L159.188 92.5493L159.229 92.5773L163.7 85.9432ZM167.058 82.6136C166.426 82.6136 166.084 82.5002 165.898 82.4142L159.185 96.938C161.703 98.102 164.373 98.6136 167.058 98.6136V82.6136ZM165.948 82.4376C165.909 82.4195 165.891 82.4081 165.888 82.4065C165.886 82.405 165.894 82.4102 165.909 82.4228C165.924 82.4356 165.94 82.4508 165.954 82.4666C165.968 82.4824 165.975 82.4929 165.976 82.4942L152.663 91.3694C154.302 93.8272 156.523 95.6854 159.135 96.9147L165.948 82.4376ZM165.995 82.5233C166.037 82.586 166.071 82.6486 166.096 82.7064C166.122 82.7638 166.136 82.8063 166.141 82.8275C166.153 82.8705 166.126 82.7988 166.126 82.5682H150.126C150.126 85.5514 150.838 88.6059 152.644 91.3403L165.995 82.5233ZM166.126 82.5682C166.126 82.333 166.151 82.3019 166.122 82.4202C166.091 82.5487 165.999 82.8416 165.769 83.2048L152.257 74.6361C150.61 77.2321 150.126 80.0792 150.126 82.5682H166.126ZM165.792 83.1678C165.731 83.2654 165.638 83.3848 165.513 83.5019C165.388 83.6188 165.27 83.6972 165.185 83.7431L157.58 69.666C155.386 70.8509 153.566 72.5461 152.233 74.6731L165.792 83.1678ZM165.185 83.7431C165.461 83.5935 165.84 83.4414 166.367 83.3261L162.943 67.6966C161.083 68.104 159.28 68.7474 157.58 69.666L165.185 83.7431ZM166.421 83.3139C167.387 83.0953 168.354 82.9229 169.323 82.796L167.248 66.9312C165.785 67.1226 164.332 67.382 162.888 67.7089L166.421 83.3139ZM169.306 82.7983C170.865 82.5978 172.082 82.4536 172.978 82.3609L171.332 66.4459C170.25 66.5578 168.887 66.7204 167.265 66.929L169.306 82.7983ZM173.058 82.3523C174.329 82.2078 176.404 81.8807 178.324 80.7762L170.349 66.9057C170.668 66.722 170.933 66.6092 171.104 66.5443C171.278 66.4783 171.4 66.4444 171.453 66.4309C171.546 66.4069 171.498 66.4266 171.252 66.4546L173.058 82.3523ZM178.251 80.8181C181.816 78.8177 183.036 75.291 183.036 72.4773H167.036C167.036 71.8637 167.145 70.8192 167.741 69.6553C168.377 68.4155 169.349 67.4658 170.423 66.8638L178.251 80.8181ZM183.036 72.4773V72.3409H167.036V72.4773H183.036ZM183.036 72.3409C183.036 69.179 182.133 65.62 179.346 62.7984L167.963 74.0425C167.547 73.6208 167.283 73.1505 167.145 72.7568C167.018 72.3961 167.036 72.2178 167.036 72.3409H183.036ZM179.381 62.8339C176.425 59.804 172.598 59.0227 169.513 59.0227V75.0227C169.794 75.0227 169.702 75.061 169.38 74.9522C169.016 74.8295 168.459 74.5502 167.929 74.007L179.381 62.8339ZM169.513 59.0227C166.508 59.0227 163.061 59.6746 160.112 61.948L169.88 74.6202C169.508 74.9065 169.2 75.0141 169.095 75.0433C169.009 75.0673 169.121 75.0227 169.513 75.0227V59.0227ZM160.112 61.948C158.306 63.3395 156.564 65.185 155.439 67.6084L169.951 74.3462C169.831 74.6035 169.717 74.747 169.684 74.7849C169.656 74.8187 169.702 74.7575 169.88 74.6202L160.112 61.948ZM165.385 63.4433L161.567 62.0797L156.186 77.1476L160.004 78.5112L165.385 63.4433ZM166.23 72.765C166.36 72.4603 166.467 72.2958 166.519 72.225C166.567 72.1592 166.572 72.1679 166.524 72.2057L156.683 59.5897C154.288 61.458 152.63 63.8793 151.523 66.4623L166.23 72.765ZM166.532 72.1991C166.856 71.9461 167.122 71.829 167.37 71.7644L163.337 56.2811C160.88 56.921 158.647 58.0539 156.675 59.5964L166.532 72.1991ZM167.415 71.7526C168.153 71.5557 168.801 71.4773 169.376 71.4773V55.4773C167.315 55.4773 165.281 55.7625 163.292 56.2928L167.415 71.7526ZM169.376 71.4773C169.595 71.4773 170.051 71.5066 170.8 71.6471L173.748 55.9211C172.316 55.6525 170.84 55.4773 169.376 55.4773V71.4773ZM170.893 71.664C170.967 71.6769 171.108 71.7119 171.346 71.8543L179.578 58.1344C177.769 57.0494 175.786 56.2776 173.655 55.9042L170.893 71.664ZM171.379 71.8742C171.202 71.7692 171.08 71.659 171.012 71.5858C170.949 71.5178 170.963 71.5148 171.027 71.6305L185.044 63.9149C183.796 61.6478 182.007 59.5756 179.544 58.1144L171.379 71.8742ZM171.027 71.6305C170.913 71.4234 170.926 71.3626 170.966 71.5562C171.007 71.7524 171.058 72.134 171.058 72.75H187.058C187.058 69.9115 186.611 66.7624 185.044 63.9149L171.027 71.6305ZM171.058 72.75V90H187.058V72.75H171.058ZM179.058 82H175.036V98H179.058V82ZM183.036 90V86.4545H167.036V90H183.036ZM175.036 78.4545H174.831V94.4545H175.036V78.4545ZM167.619 82.9927C167.747 82.7255 167.856 82.5767 167.878 82.5462C167.903 82.5135 167.874 82.5561 167.761 82.6718L179.174 93.885C180.179 92.8619 181.262 91.5431 182.043 89.9164L167.619 82.9927ZM167.761 82.6718C167.891 82.5389 167.982 82.4789 167.99 82.4731C167.998 82.4685 167.933 82.5114 167.767 82.5828L174.088 97.2809C175.854 96.5214 177.644 95.442 179.174 93.885L167.761 82.6718ZM167.767 82.5828C167.879 82.5346 167.897 82.5438 167.779 82.5646C167.66 82.5857 167.427 82.6136 167.058 82.6136V98.6136C169.334 98.6136 171.766 98.2797 174.088 97.2809L167.767 82.5828ZM167.672 95C170.294 95 173.089 94.4836 175.671 93.004L167.718 79.121C167.81 79.068 167.89 79.0318 167.952 79.0081C168.013 78.9847 168.049 78.9757 168.055 78.9744C168.063 78.9724 167.948 79 167.672 79V95ZM175.641 93.0217C177.856 91.7653 179.802 89.9675 181.154 87.5679L167.213 79.7162C167.317 79.5308 167.443 79.373 167.566 79.2538C167.684 79.1384 167.762 79.096 167.749 79.1033L175.641 93.0217ZM181.119 87.6283C182.352 85.4839 183.036 83.077 183.036 80.5227H167.036C167.036 80.3646 167.057 80.1878 167.105 80.0122C167.153 79.8387 167.212 79.7175 167.247 79.6558L181.119 87.6283ZM183.036 80.5227V76.8409H167.036V80.5227H183.036ZM168.89 71.7194C169.375 71.1375 169.856 70.7425 170.2 70.495C170.55 70.2435 170.851 70.0784 171.049 69.9795C171.252 69.8781 171.409 69.8151 171.498 69.7817C171.59 69.7473 171.645 69.7309 171.653 69.7285L176.168 85.0783C176.732 84.9124 177.453 84.6661 178.204 84.2904C178.874 83.9557 180.1 83.2594 181.181 81.9624L168.89 71.7194ZM171.753 69.6997C171.528 69.7628 171.161 69.848 170.618 69.9384L173.248 85.7207C174.206 85.5611 175.157 85.3622 176.068 85.1071L171.753 69.6997ZM170.717 69.9226C170.039 70.0269 169.382 70.1199 168.745 70.2021L170.792 86.0706C171.564 85.971 172.35 85.8595 173.15 85.7365L170.717 69.9226ZM168.856 70.1885C168.142 70.2705 167.531 70.3443 167.037 70.4093L169.125 86.2725C169.495 86.2239 170.009 86.1613 170.681 86.0842L168.856 70.1885ZM167.046 70.4081C165.533 70.6055 164.041 70.9364 162.591 71.4257L167.707 86.5856C168.076 86.4614 168.538 86.3491 169.116 86.2737L167.046 70.4081ZM162.648 71.4067C160.659 72.0614 158.704 73.1789 157.093 74.9214L168.842 85.7831C168.344 86.3211 167.844 86.5408 167.65 86.6047L162.648 71.4067ZM157.089 74.926C154.838 77.3644 154.149 80.306 154.149 82.7727H170.149C170.149 83.194 170.006 84.5219 168.846 85.7785L157.089 74.926ZM154.149 82.7727C154.149 86.4543 155.688 90.1263 159.147 92.5207L168.254 79.3656C168.782 79.7309 169.339 80.3127 169.723 81.0979C170.092 81.8513 170.149 82.4801 170.149 82.7727H154.149ZM159.229 92.5773C161.913 94.3856 164.907 95 167.672 95V79C167.451 79 167.423 78.9752 167.534 79.0048C167.658 79.0377 167.895 79.1227 168.171 79.3091L159.229 92.5773ZM186.401 90H178.401V98H186.401V90ZM186.401 63.8182V55.8182H178.401V63.8182H186.401ZM190.287 63.8182H198.287V55.8182H190.287V63.8182ZM190.287 67.7727H182.287V75.7727H190.287V67.7727ZM190.56 67.7727V75.7727H196.138L198.066 70.5384L190.56 67.7727ZM193.151 64.6193L188.812 57.8978L188.812 57.8978L193.151 64.6193ZM199.491 63.4773H207.491V56.2374L200.288 55.517L199.491 63.4773ZM199.491 67.5682L197.551 75.3293L207.491 77.8144V67.5682H199.491ZM198.554 67.4148L197.239 75.3059L197.343 75.3234L197.448 75.338L198.554 67.4148ZM193.628 68.0966L197.367 75.1689L197.382 75.1611L197.397 75.1532L193.628 68.0966ZM191.276 70.2784L184.482 66.0533L184.475 66.0648L184.468 66.0763L191.276 70.2784ZM190.423 90V98H198.423V90H190.423ZM194.401 90V63.8182H178.401V90H194.401ZM186.401 71.8182H190.287V55.8182H186.401V71.8182ZM182.287 63.8182V67.7727H198.287V63.8182H182.287ZM190.287 75.7727H190.56V59.7727H190.287V75.7727ZM198.066 70.5384C198 70.7177 197.891 70.9152 197.747 71.0914C197.679 71.1736 197.616 71.2356 197.567 71.2788C197.543 71.3 197.524 71.3155 197.51 71.3258C197.496 71.336 197.489 71.3408 197.489 71.3408L188.812 57.8978C186.225 59.5675 184.177 61.9553 183.053 65.0071L198.066 70.5384ZM197.489 71.3408C197.48 71.3465 197.461 71.3581 197.432 71.3712C197.403 71.3843 197.374 71.395 197.347 71.4027C197.32 71.4103 197.305 71.4124 197.306 71.4123C197.307 71.4122 197.329 71.4091 197.378 71.4091V55.4091C194.358 55.4091 191.427 56.2103 188.812 57.8978L197.489 71.3408ZM197.378 71.4091C197.58 71.4091 197.876 71.4131 198.281 71.4235L198.691 55.4288C198.209 55.4164 197.766 55.4091 197.378 55.4091V71.4091ZM198.281 71.4235C198.455 71.428 198.58 71.4329 198.663 71.4371C198.755 71.4418 198.756 71.4436 198.695 71.4376L200.288 55.517C199.758 55.464 199.185 55.4414 198.691 55.4288L198.281 71.4235ZM191.491 63.4773V67.5682H207.491V63.4773H191.491ZM201.432 59.807C200.799 59.6488 200.029 59.543 199.66 59.4915L197.448 75.338C197.551 75.3524 197.638 75.3648 197.709 75.3754C197.781 75.3862 197.831 75.3941 197.863 75.3993C197.878 75.4018 197.886 75.4031 197.888 75.4034C197.89 75.4037 197.881 75.4023 197.864 75.399C197.848 75.3959 197.814 75.3895 197.768 75.3797C197.745 75.3747 197.715 75.3682 197.68 75.3602C197.646 75.3523 197.602 75.342 197.551 75.3293L201.432 59.807ZM199.869 59.5236C198.915 59.3646 197.967 59.2955 197.037 59.2955V75.2955C197.106 75.2955 197.156 75.298 197.189 75.3007C197.206 75.302 197.219 75.3033 197.227 75.3043C197.235 75.3053 197.239 75.3059 197.239 75.3059L199.869 59.5236ZM197.037 59.2955C194.613 59.2955 192.155 59.8138 189.859 61.04L197.397 75.1532C197.267 75.2225 197.147 75.2632 197.06 75.2836C196.977 75.3031 196.962 75.2955 197.037 75.2955V59.2955ZM189.888 61.0243C187.673 62.1958 185.825 63.8949 184.482 66.0533L198.069 74.5035C197.993 74.6262 197.882 74.7664 197.739 74.8995C197.596 75.0319 197.462 75.1188 197.367 75.1689L189.888 61.0243ZM184.468 66.0763C183.049 68.3755 182.423 70.908 182.423 73.4318H198.423C198.423 73.4862 198.416 73.6341 198.359 73.8444C198.301 74.0592 198.207 74.2793 198.083 74.4806L184.468 66.0763ZM182.423 73.4318V90H198.423V73.4318H182.423ZM190.423 82H186.401V98H190.423V82ZM205.824 99.6477L207.489 91.8229L207.409 91.8059L207.328 91.7905L205.824 99.6477ZM204.716 99.3409L197.029 97.1236L195.184 103.519L201.138 106.496L204.716 99.3409ZM205.739 95.7955L207.721 88.045L200.203 86.1217L198.052 93.5782L205.739 95.7955ZM208.33 96.0682L207.605 88.101L207.605 88.101L208.33 96.0682ZM210.324 95.0625L204.667 89.4056L204.613 89.46L204.559 89.5155L210.324 95.0625ZM211.943 92.1818L219.452 94.9415L219.454 94.9359L211.943 92.1818ZM212.693 90.1364L220.204 92.8904L221.216 90.1318L220.201 87.3743L212.693 90.1364ZM203.011 63.8182V55.8182H191.544L195.503 66.5802L203.011 63.8182ZM207.375 63.8182L214.934 61.1996L213.07 55.8182H207.375V63.8182ZM214.602 84.6818L207.043 87.3004L208.907 92.6818H214.602V84.6818ZM214.875 84.6818V92.6818H220.57L222.434 87.3004L214.875 84.6818ZM222.102 63.8182V55.8182H216.407L214.543 61.1996L222.102 63.8182ZM226.466 63.8182L233.968 66.5973L237.961 55.8182H226.466V63.8182ZM215.352 93.8182L207.85 91.0391L207.849 91.0438L215.352 93.8182ZM213.494 97.1761L207.349 92.0547L207.333 92.0739L207.317 92.0932L213.494 97.1761ZM210.92 99.1705L207.687 91.853L207.671 91.86L207.655 91.8671L210.92 99.1705ZM207.648 91.8182C207.527 91.8182 207.455 91.8131 207.425 91.8103C207.395 91.8074 207.419 91.808 207.489 91.8229L204.159 107.473C205.356 107.727 206.538 107.818 207.648 107.818V91.8182ZM207.328 91.7905C207.194 91.7647 207.192 91.7597 207.281 91.7845C207.33 91.7979 207.437 91.8289 207.586 91.882C207.726 91.9318 207.979 92.0281 208.294 92.1855L201.138 106.496C202.43 107.142 203.781 107.402 204.319 107.505L207.328 91.7905ZM212.402 101.558L213.425 98.0127L198.052 93.5782L197.029 97.1236L212.402 101.558ZM203.756 103.546C205.336 103.95 207.146 104.209 209.054 104.035L207.605 88.101C207.822 88.0814 207.947 88.094 207.957 88.0951C207.967 88.0962 207.892 88.0888 207.721 88.045L203.756 103.546ZM209.054 104.035C211.935 103.773 214.332 102.435 216.088 100.61L204.559 89.5155C204.819 89.2454 205.223 88.9077 205.789 88.6225C206.366 88.3315 206.99 88.157 207.605 88.101L209.054 104.035ZM215.981 100.719C217.773 98.9272 218.804 96.7039 219.452 94.9415L204.434 89.4221C204.368 89.6013 204.313 89.736 204.269 89.8321C204.226 89.9289 204.201 89.9746 204.198 89.979C204.195 89.9843 204.224 89.9315 204.293 89.8377C204.361 89.7444 204.482 89.5906 204.667 89.4056L215.981 100.719ZM219.454 94.9359L220.204 92.8904L205.182 87.3823L204.432 89.4278L219.454 94.9359ZM220.201 87.3743L210.519 61.0561L195.503 66.5802L205.185 92.8984L220.201 87.3743ZM203.011 71.8182H207.375V55.8182H203.011V71.8182ZM199.816 66.4368L207.043 87.3004L222.162 82.0632L214.934 61.1996L199.816 66.4368ZM214.602 92.6818H214.875V76.6818H214.602V92.6818ZM222.434 87.3004L229.662 66.4368L214.543 61.1996L207.316 82.0632L222.434 87.3004ZM222.102 71.8182H226.466V55.8182H222.102V71.8182ZM218.964 61.0391L207.85 91.0391L222.854 96.5973L233.968 66.5973L218.964 61.0391ZM207.849 91.0438C207.589 91.7465 207.38 92.0175 207.349 92.0547L219.64 102.298C221.086 100.562 222.116 98.5944 222.856 96.5926L207.849 91.0438ZM207.317 92.0932C207.299 92.1146 207.323 92.0814 207.397 92.0242C207.473 91.9653 207.573 91.9036 207.687 91.853L214.154 106.488C216.372 105.508 218.211 104.035 219.672 102.259L207.317 92.0932ZM207.655 91.8671C207.7 91.8471 207.739 91.8329 207.77 91.8233C207.8 91.8136 207.819 91.8095 207.825 91.8085C207.836 91.8063 207.782 91.8182 207.648 91.8182V107.818C209.822 107.818 212.05 107.429 214.186 106.474L207.655 91.8671ZM245.821 90H237.821V98H245.821V90ZM245.821 55.0909V47.0909H237.821V55.0909H245.821ZM266.889 55.0909H274.889V47.0909H266.889V55.0909ZM266.889 58.8409V66.8409H274.889V58.8409H266.889ZM250.048 58.8409V50.8409H242.048V58.8409H250.048ZM250.048 70.6364H242.048V78.6364H250.048V70.6364ZM265.798 70.6364H273.798V62.6364H265.798V70.6364ZM265.798 74.3864V82.3864H273.798V74.3864H265.798ZM250.048 74.3864V66.3864H242.048V74.3864H250.048ZM250.048 86.25H242.048V94.25H250.048V86.25ZM267.162 86.25H275.162V78.25H267.162V86.25ZM267.162 90V98H275.162V90H267.162ZM253.821 90V55.0909H237.821V90H253.821ZM245.821 63.0909H266.889V47.0909H245.821V63.0909ZM258.889 55.0909V58.8409H274.889V55.0909H258.889ZM266.889 50.8409H250.048V66.8409H266.889V50.8409ZM242.048 58.8409V70.6364H258.048V58.8409H242.048ZM250.048 78.6364H265.798V62.6364H250.048V78.6364ZM257.798 70.6364V74.3864H273.798V70.6364H257.798ZM265.798 66.3864H250.048V82.3864H265.798V66.3864ZM242.048 74.3864V86.25H258.048V74.3864H242.048ZM250.048 94.25H267.162V78.25H250.048V94.25ZM259.162 86.25V90H275.162V86.25H259.162ZM267.162 82H245.821V98H267.162V82ZM276.963 63.8182L283.865 59.7736L281.548 55.8182H276.963V63.8182ZM283.236 74.5227L276.334 78.5674L283.236 90.3462L290.138 78.5674L283.236 74.5227ZM289.509 63.8182V55.8182H284.924L282.606 59.7736L289.509 63.8182ZM294.145 63.8182L300.865 68.1584L308.835 55.8182H294.145V63.8182ZM285.69 76.9091L278.97 72.5689L276.167 76.9091L278.97 81.2493L285.69 76.9091ZM294.145 90V98H308.835L300.865 85.6598L294.145 90ZM289.509 90L282.702 94.203L285.046 98H289.509V90ZM283.236 79.8409L290.043 75.6379L283.236 64.6136L276.429 75.6379L283.236 79.8409ZM276.963 90V98H281.426L283.77 94.203L276.963 90ZM272.327 90L265.575 85.7095L257.765 98H272.327V90ZM280.645 76.9091L287.397 81.1995L290.123 76.9091L287.397 72.6186L280.645 76.9091ZM272.327 63.8182V55.8182H257.765L265.575 68.1086L272.327 63.8182ZM270.061 67.8628L276.334 78.5674L290.138 70.4781L283.865 59.7736L270.061 67.8628ZM290.138 78.5674L296.411 67.8628L282.606 59.7736L276.334 70.4781L290.138 78.5674ZM289.509 71.8182H294.145V55.8182H289.509V71.8182ZM287.425 59.478L278.97 72.5689L292.411 81.2493L300.865 68.1584L287.425 59.478ZM278.97 81.2493L287.425 94.3402L300.865 85.6598L292.411 72.5689L278.97 81.2493ZM294.145 82H289.509V98H294.145V82ZM296.316 85.797L290.043 75.6379L276.429 84.0439L282.702 94.203L296.316 85.797ZM276.429 75.6379L270.156 85.797L283.77 94.203L290.043 84.0439L276.429 75.6379ZM276.963 82H272.327V98H276.963V82ZM279.079 94.2905L287.397 81.1995L273.893 72.6186L265.575 85.7095L279.079 94.2905ZM287.397 72.6186L279.079 59.5277L265.575 68.1086L273.893 81.1995L287.397 72.6186ZM272.327 71.8182H276.963V55.8182H272.327V71.8182ZM299.885 99.8182H291.885V107.818H299.885V99.8182ZM299.885 63.8182V55.8182H291.885V63.8182H299.885ZM303.771 63.8182H311.771V55.8182H303.771V63.8182ZM303.771 67.9773H295.771V75.9773H303.771V67.9773ZM304.249 67.9773V75.9773H308.59L310.956 72.3372L304.249 67.9773ZM305.476 66.2386L299.064 61.4549L299.057 61.4634L299.051 61.4719L305.476 66.2386ZM307.76 64.3295L311.686 71.3L311.699 71.2926L311.712 71.2852L307.76 64.3295ZM317.646 65.1307L322.032 58.4397L322.032 58.4397L317.646 65.1307ZM321.584 69.8182L328.834 66.4373L328.834 66.4373L321.584 69.8182ZM321.584 84.1875L328.834 87.5684L328.838 87.5606L328.842 87.5528L321.584 84.1875ZM317.663 88.892L322.069 95.5693L322.085 95.5589L322.101 95.5484L317.663 88.892ZM307.845 89.7102L303.927 96.6849L303.957 96.7017L303.987 96.7183L307.845 89.7102ZM305.51 87.7841L299.11 92.5841L299.128 92.6083L299.146 92.6324L305.51 87.7841ZM304.249 85.9773L311.051 81.7664L308.705 77.9773H304.249V85.9773ZM303.908 85.9773V77.9773H295.908V85.9773H303.908ZM303.908 99.8182V107.818H311.908V99.8182H303.908ZM304.709 82.142L297.239 85.0063L297.243 85.0158L297.246 85.0252L304.709 82.142ZM307.249 85.6705L302.387 92.0235L302.407 92.0392L302.428 92.0548L307.249 85.6705ZM315.55 85.6023L320.501 91.8862L320.509 91.8797L315.55 85.6023ZM318.107 81.9886L310.63 79.143L310.624 79.1582L310.618 79.1735L318.107 81.9886ZM318.124 71.9318L310.631 74.7345L310.644 74.7692L310.657 74.8037L318.124 71.9318ZM315.584 68.4034L310.672 74.7182L310.708 74.7457L310.743 74.7727L315.584 68.4034ZM307.214 68.3352L311.951 74.7823L311.972 74.7667L311.994 74.7509L307.214 68.3352ZM304.692 71.7784L312.151 74.6696L312.155 74.6599L312.159 74.6502L304.692 71.7784ZM307.885 99.8182V63.8182H291.885V99.8182H307.885ZM299.885 71.8182H303.771V55.8182H299.885V71.8182ZM295.771 63.8182V67.9773H311.771V63.8182H295.771ZM303.771 75.9773H304.249V59.9773H303.771V75.9773ZM310.956 72.3372C311.124 72.0789 311.424 71.6474 311.901 71.0054L299.051 61.4719C298.482 62.239 297.964 62.9666 297.541 63.6174L310.956 72.3372ZM311.888 71.0223C311.744 71.216 311.624 71.3245 311.578 71.3627C311.534 71.399 311.558 71.3718 311.686 71.3L303.834 57.3591C302.127 58.3207 300.419 59.6377 299.064 61.4549L311.888 71.0223ZM311.712 71.2852C311.365 71.4825 311.145 71.5245 311.169 71.5194C311.178 71.5176 311.234 71.5065 311.345 71.4962C311.456 71.4859 311.611 71.4773 311.817 71.4773V55.4773C309.347 55.4773 306.456 55.869 303.808 57.3739L311.712 71.2852ZM311.817 71.4773C312.619 71.4773 313.007 71.6552 313.261 71.8217L322.032 58.4397C318.922 56.4016 315.423 55.4773 311.817 55.4773V71.4773ZM313.261 71.8217C313.565 72.0207 313.948 72.3719 314.333 73.199L328.834 66.4373C327.334 63.2191 325.092 60.4452 322.032 58.4397L313.261 71.8217ZM314.333 73.199C314.682 73.9466 314.999 75.1305 314.999 76.9773H330.999C330.999 73.3241 330.372 69.7352 328.834 66.4373L314.333 73.199ZM314.999 76.9773C314.999 78.8559 314.679 80.0616 314.326 80.8222L328.842 87.5528C330.375 84.2452 330.999 80.6441 330.999 76.9773H314.999ZM314.333 80.8066C313.939 81.6531 313.543 82.0241 313.226 82.2356L322.101 95.5484C325.124 93.5328 327.343 90.7674 328.834 87.5684L314.333 80.8066ZM313.257 82.2148C313.012 82.3765 312.648 82.5455 311.885 82.5455V98.5455C315.486 98.5455 318.974 97.6121 322.069 95.5693L313.257 82.2148ZM311.885 82.5455C311.684 82.5455 311.53 82.5371 311.419 82.5268C311.308 82.5166 311.248 82.5054 311.233 82.5023C311.198 82.4951 311.39 82.5294 311.704 82.7022L303.987 96.7183C306.598 98.1558 309.429 98.5455 311.885 98.5455V82.5455ZM311.764 82.7355C311.612 82.6502 311.567 82.6093 311.593 82.631C311.622 82.6544 311.732 82.7505 311.873 82.9357L299.146 92.6324C300.515 94.4283 302.227 95.7302 303.927 96.6849L311.764 82.7355ZM311.91 82.9841C311.432 82.3463 311.169 81.957 311.051 81.7664L297.446 90.1881C297.919 90.9521 298.497 91.7673 299.11 92.5841L311.91 82.9841ZM304.249 77.9773H303.908V93.9773H304.249V77.9773ZM295.908 85.9773V99.8182H311.908V85.9773H295.908ZM303.908 91.8182H299.885V107.818H303.908V91.8182ZM295.839 76.9091C295.839 79.6553 296.241 82.4031 297.239 85.0063L312.178 79.2777C312.018 78.8583 311.839 78.1174 311.839 76.9091H295.839ZM297.246 85.0252C298.277 87.6935 299.94 90.1509 302.387 92.0235L312.111 79.3174C312.15 79.3478 312.186 79.38 312.216 79.4112C312.246 79.4422 312.264 79.4655 312.271 79.4755C312.287 79.4972 312.242 79.4418 312.171 79.2589L297.246 85.0252ZM302.428 92.0548C305.14 94.1029 308.269 94.9318 311.339 94.9318V78.9318C311.229 78.9318 311.29 78.9179 311.464 78.9716C311.65 79.029 311.868 79.1337 312.069 79.2861L302.428 92.0548ZM311.339 94.9318C314.491 94.9318 317.728 94.0704 320.501 91.8862L310.599 79.3183C310.816 79.1469 311.05 79.032 311.244 78.9708C311.424 78.914 311.478 78.9318 311.339 78.9318V94.9318ZM320.509 91.8797C322.915 89.9786 324.575 87.517 325.595 84.8038L310.618 79.1735C310.552 79.3485 310.506 79.4108 310.511 79.4048C310.512 79.4032 310.52 79.3914 310.537 79.3739C310.554 79.3562 310.572 79.3392 310.591 79.3248L320.509 91.8797ZM325.583 84.8343C326.555 82.2819 326.976 79.6069 326.976 76.9091H310.976C310.976 77.9385 310.817 78.65 310.63 79.143L325.583 84.8343ZM326.976 76.9091C326.976 74.2439 326.563 71.5901 325.59 69.06L310.657 74.8037C310.82 75.2281 310.976 75.8925 310.976 76.9091H326.976ZM325.617 69.1291C324.592 66.3908 322.898 63.9138 320.424 62.0341L310.743 74.7727C310.71 74.7479 310.677 74.7184 310.646 74.6861C310.614 74.6539 310.592 74.6259 310.578 74.6068C310.565 74.5881 310.564 74.5844 310.573 74.6018C310.583 74.6196 310.603 74.6618 310.631 74.7345L325.617 69.1291ZM320.495 62.0886C317.706 59.9189 314.462 59.0909 311.339 59.0909V75.0909C311.509 75.0909 311.479 75.1125 311.316 75.0619C311.137 75.0067 310.902 74.8966 310.672 74.7182L320.495 62.0886ZM311.339 59.0909C308.299 59.0909 305.165 59.8866 302.435 61.9196L311.994 74.7509C311.78 74.9096 311.562 75.0097 311.391 75.0611C311.234 75.1087 311.197 75.0909 311.339 75.0909V59.0909ZM302.478 61.8882C299.959 63.7386 298.261 66.2138 297.225 68.9066L312.159 74.6502C312.217 74.4993 312.244 74.4805 312.202 74.5378C312.182 74.5655 312.149 74.6053 312.104 74.6511C312.058 74.6971 312.006 74.7418 311.951 74.7823L302.478 61.8882ZM297.232 68.8872C296.232 71.4692 295.839 74.1976 295.839 76.9091H311.839C311.839 75.7115 312.015 75.0195 312.151 74.6696L297.232 68.8872ZM333.158 55.0909H341.158V47.0909H333.158V55.0909ZM333.158 90V98H341.158V90H333.158ZM329.135 90H321.135V98H329.135V90ZM329.135 55.0909V47.0909H321.135V55.0909H329.135ZM325.158 55.0909V90H341.158V55.0909H325.158ZM333.158 82H329.135V98H333.158V82ZM337.135 90V55.0909H321.135V90H337.135ZM329.135 63.0909H333.158V47.0909H329.135V63.0909ZM344.94 88.858L340.654 95.6126L340.663 95.6188L340.673 95.6249L344.94 88.858ZM340.781 84.1364L333.594 87.6493L333.602 87.6656L333.61 87.6818L340.781 84.1364ZM340.781 69.9034L333.602 66.3739L333.594 66.3901L333.586 66.4063L340.781 69.9034ZM344.94 65.1648L340.673 58.3978L340.663 58.4039L340.654 58.4101L344.94 65.1648ZM357.366 65.1648L353.08 71.9194L353.09 71.9256L353.099 71.9318L357.366 65.1648ZM361.526 69.9034L354.33 73.4005L354.338 73.4167L354.346 73.4329L361.526 69.9034ZM361.526 84.1364L354.354 80.5909L354.346 80.6071L354.338 80.6234L361.526 84.1364ZM357.366 88.858L353.099 82.091L353.09 82.0971L353.08 82.1033L357.366 88.858ZM355.594 85.5511L350.619 79.2862L350.619 79.2862L355.594 85.5511ZM358.168 81.9205L365.668 84.7045L365.668 84.7045L358.168 81.9205ZM358.168 72.1534L365.674 69.3878L365.674 69.3878L358.168 72.1534ZM355.594 68.4886L360.606 62.2536L360.606 62.2536L355.594 68.4886ZM346.73 68.4886L341.718 62.2536L341.718 62.2536L346.73 68.4886ZM344.156 72.1534L336.65 69.3878L336.65 69.3878L344.156 72.1534ZM344.156 81.9205L336.656 84.7045L336.656 84.7045L344.156 81.9205ZM346.73 85.5511L351.705 79.2863L351.705 79.2862L346.73 85.5511ZM351.162 82.5455C350.121 82.5455 349.564 82.3159 349.207 82.091L340.673 95.6249C343.885 97.65 347.476 98.5455 351.162 98.5455V82.5455ZM349.227 82.1033C348.784 81.8224 348.354 81.4018 347.953 80.5909L333.61 87.6818C335.209 90.9164 337.551 93.6435 340.654 95.6126L349.227 82.1033ZM347.969 80.6234C347.612 79.893 347.298 78.7745 347.298 77.0455H331.298C331.298 80.7255 331.974 84.3342 333.594 87.6493L347.969 80.6234ZM347.298 77.0455C347.298 75.2837 347.615 74.1433 347.976 73.4005L333.586 66.4063C331.97 69.7317 331.298 73.3526 331.298 77.0455H347.298ZM347.961 73.4329C348.365 72.6104 348.795 72.1932 349.227 71.9194L340.654 58.4101C337.54 60.3863 335.198 63.1282 333.602 66.3739L347.961 73.4329ZM349.207 71.9318C349.564 71.7069 350.121 71.4773 351.162 71.4773V55.4773C347.476 55.4773 343.885 56.3727 340.673 58.3978L349.207 71.9318ZM351.162 71.4773C352.204 71.4773 352.745 71.7071 353.08 71.9194L361.653 58.4101C358.442 56.3724 354.847 55.4773 351.162 55.4773V71.4773ZM353.099 71.9318C353.53 72.2033 353.945 72.6071 354.33 73.4005L368.721 66.4063C367.129 63.1316 364.771 60.3763 361.634 58.3978L353.099 71.9318ZM354.346 73.4329C354.708 74.1677 355.026 75.2963 355.026 77.0455H371.026C371.026 73.3401 370.344 69.7073 368.705 66.3739L354.346 73.4329ZM355.026 77.0455C355.026 78.7618 354.711 79.8685 354.354 80.5909L368.697 87.6818C370.34 84.3588 371.026 80.7382 371.026 77.0455H355.026ZM354.338 80.6234C353.956 81.4051 353.541 81.8123 353.099 82.091L361.634 95.6249C364.76 93.6536 367.118 90.913 368.713 87.6493L354.338 80.6234ZM353.08 82.1033C352.745 82.3156 352.204 82.5455 351.162 82.5455V98.5455C354.847 98.5455 358.442 97.6503 361.653 95.6126L353.08 82.1033ZM351.162 94.9318C354.367 94.9318 357.712 94.0844 360.569 91.816L350.619 79.2862C350.847 79.1049 351.077 78.9987 351.237 78.9487C351.381 78.9039 351.379 78.9318 351.162 78.9318V94.9318ZM360.569 91.816C362.964 89.9141 364.645 87.4585 365.668 84.7045L350.668 79.1364C350.613 79.2834 350.575 79.3332 350.58 79.3264C350.581 79.3249 350.587 79.3172 350.597 79.3067C350.607 79.2961 350.615 79.289 350.619 79.2862L360.569 91.816ZM365.668 84.7045C366.585 82.2337 367.003 79.6567 367.003 77.0455H351.003C351.003 77.9342 350.864 78.6072 350.668 79.1364L365.668 84.7045ZM367.003 77.0455C367.003 74.4335 366.585 71.8583 365.674 69.3878L350.661 74.919C350.864 75.4712 351.003 76.1574 351.003 77.0455H367.003ZM365.674 69.3878C364.659 66.6322 362.989 64.1694 360.606 62.2536L350.581 74.7236C350.581 74.7237 350.581 74.7233 350.58 74.7226C350.579 74.7219 350.578 74.721 350.577 74.7197C350.574 74.7172 350.571 74.7142 350.568 74.7108C350.561 74.7033 350.558 74.6991 350.56 74.7016C350.561 74.703 350.603 74.7622 350.661 74.9191L365.674 69.3878ZM360.606 62.2536C357.749 59.9564 354.389 59.0909 351.162 59.0909V75.0909C351.37 75.0909 351.363 75.1179 351.21 75.0699C351.041 75.0165 350.808 74.9062 350.581 74.7236L360.606 62.2536ZM351.162 59.0909C347.935 59.0909 344.575 59.9564 341.718 62.2536L351.743 74.7236C351.516 74.9062 351.283 75.0165 351.114 75.0699C350.961 75.1179 350.954 75.0909 351.162 75.0909V59.0909ZM341.718 62.2536C339.335 64.1694 337.665 66.6322 336.65 69.3878L351.663 74.9191C351.721 74.7622 351.763 74.703 351.764 74.7016C351.766 74.6991 351.763 74.7033 351.756 74.7108C351.753 74.7142 351.75 74.7172 351.747 74.7197C351.746 74.721 351.745 74.7219 351.744 74.7226C351.743 74.7233 351.743 74.7237 351.743 74.7236L341.718 62.2536ZM336.65 69.3878C335.739 71.8583 335.321 74.4335 335.321 77.0455H351.321C351.321 76.1574 351.46 75.4712 351.663 74.919L336.65 69.3878ZM335.321 77.0455C335.321 79.6567 335.739 82.2337 336.656 84.7045L351.656 79.1364C351.46 78.6072 351.321 77.9342 351.321 77.0455H335.321ZM336.656 84.7045C337.679 87.4585 339.36 89.9141 341.755 91.816L351.705 79.2862C351.709 79.289 351.717 79.2961 351.727 79.3067C351.737 79.3172 351.743 79.3249 351.744 79.3264C351.749 79.3332 351.711 79.2834 351.656 79.1364L336.656 84.7045ZM341.755 91.816C344.612 94.0844 347.957 94.9318 351.162 94.9318V78.9318C350.945 78.9318 350.943 78.9039 351.087 78.9487C351.247 78.9987 351.477 79.1049 351.705 79.2863L341.755 91.816ZM369.166 90H361.166V98H369.166V90ZM369.166 63.8182V55.8182H361.166V63.8182H369.166ZM373.053 63.8182H381.053V55.8182H373.053V63.8182ZM373.053 67.7727H365.053V75.7727H373.053V67.7727ZM373.325 67.7727V75.7727H378.904L380.832 70.5384L373.325 67.7727ZM375.916 64.6193L371.578 57.8978L371.578 57.8978L375.916 64.6193ZM382.257 63.4773H390.257V56.2374L383.053 55.517L382.257 63.4773ZM382.257 67.5682L380.317 75.3293L390.257 77.8144V67.5682H382.257ZM381.32 67.4148L380.004 75.3059L380.109 75.3234L380.214 75.338L381.32 67.4148ZM376.393 68.0966L380.133 75.1689L380.148 75.1611L380.162 75.1532L376.393 68.0966ZM374.041 70.2784L367.248 66.0533L367.241 66.0648L367.234 66.0763L374.041 70.2784ZM373.189 90V98H381.189V90H373.189ZM377.166 90V63.8182H361.166V90H377.166ZM369.166 71.8182H373.053V55.8182H369.166V71.8182ZM365.053 63.8182V67.7727H381.053V63.8182H365.053ZM373.053 75.7727H373.325V59.7727H373.053V75.7727ZM380.832 70.5384C380.766 70.7177 380.657 70.9152 380.512 71.0914C380.445 71.1736 380.382 71.2356 380.333 71.2788C380.309 71.3 380.289 71.3155 380.276 71.3258C380.262 71.336 380.255 71.3408 380.255 71.3408L371.578 57.8978C368.991 59.5675 366.943 61.9553 365.819 65.0071L380.832 70.5384ZM380.255 71.3408C380.246 71.3465 380.226 71.3581 380.197 71.3712C380.169 71.3843 380.139 71.395 380.112 71.4027C380.086 71.4103 380.071 71.4124 380.071 71.4123C380.072 71.4122 380.095 71.4091 380.143 71.4091V55.4091C377.124 55.4091 374.192 56.2103 371.578 57.8978L380.255 71.3408ZM380.143 71.4091C380.346 71.4091 380.641 71.4131 381.046 71.4235L381.456 55.4288C380.975 55.4164 380.532 55.4091 380.143 55.4091V71.4091ZM381.046 71.4235C381.221 71.428 381.346 71.4329 381.429 71.4371C381.521 71.4418 381.522 71.4436 381.461 71.4376L383.053 55.517C382.524 55.464 381.95 55.4414 381.456 55.4288L381.046 71.4235ZM374.257 63.4773V67.5682H390.257V63.4773H374.257ZM384.197 59.807C383.564 59.6488 382.794 59.543 382.425 59.4915L380.214 75.338C380.317 75.3524 380.403 75.3648 380.475 75.3754C380.547 75.3862 380.597 75.3941 380.629 75.3993C380.644 75.4018 380.652 75.4031 380.653 75.4034C380.655 75.4037 380.647 75.4023 380.629 75.399C380.613 75.3959 380.58 75.3895 380.534 75.3797C380.511 75.3747 380.481 75.3682 380.446 75.3602C380.411 75.3523 380.368 75.342 380.317 75.3293L384.197 59.807ZM382.635 59.5236C381.681 59.3646 380.733 59.2955 379.803 59.2955V75.2955C379.871 75.2955 379.922 75.298 379.955 75.3007C379.972 75.302 379.984 75.3033 379.992 75.3043C380 75.3053 380.004 75.3059 380.004 75.3059L382.635 59.5236ZM379.803 59.2955C377.379 59.2955 374.92 59.8138 372.625 61.04L380.162 75.1532C380.033 75.2225 379.913 75.2632 379.826 75.2836C379.743 75.3031 379.727 75.2955 379.803 75.2955V59.2955ZM372.654 61.0243C370.439 62.1958 368.59 63.8949 367.248 66.0533L380.834 74.5035C380.758 74.6262 380.648 74.7664 380.504 74.8995C380.362 75.0319 380.227 75.1188 380.133 75.1689L372.654 61.0243ZM367.234 66.0763C365.814 68.3755 365.189 70.908 365.189 73.4318H381.189C381.189 73.4862 381.182 73.6341 381.125 73.8444C381.067 74.0592 380.973 74.2793 380.849 74.4806L367.234 66.0763ZM365.189 73.4318V90H381.189V73.4318H365.189ZM373.189 82H369.166V98H373.189V82ZM390.678 88.875L386.468 95.678L386.493 95.6934L386.518 95.7086L390.678 88.875ZM386.467 84.1705L379.264 87.6507L379.276 87.6751L379.288 87.6994L386.467 84.1705ZM386.467 70.0227L379.257 66.557L379.253 66.5655L379.249 66.5739L386.467 70.0227ZM390.592 65.2159L394.96 71.9185L394.97 71.9117L390.592 65.2159ZM400.837 64.1591L403.425 56.5893L403.425 56.5893L400.837 64.1591ZM404.467 66.375L398.996 72.2113L399.012 72.2265L399.028 72.2417L404.467 66.375ZM407.075 70.3977L414.534 67.5055L414.534 67.5055L407.075 70.3977ZM408.047 78.2727V86.2727H416.047V78.2727H408.047ZM387.865 78.2727H379.865V86.2727H387.865V78.2727ZM387.865 74.7955V66.7955H379.865V74.7955H387.865ZM403.956 74.7955V82.7955H411.956V74.7955H403.956ZM403.07 70.8409L395.914 74.4186L395.928 74.4466L395.942 74.4744L403.07 70.8409ZM400.581 68.0966L396.328 74.8725L396.344 74.8826L396.36 74.8926L400.581 68.0966ZM392.638 68.2841L397.12 74.9104L397.127 74.9055L397.135 74.9007L392.638 68.2841ZM389.962 71.3523L382.793 67.8004L382.793 67.8004L389.962 71.3523ZM390.047 82.7557L382.88 86.3097L382.897 86.3454L382.915 86.3809L390.047 82.7557ZM392.928 85.875L388.897 92.7852L388.921 92.7992L388.945 92.813L392.928 85.875ZM400.07 86.4886L402.69 94.0473L402.719 94.0373L402.748 94.027L400.07 86.4886ZM402.303 85.125L407.854 90.8856L407.881 90.8597L407.907 90.8335L402.303 85.125ZM403.751 82.8409L405.913 75.1386L398.84 73.1532L396.261 80.0319L403.751 82.8409ZM407.638 83.9318L415.278 86.303L417.715 78.4513L409.8 76.2295L407.638 83.9318ZM405.575 87.4091L411.298 92.9998L411.313 92.9834L411.329 92.967L405.575 87.4091ZM401.996 89.7273L404.864 97.1956L404.89 97.1856L404.915 97.1755L401.996 89.7273ZM397.206 82.5455C395.887 82.5455 395.206 82.2657 394.837 82.0414L386.518 95.7086C389.809 97.7116 393.48 98.5455 397.206 98.5455V82.5455ZM394.887 82.072C394.41 81.7768 394.006 81.3724 393.647 80.6415L379.288 87.6994C380.906 90.9912 383.309 93.7232 386.468 95.678L394.887 82.072ZM393.671 80.6902C393.31 79.9431 393.001 78.8212 393.001 77.1136H377.001C377.001 80.7697 377.67 84.3523 379.264 87.6507L393.671 80.6902ZM393.001 77.1136C393.001 75.4089 393.309 74.2605 393.686 73.4715L379.249 66.5739C377.671 69.8759 377.001 73.4548 377.001 77.1136H393.001ZM393.678 73.4885C394.089 72.6335 394.528 72.1996 394.96 71.9185L386.225 58.5133C383.134 60.5276 380.823 63.2983 379.257 66.557L393.678 73.4885ZM394.97 71.9117C395.294 71.7003 395.802 71.4773 396.797 71.4773V55.4773C393.065 55.4773 389.437 56.4133 386.214 58.5201L394.97 71.9117ZM396.797 71.4773C397.253 71.4773 397.727 71.5504 398.249 71.7289L403.425 56.5893C401.288 55.8587 399.068 55.4773 396.797 55.4773V71.4773ZM398.249 71.7289C398.437 71.7933 398.678 71.9136 398.996 72.2113L409.939 60.5387C408.075 58.791 405.895 57.434 403.425 56.5893L398.249 71.7289ZM399.028 72.2417C399.065 72.276 399.319 72.5231 399.616 73.29L414.534 67.5055C413.536 64.9314 412.051 62.4968 409.906 60.5083L399.028 72.2417ZM399.616 73.2899C399.802 73.7693 400.047 74.778 400.047 76.5682H416.047C416.047 73.472 415.644 70.367 414.534 67.5055L399.616 73.2899ZM400.047 76.5682V78.2727H416.047V76.5682H400.047ZM408.047 70.2727H387.865V86.2727H408.047V70.2727ZM395.865 78.2727V74.7955H379.865V78.2727H395.865ZM387.865 82.7955H403.956V66.7955H387.865V82.7955ZM411.956 74.7955C411.956 72.2275 411.435 69.636 410.197 67.2074L395.942 74.4744C395.922 74.4344 395.921 74.4182 395.928 74.4486C395.936 74.4827 395.956 74.5911 395.956 74.7955H411.956ZM410.225 67.2632C408.997 64.8081 407.164 62.7678 404.802 61.3006L396.36 74.8926C396.287 74.8469 396.186 74.769 396.087 74.6596C395.988 74.5509 395.934 74.4588 395.914 74.4186L410.225 67.2632ZM404.834 61.3207C402.306 59.7338 399.52 59.0909 396.797 59.0909V75.0909C396.909 75.0909 396.89 75.1035 396.779 75.0739C396.66 75.0424 396.498 74.9792 396.328 74.8725L404.834 61.3207ZM396.797 59.0909C393.81 59.0909 390.808 59.8547 388.141 61.6675L397.135 74.9007C397.075 74.9415 397.008 74.9793 396.939 75.0115C396.87 75.0437 396.809 75.0653 396.761 75.079C396.663 75.1073 396.66 75.0909 396.797 75.0909V59.0909ZM388.155 61.6578C385.843 63.222 384.029 65.307 382.793 67.8004L397.13 74.9041C397.135 74.893 397.139 74.8857 397.142 74.8816C397.144 74.8775 397.145 74.8762 397.145 74.8771C397.144 74.8781 397.142 74.8806 397.139 74.8845C397.136 74.8884 397.133 74.8929 397.128 74.8978C397.124 74.9026 397.12 74.9071 397.116 74.9112C397.112 74.9152 397.109 74.9182 397.107 74.92C397.105 74.9218 397.104 74.9219 397.106 74.9205C397.108 74.9191 397.112 74.9156 397.12 74.9104L388.155 61.6578ZM382.793 67.8004C381.607 70.1943 381.024 72.7658 381.024 75.4091H397.024C397.024 75.166 397.066 75.033 397.13 74.9041L382.793 67.8004ZM381.024 75.4091V77.7273H397.024V75.4091H381.024ZM381.024 77.7273C381.024 80.5939 381.515 83.5586 382.88 86.3097L397.214 79.2017C397.214 79.2005 397.202 79.1771 397.185 79.1254C397.167 79.0733 397.143 78.9909 397.119 78.8729C397.071 78.6333 397.024 78.2613 397.024 77.7273H381.024ZM382.915 86.3809C384.249 89.005 386.239 91.2352 388.897 92.7852L396.959 78.9648C396.989 78.9825 397.026 79.007 397.065 79.0383C397.104 79.0696 397.137 79.1016 397.164 79.1307C397.222 79.1928 397.218 79.2094 397.178 79.1305L382.915 86.3809ZM388.945 92.813C391.554 94.3111 394.394 94.9318 397.206 94.9318V78.9318C396.972 78.9318 396.859 78.9067 396.836 78.901C396.819 78.8968 396.854 78.9043 396.91 78.937L388.945 92.813ZM397.206 94.9318C399.005 94.9318 400.864 94.6802 402.69 94.0473L397.449 78.9299C397.57 78.888 397.52 78.9318 397.206 78.9318V94.9318ZM402.748 94.027C404.623 93.3607 406.363 92.3222 407.854 90.8856L396.751 79.3644C396.861 79.2586 396.983 79.1655 397.106 79.0901C397.228 79.0153 397.329 78.9723 397.391 78.9502L402.748 94.027ZM407.907 90.8335C409.451 89.3175 410.536 87.5319 411.242 85.6499L396.261 80.0319C396.269 80.0096 396.303 79.9274 396.378 79.8085C396.455 79.6875 396.561 79.551 396.698 79.4165L407.907 90.8335ZM401.589 90.5432L405.476 91.6341L409.8 76.2295L405.913 75.1386L401.589 90.5432ZM399.997 81.5606C399.962 81.6746 399.924 81.7444 399.821 81.8512L411.329 92.967C413.158 91.0738 414.495 88.8254 415.278 86.303L399.997 81.5606ZM399.853 81.8184C399.758 81.9156 399.552 82.0926 399.076 82.2791L404.915 97.1755C407.281 96.2483 409.461 94.8799 411.298 92.9998L399.853 81.8184ZM399.128 82.259C398.76 82.4001 398.157 82.5455 397.206 82.5455V98.5455C399.8 98.5455 402.39 98.1454 404.864 97.1956L399.128 82.259ZM414.166 90H406.166V98H414.166V90ZM414.166 63.8182V55.8182H406.166V63.8182H414.166ZM418.053 63.8182H426.053V55.8182H418.053V63.8182ZM418.053 67.7727H410.053V75.7727H418.053V67.7727ZM418.325 67.7727V75.7727H423.904L425.832 70.5384L418.325 67.7727ZM420.916 64.6193L416.578 57.8978L416.578 57.8978L420.916 64.6193ZM427.257 63.4773H435.257V56.2374L428.053 55.517L427.257 63.4773ZM427.257 67.5682L425.317 75.3293L435.257 77.8144V67.5682H427.257ZM426.32 67.4148L425.004 75.3059L425.109 75.3234L425.214 75.338L426.32 67.4148ZM421.393 68.0966L425.133 75.1689L425.148 75.1611L425.162 75.1532L421.393 68.0966ZM419.041 70.2784L412.248 66.0533L412.241 66.0648L412.234 66.0763L419.041 70.2784ZM418.189 90V98H426.189V90H418.189ZM422.166 90V63.8182H406.166V90H422.166ZM414.166 71.8182H418.053V55.8182H414.166V71.8182ZM410.053 63.8182V67.7727H426.053V63.8182H410.053ZM418.053 75.7727H418.325V59.7727H418.053V75.7727ZM425.832 70.5384C425.766 70.7177 425.657 70.9152 425.512 71.0914C425.445 71.1736 425.382 71.2356 425.333 71.2788C425.309 71.3 425.289 71.3155 425.276 71.3258C425.262 71.336 425.255 71.3408 425.255 71.3408L416.578 57.8978C413.991 59.5675 411.943 61.9553 410.819 65.0071L425.832 70.5384ZM425.255 71.3408C425.246 71.3465 425.226 71.3581 425.197 71.3712C425.169 71.3843 425.139 71.395 425.112 71.4027C425.086 71.4103 425.071 71.4124 425.071 71.4123C425.072 71.4122 425.095 71.4091 425.143 71.4091V55.4091C422.124 55.4091 419.192 56.2103 416.578 57.8978L425.255 71.3408ZM425.143 71.4091C425.346 71.4091 425.641 71.4131 426.046 71.4235L426.456 55.4288C425.975 55.4164 425.532 55.4091 425.143 55.4091V71.4091ZM426.046 71.4235C426.221 71.428 426.346 71.4329 426.429 71.4371C426.521 71.4418 426.522 71.4436 426.461 71.4376L428.053 55.517C427.524 55.464 426.95 55.4414 426.456 55.4288L426.046 71.4235ZM419.257 63.4773V67.5682H435.257V63.4773H419.257ZM429.197 59.807C428.564 59.6488 427.794 59.543 427.425 59.4915L425.214 75.338C425.317 75.3524 425.403 75.3648 425.475 75.3754C425.547 75.3862 425.597 75.3941 425.629 75.3993C425.644 75.4018 425.652 75.4031 425.653 75.4034C425.655 75.4037 425.647 75.4023 425.629 75.399C425.613 75.3959 425.58 75.3895 425.534 75.3797C425.511 75.3747 425.481 75.3682 425.446 75.3602C425.411 75.3523 425.368 75.342 425.317 75.3293L429.197 59.807ZM427.635 59.5236C426.681 59.3646 425.733 59.2955 424.803 59.2955V75.2955C424.871 75.2955 424.922 75.298 424.955 75.3007C424.972 75.302 424.984 75.3033 424.992 75.3043C425 75.3053 425.004 75.3059 425.004 75.3059L427.635 59.5236ZM424.803 59.2955C422.379 59.2955 419.92 59.8138 417.625 61.04L425.162 75.1532C425.033 75.2225 424.913 75.2632 424.826 75.2836C424.743 75.3031 424.727 75.2955 424.803 75.2955V59.2955ZM417.654 61.0243C415.439 62.1958 413.59 63.8949 412.248 66.0533L425.834 74.5035C425.758 74.6262 425.648 74.7664 425.504 74.8995C425.362 75.0319 425.227 75.1188 425.133 75.1689L417.654 61.0243ZM412.234 66.0763C410.814 68.3755 410.189 70.908 410.189 73.4318H426.189C426.189 73.4862 426.182 73.6341 426.125 73.8444C426.067 74.0592 425.973 74.2793 425.849 74.4806L412.234 66.0763ZM410.189 73.4318V90H426.189V73.4318H410.189ZM418.189 82H414.166V98H418.189V82Z" fill="#F8FAFC" mask="url(#path-3-outside-1_60_1216)"/>
</svg>
