<svg width="90" height="85" viewBox="0 0 90 85" fill="none" xmlns="http://www.w3.org/2000/svg">
<path d="M68.5937 15.2672C65.1562 6.02285 55.625 0 44.6875 0C33.75 0 24.2188 6.16291 20.7813 15.2672C8.59375 17.6483 0 27.3129 0 38.3781V38.5182C0 47.0622 7.1875 54.2056 16.4062 55.6063C16.4062 60.3685 16.5625 69.893 16.7187 75.9159C16.7187 80.6781 21.0937 84.6 26.4062 84.6H62.8125C68.125 84.6 72.5 80.8182 72.5 76.056L72.9687 55.6063C82.1875 54.2056 89.2187 46.9222 89.2187 38.2381C89.375 27.3129 80.7812 17.6483 68.5937 15.2672ZM62.9687 78.4371H26.5625C25.1562 78.4371 23.9062 77.3166 23.9062 76.056C23.9062 74.3752 23.9062 72.2742 23.75 70.3132H65.7812L65.625 75.9159C65.625 77.3166 64.375 78.4371 62.9687 78.4371ZM70.4687 49.5834C68.125 49.7235 66.25 51.4043 66.25 53.5053L65.9375 63.8702H23.5937C23.5937 59.3881 23.4375 55.1861 23.4375 53.5053C23.4375 51.4043 21.5625 49.7235 19.2187 49.5834C12.5 49.3033 7.03125 44.401 7.03125 38.5182V38.3781C7.03125 30.1142 13.5937 22.8308 22.8125 21.2901C24.8437 20.8699 26.5625 19.6093 27.1875 17.7884C29.5312 10.9252 36.5625 6.30298 44.6875 6.30298C52.8125 6.30298 59.8437 10.9252 62.1875 17.7884C62.8125 19.6093 64.5312 21.0099 66.5625 21.2901C75.625 22.8308 82.3437 30.1142 82.3437 38.3781C82.3437 44.401 77.1875 49.3033 70.4687 49.5834Z" fill="#F8FAFC"/>
</svg>
