<svg width="420" height="85" viewBox="0 0 420 85" fill="none" xmlns="http://www.w3.org/2000/svg">
<path d="M68.5937 15.2672C65.1562 6.02285 55.625 0 44.6875 0C33.75 0 24.2188 6.16291 20.7813 15.2672C8.59375 17.6483 0 27.3129 0 38.3781V38.5182C0 47.0622 7.1875 54.2056 16.4062 55.6063C16.4062 60.3685 16.5625 69.893 16.7187 75.9159C16.7187 80.6781 21.0937 84.6 26.4062 84.6H62.8125C68.125 84.6 72.5 80.8182 72.5 76.056L72.9687 55.6063C82.1875 54.2056 89.2187 46.9222 89.2187 38.2381C89.375 27.3129 80.7812 17.6483 68.5937 15.2672ZM62.9687 78.4371H26.5625C25.1562 78.4371 23.9062 77.3166 23.9062 76.056C23.9062 74.3752 23.9062 72.2742 23.75 70.3132H65.7812L65.625 75.9159C65.625 77.3166 64.375 78.4371 62.9687 78.4371ZM70.4687 49.5834C68.125 49.7235 66.25 51.4043 66.25 53.5053L65.9375 63.8702H23.5937C23.5937 59.3881 23.4375 55.1861 23.4375 53.5053C23.4375 51.4043 21.5625 49.7235 19.2187 49.5834C12.5 49.3033 7.03125 44.401 7.03125 38.5182V38.3781C7.03125 30.1142 13.5937 22.8308 22.8125 21.2901C24.8437 20.8699 26.5625 19.6093 27.1875 17.7884C29.5312 10.9252 36.5625 6.30298 44.6875 6.30298C52.8125 6.30298 59.8437 10.9252 62.1875 17.7884C62.8125 19.6093 64.5312 21.0099 66.5625 21.2901C75.625 22.8308 82.3437 30.1142 82.3437 38.3781C82.3437 44.401 77.1875 49.3033 70.4687 49.5834Z" fill="#F8FAFC"/>
<mask id="path-2-outside-1_60_1217" maskUnits="userSpaceOnUse" x="23" y="12" width="402" height="59" fill="black">
<rect fill="white" x="23" y="12" width="402" height="59"/>
<path d="M59.8295 31.4432H54.5114C54.3068 30.3068 53.9261 29.3068 53.3693 28.4432C52.8125 27.5795 52.1307 26.8466 51.3239 26.2443C50.517 25.642 49.6136 25.1875 48.6136 24.8807C47.625 24.5739 46.5739 24.4205 45.4602 24.4205C43.4489 24.4205 41.6477 24.9261 40.0568 25.9375C38.4773 26.9489 37.2273 28.4318 36.3068 30.3864C35.3977 32.3409 34.9432 34.7273 34.9432 37.5455C34.9432 40.3864 35.3977 42.7841 36.3068 44.7386C37.2273 46.6932 38.483 48.1705 40.0739 49.1705C41.6648 50.1705 43.4545 50.6705 45.4432 50.6705C46.5455 50.6705 47.5909 50.5227 48.5795 50.2273C49.5795 49.9205 50.483 49.4716 51.2898 48.8807C52.0966 48.2898 52.7784 47.5682 53.3352 46.7159C53.9034 45.8523 54.2955 44.8636 54.5114 43.75L59.8295 43.767C59.5455 45.483 58.9943 47.0625 58.1761 48.5057C57.3693 49.9375 56.3295 51.1761 55.0568 52.2216C53.7955 53.2557 52.3523 54.0568 50.7273 54.625C49.1023 55.1932 47.3295 55.4773 45.4091 55.4773C42.3864 55.4773 39.6932 54.7614 37.3295 53.3295C34.9659 51.8864 33.1023 49.8239 31.7386 47.142C30.3864 44.4602 29.7102 41.2614 29.7102 37.5455C29.7102 33.8182 30.392 30.6193 31.7557 27.9489C33.1193 25.267 34.983 23.2102 37.3466 21.7784C39.7102 20.3352 42.3977 19.6136 45.4091 19.6136C47.2614 19.6136 48.9886 19.8807 50.5909 20.4148C52.2045 20.9375 53.6534 21.7102 54.9375 22.733C56.2216 23.7443 57.2841 24.983 58.125 26.4489C58.9659 27.9034 59.5341 29.5682 59.8295 31.4432ZM82.3082 44.142V28.8182H87.4219V55H82.4105V50.4659H82.1378C81.5355 51.8636 80.5696 53.0284 79.2401 53.9602C77.9219 54.8807 76.2798 55.3409 74.3139 55.3409C72.6321 55.3409 71.1435 54.9716 69.848 54.233C68.5639 53.483 67.5526 52.375 66.8139 50.9091C66.0866 49.4432 65.723 47.6307 65.723 45.4716V28.8182H70.8196V44.858C70.8196 46.642 71.3139 48.0625 72.3026 49.1193C73.2912 50.1761 74.5753 50.7045 76.1548 50.7045C77.1094 50.7045 78.0582 50.4659 79.0014 49.9886C79.956 49.5114 80.7457 48.7898 81.3707 47.8239C82.0071 46.858 82.3196 45.6307 82.3082 44.142ZM99.3665 20.0909V55H94.2699V20.0909H99.3665ZM106.223 55V28.8182H111.32V55H106.223ZM108.797 24.7784C107.911 24.7784 107.149 24.483 106.513 23.892C105.888 23.2898 105.575 22.5739 105.575 21.7443C105.575 20.9034 105.888 20.1875 106.513 19.5966C107.149 18.9943 107.911 18.6932 108.797 18.6932C109.683 18.6932 110.439 18.9943 111.064 19.5966C111.7 20.1875 112.018 20.9034 112.018 21.7443C112.018 22.5739 111.7 23.2898 111.064 23.892C110.439 24.483 109.683 24.7784 108.797 24.7784ZM123.273 39.4545V55H118.176V28.8182H123.068V33.0795H123.392C123.994 31.6932 124.938 30.5795 126.222 29.7386C127.517 28.8977 129.148 28.4773 131.114 28.4773C132.898 28.4773 134.46 28.8523 135.801 29.6023C137.142 30.3409 138.182 31.4432 138.92 32.9091C139.659 34.375 140.028 36.1875 140.028 38.3466V55H134.932V38.9602C134.932 37.0625 134.438 35.5795 133.449 34.5114C132.46 33.4318 131.102 32.892 129.375 32.892C128.193 32.892 127.142 33.1477 126.222 33.6591C125.313 34.1705 124.591 34.9205 124.057 35.9091C123.534 36.8864 123.273 38.0682 123.273 39.4545ZM154.483 55.5795C152.824 55.5795 151.324 55.2727 149.983 54.6591C148.642 54.0341 147.58 53.1307 146.795 51.9489C146.023 50.767 145.636 49.3182 145.636 47.6023C145.636 46.125 145.92 44.9091 146.489 43.9545C147.057 43 147.824 42.2443 148.79 41.6875C149.756 41.1307 150.835 40.7102 152.028 40.4261C153.222 40.142 154.438 39.9261 155.676 39.7784C157.244 39.5966 158.517 39.4489 159.494 39.3352C160.472 39.2102 161.182 39.0114 161.625 38.7386C162.068 38.4659 162.29 38.0227 162.29 37.4091V37.2898C162.29 35.8011 161.869 34.6477 161.028 33.8295C160.199 33.0114 158.96 32.6023 157.312 32.6023C155.597 32.6023 154.244 32.983 153.256 33.7443C152.278 34.4943 151.602 35.3295 151.227 36.25L146.438 35.1591C147.006 33.5682 147.835 32.2841 148.926 31.3068C150.028 30.3182 151.295 29.6023 152.727 29.1591C154.159 28.7045 155.665 28.4773 157.244 28.4773C158.29 28.4773 159.398 28.6023 160.568 28.8523C161.75 29.0909 162.852 29.5341 163.875 30.1818C164.909 30.8295 165.756 31.7557 166.415 32.9602C167.074 34.1534 167.403 35.7045 167.403 37.6136V55H162.426V51.4205H162.222C161.892 52.0795 161.398 52.7273 160.739 53.3636C160.08 54 159.233 54.5284 158.199 54.9489C157.165 55.3693 155.926 55.5795 154.483 55.5795ZM155.591 51.4886C157 51.4886 158.205 51.2102 159.205 50.6534C160.216 50.0966 160.983 49.3693 161.506 48.4716C162.04 47.5625 162.307 46.5909 162.307 45.5568V42.1818C162.125 42.3636 161.773 42.5341 161.25 42.6932C160.739 42.8409 160.153 42.9716 159.494 43.0852C158.835 43.1875 158.193 43.2841 157.568 43.375C156.943 43.4545 156.42 43.5227 156 43.5795C155.011 43.7045 154.108 43.9148 153.29 44.2102C152.483 44.5057 151.835 44.9318 151.347 45.4886C150.869 46.0341 150.631 46.7614 150.631 47.6705C150.631 48.9318 151.097 49.8864 152.028 50.5341C152.96 51.1705 154.148 51.4886 155.591 51.4886ZM174.192 55V28.8182H179.118V32.9773H179.391C179.868 31.5682 180.709 30.4602 181.913 29.6534C183.129 28.8352 184.504 28.4261 186.038 28.4261C186.357 28.4261 186.732 28.4375 187.163 28.4602C187.607 28.483 187.953 28.5114 188.203 28.5455V33.4205C187.999 33.3636 187.635 33.3011 187.112 33.233C186.589 33.1534 186.067 33.1136 185.544 33.1136C184.339 33.1136 183.266 33.3693 182.322 33.8807C181.391 34.3807 180.652 35.0795 180.107 35.9773C179.561 36.8636 179.288 37.875 179.288 39.0114V55H174.192ZM196.632 64.8182C195.871 64.8182 195.178 64.7557 194.553 64.6307C193.928 64.517 193.462 64.392 193.155 64.2557L194.382 60.0795C195.314 60.3295 196.143 60.4375 196.871 60.4034C197.598 60.3693 198.24 60.0966 198.797 59.5852C199.365 59.0739 199.865 58.2386 200.297 57.0795L200.928 55.3409L191.348 28.8182H196.803L203.433 49.1364H203.706L210.337 28.8182H215.808L205.018 58.4943C204.518 59.858 203.882 61.0114 203.109 61.9545C202.337 62.9091 201.416 63.625 200.348 64.1023C199.28 64.5795 198.041 64.8182 196.632 64.8182ZM233.71 55V20.0909H255.597V24.625H238.977V35.2614H254.455V39.7784H238.977V50.4659H255.801V55H233.71ZM266.246 28.8182L272.024 39.0114L277.854 28.8182H283.428L275.263 41.9091L283.496 55H277.922L272.024 45.2159L266.143 55H260.553L268.7 41.9091L260.655 28.8182H266.246ZM288.661 64.8182V28.8182H293.638V33.0625H294.064C294.359 32.517 294.786 31.8864 295.342 31.1705C295.899 30.4545 296.672 29.8295 297.661 29.2955C298.649 28.75 299.956 28.4773 301.581 28.4773C303.695 28.4773 305.581 29.0114 307.24 30.0795C308.899 31.1477 310.2 32.6875 311.143 34.6989C312.098 36.7102 312.575 39.1307 312.575 41.9602C312.575 44.7898 312.104 47.2159 311.161 49.2386C310.217 51.25 308.922 52.8011 307.274 53.892C305.626 54.9716 303.746 55.5114 301.632 55.5114C300.041 55.5114 298.74 55.2443 297.729 54.7102C296.729 54.1761 295.945 53.5511 295.376 52.8352C294.808 52.1193 294.371 51.483 294.064 50.9261H293.757V64.8182H288.661ZM293.655 41.9091C293.655 43.75 293.922 45.3636 294.456 46.75C294.99 48.1364 295.763 49.2216 296.774 50.0057C297.786 50.7784 299.024 51.1648 300.49 51.1648C302.013 51.1648 303.286 50.7614 304.308 49.9545C305.331 49.1364 306.104 48.0284 306.626 46.6307C307.161 45.233 307.428 43.6591 307.428 41.9091C307.428 40.1818 307.166 38.6307 306.643 37.2557C306.132 35.8807 305.359 34.7955 304.325 34C303.303 33.2045 302.024 32.8068 300.49 32.8068C299.013 32.8068 297.763 33.1875 296.74 33.9489C295.729 34.7102 294.962 35.7727 294.439 37.1364C293.916 38.5 293.655 40.0909 293.655 41.9091ZM323.382 20.0909V55H318.286V20.0909H323.382ZM341.267 55.5284C338.813 55.5284 336.67 54.9659 334.841 53.8409C333.011 52.7159 331.591 51.142 330.58 49.1193C329.568 47.0966 329.062 44.733 329.062 42.0284C329.062 39.3125 329.568 36.9375 330.58 34.9034C331.591 32.8693 333.011 31.2898 334.841 30.1648C336.67 29.0398 338.813 28.4773 341.267 28.4773C343.722 28.4773 345.864 29.0398 347.693 30.1648C349.523 31.2898 350.943 32.8693 351.955 34.9034C352.966 36.9375 353.472 39.3125 353.472 42.0284C353.472 44.733 352.966 47.0966 351.955 49.1193C350.943 51.142 349.523 52.7159 347.693 53.8409C345.864 54.9659 343.722 55.5284 341.267 55.5284ZM341.284 51.25C342.875 51.25 344.193 50.8295 345.239 49.9886C346.284 49.1477 347.057 48.0284 347.557 46.6307C348.068 45.233 348.324 43.6932 348.324 42.0114C348.324 40.3409 348.068 38.8068 347.557 37.4091C347.057 36 346.284 34.8693 345.239 34.017C344.193 33.1648 342.875 32.7386 341.284 32.7386C339.682 32.7386 338.352 33.1648 337.295 34.017C336.25 34.8693 335.472 36 334.96 37.4091C334.46 38.8068 334.21 40.3409 334.21 42.0114C334.21 43.6932 334.46 45.233 334.96 46.6307C335.472 48.0284 336.25 49.1477 337.295 49.9886C338.352 50.8295 339.682 51.25 341.284 51.25ZM359.161 55V28.8182H364.087V32.9773H364.359C364.837 31.5682 365.678 30.4602 366.882 29.6534C368.098 28.8352 369.473 28.4261 371.007 28.4261C371.325 28.4261 371.7 28.4375 372.132 28.4602C372.575 28.483 372.922 28.5114 373.172 28.5455V33.4205C372.967 33.3636 372.604 33.3011 372.081 33.233C371.558 33.1534 371.036 33.1136 370.513 33.1136C369.308 33.1136 368.234 33.3693 367.291 33.8807C366.359 34.3807 365.621 35.0795 365.075 35.9773C364.53 36.8636 364.257 37.875 364.257 39.0114V55H359.161ZM387.929 55.5284C385.349 55.5284 383.128 54.9773 381.264 53.875C379.412 52.7614 377.98 51.1989 376.969 49.1875C375.969 47.1648 375.469 44.7955 375.469 42.0795C375.469 39.3977 375.969 37.0341 376.969 34.9886C377.98 32.9432 379.389 31.3466 381.196 30.1989C383.014 29.0511 385.139 28.4773 387.571 28.4773C389.048 28.4773 390.48 28.7216 391.866 29.2102C393.253 29.6989 394.497 30.4659 395.599 31.5114C396.702 32.5568 397.571 33.9148 398.207 35.5852C398.844 37.2443 399.162 39.2614 399.162 41.6364V43.4432H378.349V39.625H394.168C394.168 38.2841 393.895 37.0966 393.349 36.0625C392.804 35.017 392.037 34.1932 391.048 33.5909C390.071 32.9886 388.923 32.6875 387.605 32.6875C386.173 32.6875 384.923 33.0398 383.855 33.7443C382.798 34.4375 381.98 35.3466 381.401 36.4716C380.832 37.5852 380.548 38.7955 380.548 40.1023V43.0852C380.548 44.8352 380.855 46.3239 381.469 47.5511C382.094 48.7784 382.963 49.7159 384.077 50.3636C385.19 51 386.491 51.3182 387.98 51.3182C388.946 51.3182 389.827 51.1818 390.622 50.9091C391.418 50.625 392.105 50.2045 392.685 49.6477C393.264 49.0909 393.707 48.4034 394.014 47.5852L398.838 48.4545C398.452 49.875 397.759 51.1193 396.759 52.1875C395.77 53.2443 394.526 54.0682 393.026 54.6591C391.537 55.2386 389.838 55.5284 387.929 55.5284ZM404.817 55V28.8182H409.743V32.9773H410.016C410.493 31.5682 411.334 30.4602 412.538 29.6534C413.754 28.8352 415.129 28.4261 416.663 28.4261C416.982 28.4261 417.357 28.4375 417.788 28.4602C418.232 28.483 418.578 28.5114 418.828 28.5455V33.4205C418.624 33.3636 418.26 33.3011 417.737 33.233C417.214 33.1534 416.692 33.1136 416.169 33.1136C414.964 33.1136 413.891 33.3693 412.947 33.8807C412.016 34.3807 411.277 35.0795 410.732 35.9773C410.186 36.8636 409.913 37.875 409.913 39.0114V55H404.817Z"/>
</mask>
<path d="M59.8295 31.4432H54.5114C54.3068 30.3068 53.9261 29.3068 53.3693 28.4432C52.8125 27.5795 52.1307 26.8466 51.3239 26.2443C50.517 25.642 49.6136 25.1875 48.6136 24.8807C47.625 24.5739 46.5739 24.4205 45.4602 24.4205C43.4489 24.4205 41.6477 24.9261 40.0568 25.9375C38.4773 26.9489 37.2273 28.4318 36.3068 30.3864C35.3977 32.3409 34.9432 34.7273 34.9432 37.5455C34.9432 40.3864 35.3977 42.7841 36.3068 44.7386C37.2273 46.6932 38.483 48.1705 40.0739 49.1705C41.6648 50.1705 43.4545 50.6705 45.4432 50.6705C46.5455 50.6705 47.5909 50.5227 48.5795 50.2273C49.5795 49.9205 50.483 49.4716 51.2898 48.8807C52.0966 48.2898 52.7784 47.5682 53.3352 46.7159C53.9034 45.8523 54.2955 44.8636 54.5114 43.75L59.8295 43.767C59.5455 45.483 58.9943 47.0625 58.1761 48.5057C57.3693 49.9375 56.3295 51.1761 55.0568 52.2216C53.7955 53.2557 52.3523 54.0568 50.7273 54.625C49.1023 55.1932 47.3295 55.4773 45.4091 55.4773C42.3864 55.4773 39.6932 54.7614 37.3295 53.3295C34.9659 51.8864 33.1023 49.8239 31.7386 47.142C30.3864 44.4602 29.7102 41.2614 29.7102 37.5455C29.7102 33.8182 30.392 30.6193 31.7557 27.9489C33.1193 25.267 34.983 23.2102 37.3466 21.7784C39.7102 20.3352 42.3977 19.6136 45.4091 19.6136C47.2614 19.6136 48.9886 19.8807 50.5909 20.4148C52.2045 20.9375 53.6534 21.7102 54.9375 22.733C56.2216 23.7443 57.2841 24.983 58.125 26.4489C58.9659 27.9034 59.5341 29.5682 59.8295 31.4432ZM82.3082 44.142V28.8182H87.4219V55H82.4105V50.4659H82.1378C81.5355 51.8636 80.5696 53.0284 79.2401 53.9602C77.9219 54.8807 76.2798 55.3409 74.3139 55.3409C72.6321 55.3409 71.1435 54.9716 69.848 54.233C68.5639 53.483 67.5526 52.375 66.8139 50.9091C66.0866 49.4432 65.723 47.6307 65.723 45.4716V28.8182H70.8196V44.858C70.8196 46.642 71.3139 48.0625 72.3026 49.1193C73.2912 50.1761 74.5753 50.7045 76.1548 50.7045C77.1094 50.7045 78.0582 50.4659 79.0014 49.9886C79.956 49.5114 80.7457 48.7898 81.3707 47.8239C82.0071 46.858 82.3196 45.6307 82.3082 44.142ZM99.3665 20.0909V55H94.2699V20.0909H99.3665ZM106.223 55V28.8182H111.32V55H106.223ZM108.797 24.7784C107.911 24.7784 107.149 24.483 106.513 23.892C105.888 23.2898 105.575 22.5739 105.575 21.7443C105.575 20.9034 105.888 20.1875 106.513 19.5966C107.149 18.9943 107.911 18.6932 108.797 18.6932C109.683 18.6932 110.439 18.9943 111.064 19.5966C111.7 20.1875 112.018 20.9034 112.018 21.7443C112.018 22.5739 111.7 23.2898 111.064 23.892C110.439 24.483 109.683 24.7784 108.797 24.7784ZM123.273 39.4545V55H118.176V28.8182H123.068V33.0795H123.392C123.994 31.6932 124.938 30.5795 126.222 29.7386C127.517 28.8977 129.148 28.4773 131.114 28.4773C132.898 28.4773 134.46 28.8523 135.801 29.6023C137.142 30.3409 138.182 31.4432 138.92 32.9091C139.659 34.375 140.028 36.1875 140.028 38.3466V55H134.932V38.9602C134.932 37.0625 134.438 35.5795 133.449 34.5114C132.46 33.4318 131.102 32.892 129.375 32.892C128.193 32.892 127.142 33.1477 126.222 33.6591C125.313 34.1705 124.591 34.9205 124.057 35.9091C123.534 36.8864 123.273 38.0682 123.273 39.4545ZM154.483 55.5795C152.824 55.5795 151.324 55.2727 149.983 54.6591C148.642 54.0341 147.58 53.1307 146.795 51.9489C146.023 50.767 145.636 49.3182 145.636 47.6023C145.636 46.125 145.92 44.9091 146.489 43.9545C147.057 43 147.824 42.2443 148.79 41.6875C149.756 41.1307 150.835 40.7102 152.028 40.4261C153.222 40.142 154.438 39.9261 155.676 39.7784C157.244 39.5966 158.517 39.4489 159.494 39.3352C160.472 39.2102 161.182 39.0114 161.625 38.7386C162.068 38.4659 162.29 38.0227 162.29 37.4091V37.2898C162.29 35.8011 161.869 34.6477 161.028 33.8295C160.199 33.0114 158.96 32.6023 157.312 32.6023C155.597 32.6023 154.244 32.983 153.256 33.7443C152.278 34.4943 151.602 35.3295 151.227 36.25L146.438 35.1591C147.006 33.5682 147.835 32.2841 148.926 31.3068C150.028 30.3182 151.295 29.6023 152.727 29.1591C154.159 28.7045 155.665 28.4773 157.244 28.4773C158.29 28.4773 159.398 28.6023 160.568 28.8523C161.75 29.0909 162.852 29.5341 163.875 30.1818C164.909 30.8295 165.756 31.7557 166.415 32.9602C167.074 34.1534 167.403 35.7045 167.403 37.6136V55H162.426V51.4205H162.222C161.892 52.0795 161.398 52.7273 160.739 53.3636C160.08 54 159.233 54.5284 158.199 54.9489C157.165 55.3693 155.926 55.5795 154.483 55.5795ZM155.591 51.4886C157 51.4886 158.205 51.2102 159.205 50.6534C160.216 50.0966 160.983 49.3693 161.506 48.4716C162.04 47.5625 162.307 46.5909 162.307 45.5568V42.1818C162.125 42.3636 161.773 42.5341 161.25 42.6932C160.739 42.8409 160.153 42.9716 159.494 43.0852C158.835 43.1875 158.193 43.2841 157.568 43.375C156.943 43.4545 156.42 43.5227 156 43.5795C155.011 43.7045 154.108 43.9148 153.29 44.2102C152.483 44.5057 151.835 44.9318 151.347 45.4886C150.869 46.0341 150.631 46.7614 150.631 47.6705C150.631 48.9318 151.097 49.8864 152.028 50.5341C152.96 51.1705 154.148 51.4886 155.591 51.4886ZM174.192 55V28.8182H179.118V32.9773H179.391C179.868 31.5682 180.709 30.4602 181.913 29.6534C183.129 28.8352 184.504 28.4261 186.038 28.4261C186.357 28.4261 186.732 28.4375 187.163 28.4602C187.607 28.483 187.953 28.5114 188.203 28.5455V33.4205C187.999 33.3636 187.635 33.3011 187.112 33.233C186.589 33.1534 186.067 33.1136 185.544 33.1136C184.339 33.1136 183.266 33.3693 182.322 33.8807C181.391 34.3807 180.652 35.0795 180.107 35.9773C179.561 36.8636 179.288 37.875 179.288 39.0114V55H174.192ZM196.632 64.8182C195.871 64.8182 195.178 64.7557 194.553 64.6307C193.928 64.517 193.462 64.392 193.155 64.2557L194.382 60.0795C195.314 60.3295 196.143 60.4375 196.871 60.4034C197.598 60.3693 198.24 60.0966 198.797 59.5852C199.365 59.0739 199.865 58.2386 200.297 57.0795L200.928 55.3409L191.348 28.8182H196.803L203.433 49.1364H203.706L210.337 28.8182H215.808L205.018 58.4943C204.518 59.858 203.882 61.0114 203.109 61.9545C202.337 62.9091 201.416 63.625 200.348 64.1023C199.28 64.5795 198.041 64.8182 196.632 64.8182ZM233.71 55V20.0909H255.597V24.625H238.977V35.2614H254.455V39.7784H238.977V50.4659H255.801V55H233.71ZM266.246 28.8182L272.024 39.0114L277.854 28.8182H283.428L275.263 41.9091L283.496 55H277.922L272.024 45.2159L266.143 55H260.553L268.7 41.9091L260.655 28.8182H266.246ZM288.661 64.8182V28.8182H293.638V33.0625H294.064C294.359 32.517 294.786 31.8864 295.342 31.1705C295.899 30.4545 296.672 29.8295 297.661 29.2955C298.649 28.75 299.956 28.4773 301.581 28.4773C303.695 28.4773 305.581 29.0114 307.24 30.0795C308.899 31.1477 310.2 32.6875 311.143 34.6989C312.098 36.7102 312.575 39.1307 312.575 41.9602C312.575 44.7898 312.104 47.2159 311.161 49.2386C310.217 51.25 308.922 52.8011 307.274 53.892C305.626 54.9716 303.746 55.5114 301.632 55.5114C300.041 55.5114 298.74 55.2443 297.729 54.7102C296.729 54.1761 295.945 53.5511 295.376 52.8352C294.808 52.1193 294.371 51.483 294.064 50.9261H293.757V64.8182H288.661ZM293.655 41.9091C293.655 43.75 293.922 45.3636 294.456 46.75C294.99 48.1364 295.763 49.2216 296.774 50.0057C297.786 50.7784 299.024 51.1648 300.49 51.1648C302.013 51.1648 303.286 50.7614 304.308 49.9545C305.331 49.1364 306.104 48.0284 306.626 46.6307C307.161 45.233 307.428 43.6591 307.428 41.9091C307.428 40.1818 307.166 38.6307 306.643 37.2557C306.132 35.8807 305.359 34.7955 304.325 34C303.303 33.2045 302.024 32.8068 300.49 32.8068C299.013 32.8068 297.763 33.1875 296.74 33.9489C295.729 34.7102 294.962 35.7727 294.439 37.1364C293.916 38.5 293.655 40.0909 293.655 41.9091ZM323.382 20.0909V55H318.286V20.0909H323.382ZM341.267 55.5284C338.813 55.5284 336.67 54.9659 334.841 53.8409C333.011 52.7159 331.591 51.142 330.58 49.1193C329.568 47.0966 329.062 44.733 329.062 42.0284C329.062 39.3125 329.568 36.9375 330.58 34.9034C331.591 32.8693 333.011 31.2898 334.841 30.1648C336.67 29.0398 338.813 28.4773 341.267 28.4773C343.722 28.4773 345.864 29.0398 347.693 30.1648C349.523 31.2898 350.943 32.8693 351.955 34.9034C352.966 36.9375 353.472 39.3125 353.472 42.0284C353.472 44.733 352.966 47.0966 351.955 49.1193C350.943 51.142 349.523 52.7159 347.693 53.8409C345.864 54.9659 343.722 55.5284 341.267 55.5284ZM341.284 51.25C342.875 51.25 344.193 50.8295 345.239 49.9886C346.284 49.1477 347.057 48.0284 347.557 46.6307C348.068 45.233 348.324 43.6932 348.324 42.0114C348.324 40.3409 348.068 38.8068 347.557 37.4091C347.057 36 346.284 34.8693 345.239 34.017C344.193 33.1648 342.875 32.7386 341.284 32.7386C339.682 32.7386 338.352 33.1648 337.295 34.017C336.25 34.8693 335.472 36 334.96 37.4091C334.46 38.8068 334.21 40.3409 334.21 42.0114C334.21 43.6932 334.46 45.233 334.96 46.6307C335.472 48.0284 336.25 49.1477 337.295 49.9886C338.352 50.8295 339.682 51.25 341.284 51.25ZM359.161 55V28.8182H364.087V32.9773H364.359C364.837 31.5682 365.678 30.4602 366.882 29.6534C368.098 28.8352 369.473 28.4261 371.007 28.4261C371.325 28.4261 371.7 28.4375 372.132 28.4602C372.575 28.483 372.922 28.5114 373.172 28.5455V33.4205C372.967 33.3636 372.604 33.3011 372.081 33.233C371.558 33.1534 371.036 33.1136 370.513 33.1136C369.308 33.1136 368.234 33.3693 367.291 33.8807C366.359 34.3807 365.621 35.0795 365.075 35.9773C364.53 36.8636 364.257 37.875 364.257 39.0114V55H359.161ZM387.929 55.5284C385.349 55.5284 383.128 54.9773 381.264 53.875C379.412 52.7614 377.98 51.1989 376.969 49.1875C375.969 47.1648 375.469 44.7955 375.469 42.0795C375.469 39.3977 375.969 37.0341 376.969 34.9886C377.98 32.9432 379.389 31.3466 381.196 30.1989C383.014 29.0511 385.139 28.4773 387.571 28.4773C389.048 28.4773 390.48 28.7216 391.866 29.2102C393.253 29.6989 394.497 30.4659 395.599 31.5114C396.702 32.5568 397.571 33.9148 398.207 35.5852C398.844 37.2443 399.162 39.2614 399.162 41.6364V43.4432H378.349V39.625H394.168C394.168 38.2841 393.895 37.0966 393.349 36.0625C392.804 35.017 392.037 34.1932 391.048 33.5909C390.071 32.9886 388.923 32.6875 387.605 32.6875C386.173 32.6875 384.923 33.0398 383.855 33.7443C382.798 34.4375 381.98 35.3466 381.401 36.4716C380.832 37.5852 380.548 38.7955 380.548 40.1023V43.0852C380.548 44.8352 380.855 46.3239 381.469 47.5511C382.094 48.7784 382.963 49.7159 384.077 50.3636C385.19 51 386.491 51.3182 387.98 51.3182C388.946 51.3182 389.827 51.1818 390.622 50.9091C391.418 50.625 392.105 50.2045 392.685 49.6477C393.264 49.0909 393.707 48.4034 394.014 47.5852L398.838 48.4545C398.452 49.875 397.759 51.1193 396.759 52.1875C395.77 53.2443 394.526 54.0682 393.026 54.6591C391.537 55.2386 389.838 55.5284 387.929 55.5284ZM404.817 55V28.8182H409.743V32.9773H410.016C410.493 31.5682 411.334 30.4602 412.538 29.6534C413.754 28.8352 415.129 28.4261 416.663 28.4261C416.982 28.4261 417.357 28.4375 417.788 28.4602C418.232 28.483 418.578 28.5114 418.828 28.5455V33.4205C418.624 33.3636 418.26 33.3011 417.737 33.233C417.214 33.1534 416.692 33.1136 416.169 33.1136C414.964 33.1136 413.891 33.3693 412.947 33.8807C412.016 34.3807 411.277 35.0795 410.732 35.9773C410.186 36.8636 409.913 37.875 409.913 39.0114V55H404.817Z" fill="#FDE68A"/>
<path d="M59.8295 31.4432V37.4432H66.849L65.7564 30.5093L59.8295 31.4432ZM54.5114 31.4432L48.6063 32.5061L49.4949 37.4432H54.5114V31.4432ZM51.3239 26.2443L54.913 21.4362L54.913 21.4362L51.3239 26.2443ZM48.6136 24.8807L46.8352 30.6111L46.8445 30.6139L46.8537 30.6168L48.6136 24.8807ZM40.0568 25.9375L36.8379 20.874L36.8297 20.8793L36.8215 20.8845L40.0568 25.9375ZM36.3068 30.3864L30.8786 27.8301L30.8725 27.843L30.8665 27.856L36.3068 30.3864ZM36.3068 44.7386L30.8665 47.269L30.8725 47.282L30.8786 47.2949L36.3068 44.7386ZM40.0739 49.1705L36.8808 54.2503L36.8808 54.2503L40.0739 49.1705ZM48.5795 50.2273L50.2976 55.976L50.3185 55.9698L50.3395 55.9634L48.5795 50.2273ZM53.3352 46.7159L48.3227 43.4182L48.3175 43.4262L48.3122 43.4342L53.3352 46.7159ZM54.5114 43.75L54.5306 37.75L49.566 37.7341L48.621 42.608L54.5114 43.75ZM59.8295 43.767L65.749 44.7471L66.9009 37.7897L59.8488 37.7671L59.8295 43.767ZM58.1761 48.5057L52.9566 45.5466L52.9527 45.5534L52.9489 45.5602L58.1761 48.5057ZM55.0568 52.2216L58.8608 56.8616L58.8653 56.8579L55.0568 52.2216ZM50.7273 54.625L52.7076 60.2888L52.7076 60.2888L50.7273 54.625ZM37.3295 53.3295L34.2028 58.4505L34.2118 58.4559L34.2208 58.4614L37.3295 53.3295ZM31.7386 47.142L26.3812 49.8435L26.3857 49.8525L26.3903 49.8615L31.7386 47.142ZM31.7557 27.9489L37.0993 30.6775L37.104 30.6683L31.7557 27.9489ZM37.3466 21.7784L40.4553 26.9103L40.4643 26.9048L40.4733 26.8993L37.3466 21.7784ZM50.5909 20.4148L48.6935 26.1069L48.7177 26.1149L48.7419 26.1227L50.5909 20.4148ZM54.9375 22.733L51.1995 27.4263L51.2122 27.4364L51.225 27.4465L54.9375 22.733ZM58.125 26.4489L52.9205 29.4344L52.9255 29.4431L52.9306 29.4519L58.125 26.4489ZM59.8295 25.4432H54.5114V37.4432H59.8295V25.4432ZM60.4165 30.3803C60.089 28.5609 59.4478 26.7984 58.4121 25.1919L48.3266 31.6944C48.4044 31.8152 48.5247 32.0528 48.6063 32.5061L60.4165 30.3803ZM58.4121 25.1919C57.4756 23.7394 56.3053 22.4755 54.913 21.4362L47.7347 31.0524C47.9561 31.2177 48.1494 31.4197 48.3266 31.6944L58.4121 25.1919ZM54.913 21.4362C53.5329 20.406 52.0061 19.6455 50.3736 19.1446L46.8537 30.6168C47.2212 30.7295 47.5012 30.8781 47.7347 31.0524L54.913 21.4362ZM50.392 19.1503C48.7855 18.6517 47.1312 18.4205 45.4602 18.4205V30.4205C46.0165 30.4205 46.4645 30.496 46.8352 30.6111L50.392 19.1503ZM45.4602 18.4205C42.3885 18.4205 39.4562 19.2096 36.8379 20.874L43.2757 31.001C43.8393 30.6427 44.5092 30.4205 45.4602 30.4205V18.4205ZM36.8215 20.8845C34.153 22.5931 32.2057 25.012 30.8786 27.8301L41.735 32.9427C42.2488 31.8516 42.8016 31.3046 43.2922 30.9905L36.8215 20.8845ZM30.8665 27.856C29.4938 30.8074 28.9432 34.1105 28.9432 37.5455H40.9432C40.9432 35.3441 41.3017 33.8744 41.7471 32.9167L30.8665 27.856ZM28.9432 37.5455C28.9432 40.9951 29.4912 44.312 30.8665 47.269L41.7471 42.2083C41.3043 41.2561 40.9432 39.7777 40.9432 37.5455H28.9432ZM30.8786 47.2949C32.2128 50.1279 34.1802 52.5527 36.8808 54.2503L43.2669 44.0906C42.7857 43.7882 42.2418 43.2584 41.735 42.1823L30.8786 47.2949ZM36.8808 54.2503C39.4849 55.8871 42.3937 56.6705 45.4432 56.6705V44.6705C44.5154 44.6705 43.8446 44.4538 43.2669 44.0906L36.8808 54.2503ZM45.4432 56.6705C47.0876 56.6705 48.7147 56.4491 50.2976 55.976L46.8615 44.4785C46.4671 44.5964 46.0033 44.6705 45.4432 44.6705V56.6705ZM50.3395 55.9634C51.9507 55.469 53.4628 54.7263 54.835 53.7213L47.7445 44.0401C47.5031 44.2169 47.2084 44.3719 46.8196 44.4912L50.3395 55.9634ZM54.835 53.7213C56.2348 52.6961 57.4138 51.4431 58.3582 49.9976L48.3122 43.4342C48.143 43.6933 47.9584 43.8834 47.7445 44.0401L54.835 53.7213ZM58.3477 50.0136C59.3866 48.4346 60.0513 46.6995 60.4017 44.892L48.621 42.608C48.5397 43.0278 48.4202 43.27 48.3227 43.4182L58.3477 50.0136ZM54.4921 49.75L59.8103 49.767L59.8488 37.7671L54.5306 37.75L54.4921 49.75ZM53.9101 42.787C53.7356 43.8413 53.4104 44.7461 52.9566 45.5466L63.3957 51.4648C64.5783 49.3788 65.3553 47.1246 65.749 44.7471L53.9101 42.787ZM52.9489 45.5602C52.5072 46.344 51.949 47.0098 51.2484 47.5852L58.8653 56.8579C60.7101 55.3425 62.2314 53.531 63.4034 51.4512L52.9489 45.5602ZM51.2528 47.5816C50.5643 48.146 49.7459 48.6119 48.7469 48.9612L52.7076 60.2888C54.9586 59.5017 57.0266 58.3653 58.8608 56.8616L51.2528 47.5816ZM48.7469 48.9612C47.8276 49.2827 46.7326 49.4773 45.4091 49.4773V61.4773C47.9265 61.4773 50.377 61.1037 52.7076 60.2888L48.7469 48.9612ZM45.4091 49.4773C43.3762 49.4773 41.7775 49.009 40.4383 48.1977L34.2208 58.4614C37.6088 60.5138 41.3965 61.4773 45.4091 61.4773V49.4773ZM40.4563 48.2086C39.1228 47.3945 37.9919 46.2023 37.0869 44.4226L26.3903 49.8615C28.2126 53.4454 30.809 56.3783 34.2028 58.4505L40.4563 48.2086ZM37.0961 44.4406C36.2547 42.7719 35.7102 40.5413 35.7102 37.5455H23.7102C23.7102 41.9814 24.518 46.1485 26.3812 49.8435L37.0961 44.4406ZM35.7102 37.5455C35.7102 34.5408 36.2593 32.3225 37.0993 30.6775L26.4121 25.2202C24.5248 28.9161 23.7102 33.0955 23.7102 37.5455H35.7102ZM37.104 30.6683C38.0072 28.892 39.1328 27.7114 40.4553 26.9103L34.2379 16.6466C30.8331 18.7091 28.2314 21.6421 26.4074 25.2294L37.104 30.6683ZM40.4733 26.8993C41.8136 26.0809 43.4011 25.6136 45.4091 25.6136V13.6136C41.3943 13.6136 37.6068 14.5895 34.2199 16.6575L40.4733 26.8993ZM45.4091 25.6136C46.6785 25.6136 47.7593 25.7955 48.6935 26.1069L52.4883 14.7227C50.218 13.9659 47.8442 13.6136 45.4091 13.6136V25.6136ZM48.7419 26.1227C49.6932 26.4309 50.4977 26.8674 51.1995 27.4263L58.6755 18.0397C56.8091 16.5531 54.7159 15.4441 52.44 14.7068L48.7419 26.1227ZM51.225 27.4465C51.8853 27.9665 52.4486 28.6116 52.9205 29.4344L63.3295 23.4633C62.1196 21.3543 60.5579 19.5221 58.65 18.0194L51.225 27.4465ZM52.9306 29.4519C53.3574 30.1902 53.7073 31.1371 53.9027 32.3771L65.7564 30.5093C65.3609 27.9993 64.5744 25.6166 63.3194 23.4458L52.9306 29.4519ZM82.3082 44.142H76.3082V44.1649L76.3084 44.1878L82.3082 44.142ZM82.3082 28.8182V22.8182H76.3082V28.8182H82.3082ZM87.4219 28.8182H93.4219V22.8182H87.4219V28.8182ZM87.4219 55V61H93.4219V55H87.4219ZM82.4105 55H76.4105V61H82.4105V55ZM82.4105 50.4659H88.4105V44.4659H82.4105V50.4659ZM82.1378 50.4659V44.4659H78.1898L76.6276 48.0916L82.1378 50.4659ZM79.2401 53.9602L82.6751 58.8796L82.6837 58.8736L79.2401 53.9602ZM69.848 54.233L66.8219 59.414L66.8489 59.4297L66.8761 59.4452L69.848 54.233ZM66.8139 50.9091L61.4391 53.5757L61.4473 53.5924L61.4557 53.609L66.8139 50.9091ZM65.723 28.8182V22.8182H59.723V28.8182H65.723ZM70.8196 28.8182H76.8196V22.8182H70.8196V28.8182ZM72.3026 49.1193L76.6842 45.0204L76.6842 45.0204L72.3026 49.1193ZM79.0014 49.9886L76.3181 44.6221L76.3052 44.6285L76.2924 44.635L79.0014 49.9886ZM81.3707 47.8239L76.3604 44.5229L76.3468 44.5436L76.3333 44.5644L81.3707 47.8239ZM88.3082 44.142V28.8182H76.3082V44.142H88.3082ZM82.3082 34.8182H87.4219V22.8182H82.3082V34.8182ZM81.4219 28.8182V55H93.4219V28.8182H81.4219ZM87.4219 49H82.4105V61H87.4219V49ZM88.4105 55V50.4659H76.4105V55H88.4105ZM82.4105 44.4659H82.1378V56.4659H82.4105V44.4659ZM76.6276 48.0916C76.4951 48.3989 76.2785 48.709 75.7965 49.0468L82.6837 58.8736C84.8607 57.3478 86.5759 55.3284 87.648 52.8402L76.6276 48.0916ZM75.805 49.0409C75.7 49.1142 75.3287 49.3409 74.3139 49.3409V61.3409C77.231 61.3409 80.1437 60.6472 82.6751 58.8796L75.805 49.0409ZM74.3139 49.3409C73.5386 49.3409 73.099 49.1798 72.8199 49.0207L66.8761 59.4452C69.188 60.7634 71.7256 61.3409 74.3139 61.3409V49.3409ZM72.8741 49.0519C72.6933 48.9463 72.4455 48.7517 72.1722 48.2092L61.4557 53.609C62.6596 55.9983 64.4346 58.0196 66.8219 59.414L72.8741 49.0519ZM72.1888 48.2425C71.9824 47.8265 71.723 46.9889 71.723 45.4716H59.723C59.723 48.2725 60.1909 51.0598 61.4391 53.5757L72.1888 48.2425ZM71.723 45.4716V28.8182H59.723V45.4716H71.723ZM65.723 34.8182H70.8196V22.8182H65.723V34.8182ZM64.8196 28.8182V44.858H76.8196V28.8182H64.8196ZM64.8196 44.858C64.8196 47.7919 65.6633 50.805 67.9209 53.2183L76.6842 45.0204C76.7272 45.0663 76.768 45.1202 76.8018 45.1768C76.8353 45.2327 76.8517 45.274 76.857 45.2894C76.8673 45.3188 76.8196 45.2004 76.8196 44.858H64.8196ZM67.9209 53.2183C70.1546 55.606 73.0837 56.7045 76.1548 56.7045V44.7045C76.0412 44.7045 76.1152 44.6876 76.2904 44.7597C76.3733 44.7938 76.4562 44.8388 76.5319 44.8917C76.6071 44.9441 76.6573 44.9917 76.6842 45.0204L67.9209 53.2183ZM76.1548 56.7045C78.148 56.7045 80.019 56.1982 81.7105 55.3422L76.2924 44.635C76.1859 44.6889 76.1293 44.7042 76.119 44.7068C76.111 44.7088 76.1265 44.7045 76.1548 44.7045V56.7045ZM81.6847 55.3552C83.6727 54.3612 85.2478 52.8767 86.4082 51.0834L76.3333 44.5644C76.3052 44.6078 76.2845 44.6342 76.2732 44.6477C76.2621 44.661 76.2582 44.6639 76.2625 44.66C76.267 44.6559 76.2757 44.6486 76.2879 44.6402C76.3002 44.6317 76.311 44.6256 76.3181 44.6221L81.6847 55.3552ZM86.3811 51.1248C87.836 48.9165 88.3259 46.4351 88.3081 44.0962L76.3084 44.1878C76.3108 44.505 76.2773 44.6617 76.2679 44.6984C76.2609 44.726 76.2778 44.6482 76.3604 44.5229L86.3811 51.1248ZM99.3665 20.0909H105.366V14.0909H99.3665V20.0909ZM99.3665 55V61H105.366V55H99.3665ZM94.2699 55H88.2699V61H94.2699V55ZM94.2699 20.0909V14.0909H88.2699V20.0909H94.2699ZM93.3665 20.0909V55H105.366V20.0909H93.3665ZM99.3665 49H94.2699V61H99.3665V49ZM100.27 55V20.0909H88.2699V55H100.27ZM94.2699 26.0909H99.3665V14.0909H94.2699V26.0909ZM106.223 55H100.223V61H106.223V55ZM106.223 28.8182V22.8182H100.223V28.8182H106.223ZM111.32 28.8182H117.32V22.8182H111.32V28.8182ZM111.32 55V61H117.32V55H111.32ZM106.513 23.892L102.349 28.2125L102.389 28.251L102.43 28.2888L106.513 23.892ZM106.513 19.5966L110.635 23.9565L110.637 23.9544L106.513 19.5966ZM111.064 19.5966L106.901 23.9171L106.941 23.9556L106.981 23.9933L111.064 19.5966ZM111.064 23.892L115.186 28.2519L115.188 28.2498L111.064 23.892ZM112.223 55V28.8182H100.223V55H112.223ZM106.223 34.8182H111.32V22.8182H106.223V34.8182ZM105.32 28.8182V55H117.32V28.8182H105.32ZM111.32 49H106.223V61H111.32V49ZM108.797 18.7784C109.033 18.7784 109.363 18.8203 109.732 18.9632C110.102 19.107 110.393 19.3076 110.595 19.4953L102.43 28.2888C104.201 29.9336 106.431 30.7784 108.797 30.7784V18.7784ZM110.676 19.5716C110.867 19.7559 111.117 20.0634 111.309 20.5031C111.503 20.9485 111.575 21.3851 111.575 21.7443H99.5753C99.5753 24.2864 100.612 26.538 102.349 28.2125L110.676 19.5716ZM111.575 21.7443C111.575 22.0859 111.508 22.5214 111.309 22.977C111.111 23.4297 110.849 23.7542 110.635 23.9565L102.391 15.2367C100.598 16.9317 99.5753 19.2116 99.5753 21.7443H111.575ZM110.637 23.9544C110.439 24.1417 110.147 24.3485 109.768 24.4985C109.39 24.648 109.046 24.6932 108.797 24.6932V12.6932C106.396 12.6932 104.153 13.5684 102.388 15.2388L110.637 23.9544ZM108.797 24.6932C108.548 24.6932 108.197 24.6481 107.807 24.4928C107.415 24.3365 107.11 24.1191 106.901 23.9171L115.227 15.2761C113.458 13.5711 111.199 12.6932 108.797 12.6932V24.6932ZM106.981 23.9933C106.77 23.7969 106.501 23.4734 106.297 23.0135C106.091 22.5492 106.018 22.1009 106.018 21.7443H118.018C118.018 19.1743 116.96 16.884 115.147 15.1998L106.981 23.9933ZM106.018 21.7443C106.018 21.3699 106.095 20.9205 106.297 20.4666C106.495 20.0199 106.751 19.7131 106.94 19.5343L115.188 28.2498C116.947 26.5857 118.018 24.3235 118.018 21.7443H106.018ZM106.942 19.5322C107.156 19.3297 107.46 19.1186 107.844 18.9687C108.224 18.8201 108.562 18.7784 108.797 18.7784V30.7784C111.164 30.7784 113.41 29.9312 115.186 28.2519L106.942 19.5322ZM123.273 55V61H129.273V55H123.273ZM118.176 55H112.176V61H118.176V55ZM118.176 28.8182V22.8182H112.176V28.8182H118.176ZM123.068 28.8182H129.068V22.8182H123.068V28.8182ZM123.068 33.0795H117.068V39.0795H123.068V33.0795ZM123.392 33.0795V39.0795H127.327L128.895 35.4703L123.392 33.0795ZM126.222 29.7386L122.955 24.706L122.945 24.7125L122.935 24.7192L126.222 29.7386ZM135.801 29.6023L132.872 34.8388L132.889 34.8483L132.906 34.8577L135.801 29.6023ZM138.92 32.9091L133.562 35.609L133.562 35.609L138.92 32.9091ZM140.028 55V61H146.028V55H140.028ZM134.932 55H128.932V61H134.932V55ZM133.449 34.5114L129.024 38.5636L129.035 38.5753L129.045 38.5869L133.449 34.5114ZM126.222 33.6591L123.308 28.4141L123.294 28.4219L123.28 28.4296L126.222 33.6591ZM124.057 35.9091L118.778 33.0573L118.772 33.0682L118.766 33.0792L124.057 35.9091ZM117.273 39.4545V55H129.273V39.4545H117.273ZM123.273 49H118.176V61H123.273V49ZM124.176 55V28.8182H112.176V55H124.176ZM118.176 34.8182H123.068V22.8182H118.176V34.8182ZM117.068 28.8182V33.0795H129.068V28.8182H117.068ZM123.068 39.0795H123.392V27.0795H123.068V39.0795ZM128.895 35.4703C129.023 35.1751 129.188 34.9682 129.509 34.7581L122.935 24.7192C120.687 26.1908 118.965 28.2113 117.889 30.6888L128.895 35.4703ZM129.488 34.7713C129.578 34.7134 129.993 34.4773 131.114 34.4773V22.4773C128.302 22.4773 125.457 23.082 122.955 24.706L129.488 34.7713ZM131.114 34.4773C132.039 34.4773 132.561 34.665 132.872 34.8388L138.73 24.3657C136.359 23.0396 133.757 22.4773 131.114 22.4773V34.4773ZM132.906 34.8577C133.109 34.9695 133.327 35.1417 133.562 35.609L144.279 30.2092C143.037 27.7447 141.175 25.7123 138.696 24.3469L132.906 34.8577ZM133.562 35.609C133.767 36.016 134.028 36.8411 134.028 38.3466H146.028C146.028 35.5339 145.551 32.734 144.279 30.2092L133.562 35.609ZM134.028 38.3466V55H146.028V38.3466H134.028ZM140.028 49H134.932V61H140.028V49ZM140.932 55V38.9602H128.932V55H140.932ZM140.932 38.9602C140.932 36.024 140.149 32.9169 137.852 30.4358L129.045 38.5869C128.989 38.526 128.944 38.4626 128.91 38.4056C128.878 38.3497 128.867 38.3173 128.869 38.3221C128.874 38.337 128.932 38.523 128.932 38.9602H140.932ZM137.874 30.4591C135.543 27.9141 132.455 26.892 129.375 26.892V38.892C129.615 38.892 129.615 38.929 129.473 38.8725C129.403 38.8448 129.318 38.8018 129.23 38.7412C129.143 38.6806 129.073 38.6174 129.024 38.5636L137.874 30.4591ZM129.375 26.892C127.301 26.892 125.224 27.3494 123.308 28.4141L129.135 38.904C129.113 38.9166 129.101 38.918 129.118 38.9138C129.139 38.9088 129.218 38.892 129.375 38.892V26.892ZM123.28 28.4296C121.306 29.5399 119.807 31.1515 118.778 33.0573L129.336 38.7609C129.365 38.706 129.366 38.7194 129.322 38.7651C129.302 38.7865 129.276 38.8101 129.246 38.8332C129.216 38.8564 129.187 38.8749 129.163 38.8885L123.28 28.4296ZM118.766 33.0792C117.675 35.1188 117.273 37.3241 117.273 39.4545H129.273C129.273 38.8123 129.393 38.6539 129.348 38.739L118.766 33.0792ZM149.983 54.6591L147.448 60.0974L147.467 60.1062L147.486 60.1149L149.983 54.6591ZM146.795 51.9489L141.774 55.2324L141.785 55.2492L141.796 55.266L146.795 51.9489ZM146.489 43.9545L151.644 47.0234L151.644 47.0234L146.489 43.9545ZM148.79 41.6875L151.786 46.8856L151.786 46.8856L148.79 41.6875ZM155.676 39.7784L154.985 33.8183L154.975 33.8195L154.966 33.8206L155.676 39.7784ZM159.494 39.3352L160.187 45.2951L160.221 45.2911L160.256 45.2867L159.494 39.3352ZM161.625 38.7386L164.77 43.8486L164.77 43.8486L161.625 38.7386ZM161.028 33.8295L156.815 38.1013L156.83 38.1157L156.844 38.1299L161.028 33.8295ZM153.256 33.7443L156.909 38.5042L156.917 38.498L153.256 33.7443ZM151.227 36.25L149.895 42.1002L154.862 43.2315L156.784 38.5138L151.227 36.25ZM146.438 35.1591L140.787 33.1411L138.513 39.5079L145.105 41.0093L146.438 35.1591ZM148.926 31.3068L152.93 35.7758L152.932 35.7734L148.926 31.3068ZM152.727 29.1591L154.501 34.8908L154.522 34.8844L154.543 34.8778L152.727 29.1591ZM160.568 28.8523L159.315 34.7199L159.348 34.7269L159.381 34.7336L160.568 28.8523ZM163.875 30.1818L160.665 35.2507L160.677 35.2587L160.69 35.2667L163.875 30.1818ZM166.415 32.9602L161.151 35.8403L161.157 35.8508L161.163 35.8613L166.415 32.9602ZM167.403 55V61H173.403V55H167.403ZM162.426 55H156.426V61H162.426V55ZM162.426 51.4205H168.426V45.4205H162.426V51.4205ZM162.222 51.4205V45.4205H158.513L156.855 48.7372L162.222 51.4205ZM160.739 53.3636L156.571 49.0472L160.739 53.3636ZM158.199 54.9489L155.939 49.3907L158.199 54.9489ZM159.205 50.6534L156.311 45.3974L156.298 45.4043L156.286 45.4113L159.205 50.6534ZM161.506 48.4716L156.332 45.4323L156.327 45.4424L156.321 45.4524L161.506 48.4716ZM162.307 42.1818H168.307V27.6965L158.064 37.9392L162.307 42.1818ZM161.25 42.6932L162.915 48.4575L162.956 48.4456L162.997 48.4332L161.25 42.6932ZM159.494 43.0852L160.414 49.0143L160.464 49.0065L160.514 48.998L159.494 43.0852ZM157.568 43.375L158.326 49.327L158.379 49.3202L158.432 49.3125L157.568 43.375ZM156 43.5795L156.753 49.5322L156.778 49.5289L156.804 49.5255L156 43.5795ZM153.29 44.2102L151.252 38.5669L151.239 38.5715L151.227 38.5761L153.29 44.2102ZM151.347 45.4886L146.837 41.5311L146.831 41.5376L151.347 45.4886ZM152.028 50.5341L148.604 55.4607L148.624 55.4749L148.645 55.4889L152.028 50.5341ZM154.483 49.5795C153.577 49.5795 152.944 49.4159 152.48 49.2032L147.486 60.1149C149.703 61.1296 152.07 61.5795 154.483 61.5795V49.5795ZM152.518 49.2208C152.133 49.0414 151.942 48.8524 151.795 48.6318L141.796 55.266C143.218 57.409 145.151 59.0268 147.448 60.0974L152.518 49.2208ZM151.817 48.6654C151.809 48.652 151.636 48.4051 151.636 47.6023H139.636C139.636 50.2313 140.237 52.8821 141.774 55.2324L151.817 48.6654ZM151.636 47.6023C151.636 46.8596 151.782 46.7918 151.644 47.0234L141.333 40.8856C140.059 43.0263 139.636 45.3904 139.636 47.6023H151.636ZM151.644 47.0234C151.675 46.9726 151.694 46.9529 151.701 46.9461C151.708 46.9391 151.73 46.9181 151.786 46.8856L145.793 36.4894C143.941 37.5574 142.429 39.0448 141.333 40.8856L151.644 47.0234ZM151.786 46.8856C152.203 46.6455 152.733 46.4262 153.418 46.263L150.639 34.5893C148.938 34.9943 147.309 35.6158 145.793 36.4894L151.786 46.8856ZM153.418 46.263C154.384 46.0331 155.373 45.8571 156.387 45.7362L154.966 33.8206C153.502 33.9952 152.06 34.251 150.639 34.5893L153.418 46.263ZM156.367 45.7385C157.936 45.5566 159.209 45.4088 160.187 45.2951L158.801 33.3754C157.825 33.4889 156.553 33.6366 154.985 33.8183L156.367 45.7385ZM160.256 45.2867C161.456 45.1332 163.209 44.8087 164.77 43.8486L158.48 33.6287C158.696 33.4958 158.87 33.4172 158.972 33.3756C159.075 33.3333 159.137 33.316 159.142 33.3145C159.149 33.3127 159.119 33.3211 159.046 33.3352C158.974 33.349 158.871 33.3661 158.733 33.3837L160.256 45.2867ZM164.77 43.8486C167.331 42.2724 168.29 39.6683 168.29 37.4091H156.29C156.29 37.0021 156.364 36.3049 156.757 35.5184C157.172 34.6886 157.8 34.0475 158.48 33.6287L164.77 43.8486ZM168.29 37.4091V37.2898H156.29V37.4091H168.29ZM168.29 37.2898C168.29 34.6409 167.507 31.7616 165.213 29.5292L156.844 38.1299C156.588 37.8801 156.422 37.5943 156.337 37.3632C156.263 37.1581 156.29 37.1019 156.29 37.2898H168.29ZM165.242 29.5577C162.894 27.2425 159.878 26.6023 157.312 26.6023V38.6023C157.657 38.6023 157.719 38.6471 157.596 38.6064C157.528 38.5841 157.412 38.5381 157.268 38.4525C157.121 38.3656 156.965 38.2492 156.815 38.1013L165.242 29.5577ZM157.312 26.6023C154.762 26.6023 151.964 27.1662 149.595 28.9906L156.917 38.498C156.732 38.6399 156.606 38.6721 156.637 38.6633C156.683 38.6505 156.888 38.6023 157.312 38.6023V26.6023ZM149.603 28.9845C147.981 30.2288 146.533 31.8691 145.671 33.9862L156.784 38.5138C156.759 38.5746 156.734 38.6229 156.713 38.6577C156.692 38.6922 156.679 38.7088 156.679 38.7084C156.681 38.7065 156.741 38.6328 156.909 38.5042L149.603 28.9845ZM152.56 30.3998L147.77 29.3089L145.105 41.0093L149.895 42.1002L152.56 30.3998ZM152.088 37.1771C152.372 36.3821 152.691 35.99 152.93 35.7758L144.923 26.8378C142.98 28.5782 141.639 30.7543 140.787 33.1411L152.088 37.1771ZM152.932 35.7734C153.382 35.3698 153.886 35.0814 154.501 34.8908L150.953 23.4274C148.705 24.1231 146.674 25.2666 144.92 26.8402L152.932 35.7734ZM154.543 34.8778C155.358 34.6191 156.249 34.4773 157.244 34.4773V22.4773C155.081 22.4773 152.96 22.79 150.912 23.4403L154.543 34.8778ZM157.244 34.4773C157.813 34.4773 158.498 34.5455 159.315 34.7199L161.821 22.9846C160.297 22.659 158.766 22.4773 157.244 22.4773V34.4773ZM159.381 34.7336C159.841 34.8266 160.258 34.9934 160.665 35.2507L167.085 25.1129C165.446 24.0748 163.659 23.3552 161.756 22.971L159.381 34.7336ZM160.69 35.2667C160.749 35.3039 160.922 35.4215 161.151 35.8403L171.678 30.0802C170.589 28.0898 169.069 26.3552 167.06 25.097L160.69 35.2667ZM161.163 35.8613C161.174 35.8814 161.403 36.3346 161.403 37.6136H173.403C173.403 35.0745 172.974 32.4254 171.667 30.0591L161.163 35.8613ZM161.403 37.6136V55H173.403V37.6136H161.403ZM167.403 49H162.426V61H167.403V49ZM168.426 55V51.4205H156.426V55H168.426ZM162.426 45.4205H162.222V57.4205H162.426V45.4205ZM156.855 48.7372C156.893 48.6603 156.855 48.7729 156.571 49.0472L164.906 57.68C165.94 56.6816 166.891 55.4988 167.588 54.1037L156.855 48.7372ZM156.571 49.0472C156.569 49.0494 156.414 49.1974 155.939 49.3907L160.459 60.507C162.052 59.8594 163.59 58.9506 164.906 57.68L156.571 49.0472ZM155.939 49.3907C155.799 49.4476 155.368 49.5795 154.483 49.5795V61.5795C156.484 61.5795 158.53 61.291 160.459 60.507L155.939 49.3907ZM155.591 57.4886C157.788 57.4886 160.047 57.0519 162.123 55.8955L156.286 45.4113C156.362 45.3686 156.212 45.4886 155.591 45.4886V57.4886ZM162.098 55.9095C163.953 54.8883 165.562 53.4299 166.691 51.4907L156.321 45.4524C156.334 45.4289 156.351 45.4051 156.368 45.3828C156.386 45.3606 156.401 45.3451 156.41 45.3363C156.419 45.3277 156.419 45.3293 156.405 45.3393C156.391 45.3496 156.361 45.3698 156.311 45.3974L162.098 55.9095ZM166.679 51.5109C167.743 49.6994 168.307 47.6813 168.307 45.5568H156.307C156.307 45.5569 156.307 45.5543 156.307 45.5492C156.307 45.5442 156.308 45.5373 156.309 45.5288C156.312 45.5111 156.316 45.4912 156.321 45.4709C156.327 45.4507 156.332 45.4355 156.336 45.4266C156.34 45.4179 156.34 45.4197 156.332 45.4323L166.679 51.5109ZM168.307 45.5568V42.1818H156.307V45.5568H168.307ZM158.064 37.9392C158.364 37.6389 158.642 37.4348 158.835 37.3074C159.032 37.1777 159.193 37.0934 159.293 37.0451C159.482 36.9538 159.574 36.9315 159.503 36.9531L162.997 48.4332C163.628 48.2413 165.242 47.7314 166.549 46.4245L158.064 37.9392ZM159.585 36.9289C159.331 37.0021 158.969 37.0873 158.475 37.1725L160.514 48.998C161.338 48.8558 162.146 48.6797 162.915 48.4575L159.585 36.9289ZM158.574 37.1562C157.933 37.2557 157.31 37.3495 156.705 37.4375L158.432 49.3125C159.077 49.2187 159.738 49.1193 160.414 49.0143L158.574 37.1562ZM156.811 37.423C156.177 37.5037 155.638 37.574 155.196 37.6336L156.804 49.5255C157.203 49.4715 157.709 49.4054 158.326 49.327L156.811 37.423ZM155.247 37.6269C153.882 37.7995 152.541 38.1015 151.252 38.5669L155.328 49.8536C155.675 49.7281 156.14 49.6096 156.753 49.5322L155.247 37.6269ZM151.227 38.5761C149.628 39.1613 148.087 40.1067 146.837 41.5311L155.856 49.4462C155.73 49.5906 155.601 49.6951 155.497 49.7639C155.395 49.8306 155.337 49.85 155.353 49.8443L151.227 38.5761ZM146.831 41.5376C145.172 43.4338 144.631 45.6903 144.631 47.6705H156.631C156.631 47.7355 156.623 47.9726 156.511 48.3138C156.393 48.6726 156.184 49.072 155.862 49.4397L146.831 41.5376ZM144.631 47.6705C144.631 50.641 145.859 53.5531 148.604 55.4607L155.453 45.6074C155.769 45.8268 156.125 46.1947 156.372 46.7006C156.607 47.1828 156.631 47.5586 156.631 47.6705H144.631ZM148.645 55.4889C150.819 56.9737 153.276 57.4886 155.591 57.4886V45.4886C155.305 45.4886 155.179 45.4567 155.171 45.4544C155.168 45.4537 155.193 45.4603 155.239 45.481C155.286 45.502 155.346 45.5339 155.412 45.5793L148.645 55.4889ZM174.192 55H168.192V61H174.192V55ZM174.192 28.8182V22.8182H168.192V28.8182H174.192ZM179.118 28.8182H185.118V22.8182H179.118V28.8182ZM179.118 32.9773H173.118V38.9773H179.118V32.9773ZM179.391 32.9773V38.9773H183.693L185.073 34.9021L179.391 32.9773ZM181.913 29.6534L185.252 34.6385L185.263 34.6313L181.913 29.6534ZM187.163 28.4602L186.848 34.4519L186.856 34.4524L187.163 28.4602ZM188.203 28.5455H194.203V23.3081L189.014 22.6005L188.203 28.5455ZM188.203 33.4205L186.597 39.2016L194.203 41.3143V33.4205H188.203ZM187.112 33.233L186.21 39.1647L186.273 39.1743L186.336 39.1826L187.112 33.233ZM182.322 33.8807L185.159 39.1676L185.171 39.1615L185.182 39.1553L182.322 33.8807ZM180.107 35.9773L185.216 39.1219L185.225 39.1074L185.234 39.0928L180.107 35.9773ZM179.288 55V61H185.288V55H179.288ZM180.192 55V28.8182H168.192V55H180.192ZM174.192 34.8182H179.118V22.8182H174.192V34.8182ZM173.118 28.8182V32.9773H185.118V28.8182H173.118ZM179.118 38.9773H179.391V26.9773H179.118V38.9773ZM185.073 34.9021C185.119 34.7674 185.155 34.721 185.159 34.7169C185.163 34.7115 185.168 34.7049 185.179 34.6952C185.189 34.6853 185.212 34.6658 185.252 34.6385L178.574 24.6684C176.243 26.2301 174.597 28.4285 173.708 31.0524L185.073 34.9021ZM185.263 34.6313C185.441 34.5116 185.639 34.4261 186.038 34.4261V22.4261C183.37 22.4261 180.818 23.1589 178.564 24.6755L185.263 34.6313ZM186.038 34.4261C186.222 34.4261 186.487 34.4329 186.848 34.4519L187.479 22.4685C186.976 22.4421 186.491 22.4261 186.038 22.4261V34.4261ZM186.856 34.4524C187.032 34.4614 187.167 34.4704 187.266 34.4785C187.368 34.487 187.405 34.4922 187.392 34.4904L189.014 22.6005C188.517 22.5328 187.977 22.4941 187.471 22.4681L186.856 34.4524ZM182.203 28.5455V33.4205H194.203V28.5455H182.203ZM189.809 27.6393C189.149 27.456 188.401 27.3502 187.888 27.2834L186.336 39.1826C186.548 39.2102 186.684 39.2312 186.761 39.2443C186.797 39.2506 186.804 39.2523 186.787 39.2487C186.775 39.2461 186.705 39.2314 186.597 39.2016L189.809 27.6393ZM188.015 27.3012C187.197 27.1768 186.372 27.1136 185.544 27.1136V39.1136C185.761 39.1136 185.982 39.1301 186.21 39.1647L188.015 27.3012ZM185.544 27.1136C183.465 27.1136 181.387 27.5626 179.463 28.606L185.182 39.1553C185.182 39.1552 185.183 39.1551 185.183 39.1549C185.183 39.1547 185.185 39.1542 185.187 39.1533C185.191 39.1517 185.203 39.1475 185.225 39.1422C185.267 39.1321 185.368 39.1136 185.544 39.1136V27.1136ZM179.486 28.5937C177.617 29.5965 176.084 31.0423 174.979 32.8617L185.234 39.0928C185.238 39.0873 185.236 39.0913 185.227 39.1016C185.219 39.112 185.207 39.1249 185.193 39.1382C185.179 39.1515 185.167 39.1613 185.158 39.1675C185.15 39.1736 185.149 39.1732 185.159 39.1676L179.486 28.5937ZM174.997 32.8327C173.816 34.7508 173.288 36.8703 173.288 39.0114H185.288C185.288 38.9264 185.298 38.9179 185.286 38.9627C185.28 38.9836 185.271 39.0106 185.258 39.0409C185.245 39.0713 185.231 39.0988 185.216 39.1219L174.997 32.8327ZM173.288 39.0114V55H185.288V39.0114H173.288ZM179.288 49H174.192V61H179.288V49ZM194.553 64.6307L195.729 58.7472L195.678 58.7369L195.626 58.7275L194.553 64.6307ZM193.155 64.2557L187.398 62.564L185.917 67.6047L190.718 69.7385L193.155 64.2557ZM194.382 60.0795L195.937 54.2845L190.278 52.7662L188.626 58.3878L194.382 60.0795ZM196.871 60.4034L196.59 54.41L196.59 54.41L196.871 60.4034ZM198.797 59.5852L194.783 55.1255L194.761 55.1456L194.738 55.166L198.797 59.5852ZM200.297 57.0795L205.919 59.1742L205.928 59.1499L205.937 59.1256L200.297 57.0795ZM200.928 55.3409L206.568 57.3869L207.309 55.3453L206.571 53.3027L200.928 55.3409ZM191.348 28.8182V22.8182H182.802L185.705 30.8564L191.348 28.8182ZM196.803 28.8182L202.507 26.9567L201.156 22.8182H196.803V28.8182ZM203.433 49.1364L197.729 50.9978L199.08 55.1364H203.433V49.1364ZM203.706 49.1364V55.1364H208.059L209.41 50.9978L203.706 49.1364ZM210.337 28.8182V22.8182H205.983L204.633 26.9567L210.337 28.8182ZM215.808 28.8182L221.447 30.8684L224.374 22.8182H215.808V28.8182ZM205.018 58.4943L210.652 60.5598L210.655 60.5522L210.657 60.5445L205.018 58.4943ZM203.109 61.9545L198.468 58.1521L198.457 58.1657L198.446 58.1794L203.109 61.9545ZM200.348 64.1023L197.9 58.6242L197.9 58.6242L200.348 64.1023ZM196.632 58.8182C196.192 58.8182 195.901 58.7815 195.729 58.7472L193.376 70.5142C194.454 70.7299 195.549 70.8182 196.632 70.8182V58.8182ZM195.626 58.7275C195.53 58.7101 195.454 58.6947 195.396 58.6819C195.337 58.6691 195.303 58.6603 195.289 58.6566C195.283 58.655 195.284 58.6551 195.291 58.6573C195.299 58.6595 195.314 58.6643 195.337 58.6721C195.36 58.6799 195.393 58.6915 195.434 58.7074C195.475 58.7233 195.529 58.7448 195.592 58.7728L190.718 69.7385C191.691 70.1709 192.722 70.3963 193.479 70.5339L195.626 58.7275ZM198.911 65.9474L200.139 61.7713L188.626 58.3878L187.398 62.564L198.911 65.9474ZM192.827 65.8746C194.175 66.2362 195.642 66.4676 197.152 66.3968L196.59 54.41C196.645 54.4074 196.453 54.4229 195.937 54.2845L192.827 65.8746ZM197.152 66.3968C199.341 66.2942 201.306 65.4273 202.855 64.0044L194.738 55.166C194.922 54.9978 195.193 54.8035 195.552 54.6509C195.914 54.497 196.274 54.4248 196.59 54.41L197.152 66.3968ZM202.811 64.045C204.41 62.6053 205.336 60.7406 205.919 59.1742L194.674 54.9849C194.616 55.1419 194.565 55.2614 194.524 55.3483C194.484 55.4356 194.457 55.4812 194.45 55.4935C194.442 55.5061 194.46 55.4744 194.51 55.4122C194.559 55.3499 194.648 55.2473 194.783 55.1255L202.811 64.045ZM205.937 59.1256L206.568 57.3869L195.287 53.2949L194.657 55.0335L205.937 59.1256ZM206.571 53.3027L196.991 26.78L185.705 30.8564L195.284 57.3791L206.571 53.3027ZM191.348 34.8182H196.803V22.8182H191.348V34.8182ZM191.099 30.6796L197.729 50.9978L209.137 47.2749L202.507 26.9567L191.099 30.6796ZM203.433 55.1364H203.706V43.1364H203.433V55.1364ZM209.41 50.9978L216.041 30.6796L204.633 26.9567L198.002 47.2749L209.41 50.9978ZM210.337 34.8182H215.808V22.8182H210.337V34.8182ZM210.169 26.768L199.38 56.4441L210.657 60.5445L221.447 30.8684L210.169 26.768ZM199.385 56.4288C199.073 57.2793 198.743 57.8168 198.468 58.1521L207.751 65.757C209.021 64.2059 209.964 62.4366 210.652 60.5598L199.385 56.4288ZM198.446 58.1794C198.237 58.4374 198.063 58.5515 197.9 58.6242L202.796 69.5803C204.769 68.6985 206.436 67.3808 207.773 65.7297L198.446 58.1794ZM197.9 58.6242C197.743 58.6945 197.367 58.8182 196.632 58.8182V70.8182C198.715 70.8182 200.817 70.4646 202.796 69.5803L197.9 58.6242ZM233.71 55H227.71V61H233.71V55ZM233.71 20.0909V14.0909H227.71V20.0909H233.71ZM255.597 20.0909H261.597V14.0909H255.597V20.0909ZM255.597 24.625V30.625H261.597V24.625H255.597ZM238.977 24.625V18.625H232.977V24.625H238.977ZM238.977 35.2614H232.977V41.2614H238.977V35.2614ZM254.455 35.2614H260.455V29.2614H254.455V35.2614ZM254.455 39.7784V45.7784H260.455V39.7784H254.455ZM238.977 39.7784V33.7784H232.977V39.7784H238.977ZM238.977 50.4659H232.977V56.4659H238.977V50.4659ZM255.801 50.4659H261.801V44.4659H255.801V50.4659ZM255.801 55V61H261.801V55H255.801ZM239.71 55V20.0909H227.71V55H239.71ZM233.71 26.0909H255.597V14.0909H233.71V26.0909ZM249.597 20.0909V24.625H261.597V20.0909H249.597ZM255.597 18.625H238.977V30.625H255.597V18.625ZM232.977 24.625V35.2614H244.977V24.625H232.977ZM238.977 41.2614H254.455V29.2614H238.977V41.2614ZM248.455 35.2614V39.7784H260.455V35.2614H248.455ZM254.455 33.7784H238.977V45.7784H254.455V33.7784ZM232.977 39.7784V50.4659H244.977V39.7784H232.977ZM238.977 56.4659H255.801V44.4659H238.977V56.4659ZM249.801 50.4659V55H261.801V50.4659H249.801ZM255.801 49H233.71V61H255.801V49ZM266.246 28.8182L271.465 25.8592L269.741 22.8182H266.246V28.8182ZM272.024 39.0114L266.805 41.9703L272.001 51.1373L277.233 41.9901L272.024 39.0114ZM277.854 28.8182V22.8182H274.373L272.645 25.8395L277.854 28.8182ZM283.428 28.8182L288.519 31.9934L294.241 22.8182H283.428V28.8182ZM275.263 41.9091L270.172 38.7339L268.183 41.9223L270.184 45.1033L275.263 41.9091ZM283.496 55V61H294.357L288.575 51.8058L283.496 55ZM277.922 55L272.783 58.0975L274.533 61H277.922V55ZM272.024 45.2159L277.163 42.1184L272.017 33.5813L266.882 42.125L272.024 45.2159ZM266.143 55V61H269.538L271.286 58.0909L266.143 55ZM260.553 55L255.459 51.8296L249.751 61H260.553V55ZM268.7 41.9091L273.794 45.0795L275.755 41.929L273.812 38.7675L268.7 41.9091ZM260.655 28.8182V22.8182H249.925L255.543 31.9598L260.655 28.8182ZM261.026 31.7771L266.805 41.9703L277.244 36.0524L271.465 25.8592L261.026 31.7771ZM277.233 41.9901L283.062 31.7969L272.645 25.8395L266.816 36.0327L277.233 41.9901ZM277.854 34.8182H283.428V22.8182H277.854V34.8182ZM278.337 25.643L270.172 38.7339L280.354 45.0843L288.519 31.9934L278.337 25.643ZM270.184 45.1033L278.417 58.1942L288.575 51.8058L280.342 38.7148L270.184 45.1033ZM283.496 49H277.922V61H283.496V49ZM283.061 51.9025L277.163 42.1184L266.886 48.3134L272.783 58.0975L283.061 51.9025ZM266.882 42.125L261.001 51.9091L271.286 58.0909L277.167 48.3068L266.882 42.125ZM266.143 49H260.553V61H266.143V49ZM265.646 58.1704L273.794 45.0795L263.606 38.7386L255.459 51.8296L265.646 58.1704ZM273.812 38.7675L265.767 25.6766L255.543 31.9598L263.589 45.0507L273.812 38.7675ZM260.655 34.8182H266.246V22.8182H260.655V34.8182ZM288.661 64.8182H282.661V70.8182H288.661V64.8182ZM288.661 28.8182V22.8182H282.661V28.8182H288.661ZM293.638 28.8182H299.638V22.8182H293.638V28.8182ZM293.638 33.0625H287.638V39.0625H293.638V33.0625ZM294.064 33.0625V39.0625H297.638L299.34 35.9202L294.064 33.0625ZM295.342 31.1705L300.078 34.8541L300.078 34.8541L295.342 31.1705ZM297.661 29.2955L300.512 34.5744L300.536 34.5618L300.559 34.5489L297.661 29.2955ZM307.24 30.0795L303.992 35.1244L303.992 35.1244L307.24 30.0795ZM311.143 34.6989L305.711 37.2463L305.717 37.2588L305.723 37.2713L311.143 34.6989ZM311.161 49.2386L316.593 51.786L316.598 51.7743L311.161 49.2386ZM307.274 53.892L310.562 58.9108L310.574 58.9029L310.586 58.8949L307.274 53.892ZM297.729 54.7102L294.902 60.0027L294.914 60.0093L294.927 60.0159L297.729 54.7102ZM295.376 52.8352L300.076 49.1053L300.076 49.1053L295.376 52.8352ZM294.064 50.9261L299.319 48.0305L297.608 44.9261H294.064V50.9261ZM293.757 50.9261V44.9261H287.757V50.9261H293.757ZM293.757 64.8182V70.8182H299.757V64.8182H293.757ZM294.456 46.75L288.857 48.9069L288.857 48.9069L294.456 46.75ZM296.774 50.0057L293.098 54.7475L293.115 54.7605L293.131 54.7733L296.774 50.0057ZM304.308 49.9545L308.024 54.6652L308.04 54.6525L308.056 54.6398L304.308 49.9545ZM306.626 46.6307L301.022 44.489L301.014 44.509L301.007 44.5289L306.626 46.6307ZM306.643 37.2557L301.02 39.3471L301.027 39.3675L301.035 39.3878L306.643 37.2557ZM304.325 34L300.642 38.7361L300.654 38.746L300.667 38.7557L304.325 34ZM296.74 33.9489L293.157 29.1361L293.144 29.1457L293.131 29.1553L296.74 33.9489ZM294.439 37.1364L300.041 39.284L300.041 39.284L294.439 37.1364ZM294.661 64.8182V28.8182H282.661V64.8182H294.661ZM288.661 34.8182H293.638V22.8182H288.661V34.8182ZM287.638 28.8182V33.0625H299.638V28.8182H287.638ZM293.638 39.0625H294.064V27.0625H293.638V39.0625ZM299.34 35.9202C299.425 35.7634 299.64 35.4173 300.078 34.8541L290.606 27.4868C289.931 28.3555 289.294 29.2707 288.788 30.2048L299.34 35.9202ZM300.078 34.8541C300.018 34.9318 300.086 34.8049 300.512 34.5744L294.809 24.0165C293.258 24.8542 291.78 25.9772 290.606 27.4868L300.078 34.8541ZM300.559 34.5489C300.445 34.6121 300.436 34.5911 300.608 34.5553C300.782 34.5189 301.095 34.4773 301.581 34.4773V22.4773C299.359 22.4773 296.943 22.8386 294.762 24.042L300.559 34.5489ZM301.581 34.4773C302.628 34.4773 303.371 34.7246 303.992 35.1244L310.488 25.0347C307.791 23.2981 304.761 22.4773 301.581 22.4773V34.4773ZM303.992 35.1244C304.587 35.5075 305.185 36.124 305.711 37.2463L316.576 32.1515C315.216 29.251 313.211 26.788 310.488 25.0347L303.992 35.1244ZM305.723 37.2713C306.207 38.2916 306.575 39.7871 306.575 41.9602H318.575C318.575 38.4743 317.989 35.1288 316.564 32.1264L305.723 37.2713ZM306.575 41.9602C306.575 44.1408 306.21 45.6572 305.723 46.703L316.598 51.7743C317.997 48.7746 318.575 45.4388 318.575 41.9602H306.575ZM305.728 46.6912C305.193 47.8321 304.58 48.4796 303.962 48.8892L310.586 58.8949C313.263 57.1226 315.241 54.6679 316.593 51.786L305.728 46.6912ZM303.986 48.8733C303.387 49.2654 302.667 49.5114 301.632 49.5114V61.5114C304.825 61.5114 307.865 60.6778 310.562 58.9108L303.986 48.8733ZM301.632 49.5114C300.657 49.5114 300.407 49.3396 300.531 49.4046L294.927 60.0159C297.073 61.1491 299.426 61.5114 301.632 61.5114V49.5114ZM300.555 49.4178C300.111 49.1805 300.026 49.0427 300.076 49.1053L290.677 56.5652C291.863 58.0596 293.346 59.1718 294.902 60.0027L300.555 49.4178ZM300.076 49.1053C299.634 48.5484 299.411 48.1979 299.319 48.0305L288.809 53.8218C289.33 54.768 289.982 55.6902 290.677 56.5652L300.076 49.1053ZM294.064 44.9261H293.757V56.9261H294.064V44.9261ZM287.757 50.9261V64.8182H299.757V50.9261H287.757ZM293.757 58.8182H288.661V70.8182H293.757V58.8182ZM287.655 41.9091C287.655 44.3173 288.003 46.6897 288.857 48.9069L300.055 44.5931C299.841 44.0376 299.655 43.1827 299.655 41.9091H287.655ZM288.857 48.9069C289.72 51.1473 291.091 53.1915 293.098 54.7475L300.45 45.2638C300.435 45.2517 300.26 45.1254 300.055 44.5931L288.857 48.9069ZM293.131 54.7733C295.343 56.4634 297.916 57.1648 300.49 57.1648V45.1648C300.286 45.1648 300.22 45.1383 300.248 45.1472C300.261 45.1513 300.288 45.161 300.323 45.1789C300.358 45.197 300.39 45.2177 300.417 45.238L293.131 54.7733ZM300.49 57.1648C303.124 57.1648 305.77 56.4433 308.024 54.6652L300.592 45.2439C300.622 45.22 300.658 45.1965 300.696 45.1765C300.734 45.1567 300.762 45.1465 300.774 45.1427C300.8 45.1345 300.721 45.1648 300.49 45.1648V57.1648ZM308.056 54.6398C310.037 53.055 311.398 51.0003 312.246 48.7324L301.007 44.5289C300.809 45.0566 300.625 45.2177 300.56 45.2693L308.056 54.6398ZM312.231 48.7723C313.067 46.5855 313.428 44.2692 313.428 41.9091H301.428C301.428 43.049 301.254 43.8804 301.022 44.489L312.231 48.7723ZM313.428 41.9091C313.428 39.5777 313.074 37.287 312.252 35.1236L301.035 39.3878C301.258 39.9744 301.428 40.7859 301.428 41.9091H313.428ZM312.267 35.1642C311.414 32.8694 310.017 30.8087 307.984 29.2443L300.667 38.7557C300.701 38.7822 300.851 38.892 301.02 39.3471L312.267 35.1642ZM308.009 29.2639C305.748 27.5055 303.104 26.8068 300.49 26.8068V38.8068C300.739 38.8068 300.832 38.8389 300.817 38.8343C300.81 38.8321 300.785 38.8235 300.748 38.8045C300.712 38.7854 300.675 38.7618 300.642 38.7361L308.009 29.2639ZM300.49 26.8068C297.935 26.8068 295.374 27.4858 293.157 29.1361L300.323 38.7617C300.3 38.7791 300.272 38.7962 300.244 38.8104C300.216 38.8246 300.197 38.8308 300.193 38.8321C300.183 38.8351 300.268 38.8068 300.49 38.8068V26.8068ZM293.131 29.1553C291.089 30.693 289.699 32.7384 288.836 34.9887L300.041 39.284C300.138 39.0324 300.224 38.8942 300.271 38.8288C300.315 38.7679 300.34 38.7487 300.349 38.7424L293.131 29.1553ZM288.836 34.9887C287.995 37.183 287.655 39.53 287.655 41.9091H299.655C299.655 40.6518 299.837 39.817 300.041 39.284L288.836 34.9887ZM323.382 20.0909H329.382V14.0909H323.382V20.0909ZM323.382 55V61H329.382V55H323.382ZM318.286 55H312.286V61H318.286V55ZM318.286 20.0909V14.0909H312.286V20.0909H318.286ZM317.382 20.0909V55H329.382V20.0909H317.382ZM323.382 49H318.286V61H323.382V49ZM324.286 55V20.0909H312.286V55H324.286ZM318.286 26.0909H323.382V14.0909H318.286V26.0909ZM330.58 49.1193L335.946 46.436L335.946 46.436L330.58 49.1193ZM334.841 30.1648L337.984 35.2758L337.984 35.2758L334.841 30.1648ZM347.693 30.1648L344.55 35.2758L344.55 35.2758L347.693 30.1648ZM351.955 49.1193L346.588 46.436L351.955 49.1193ZM347.693 53.8409L350.836 58.9519L350.836 58.9519L347.693 53.8409ZM345.239 49.9886L341.478 45.3134L341.478 45.3134L345.239 49.9886ZM347.557 46.6307L341.922 44.5692L341.915 44.5894L341.907 44.6098L347.557 46.6307ZM347.557 37.4091L341.902 39.4155L341.912 39.4431L341.922 39.4706L347.557 37.4091ZM345.239 34.017L341.447 38.6675L341.447 38.6675L345.239 34.017ZM337.295 34.017L333.529 29.3466L333.517 29.3565L333.504 29.3666L337.295 34.017ZM334.96 37.4091L329.32 35.3623L329.315 35.3752L329.311 35.3882L334.96 37.4091ZM334.96 46.6307L329.311 48.6516L329.318 48.6719L329.325 48.6922L334.96 46.6307ZM337.295 49.9886L333.535 54.6639L333.547 54.6738L333.56 54.6837L337.295 49.9886ZM341.267 49.5284C339.76 49.5284 338.739 49.1943 337.984 48.7299L331.698 58.9519C334.602 60.7375 337.865 61.5284 341.267 61.5284V49.5284ZM337.984 48.7299C337.159 48.2226 336.485 47.5135 335.946 46.436L325.213 51.8026C326.697 54.7706 328.864 57.2092 331.698 58.9519L337.984 48.7299ZM335.946 46.436C335.425 45.3944 335.062 43.9823 335.062 42.0284H323.062C323.062 45.4836 323.711 48.7988 325.213 51.8026L335.946 46.436ZM335.062 42.0284C335.062 40.0599 335.427 38.6317 335.952 37.5747L325.207 32.2321C323.71 35.2433 323.062 38.5651 323.062 42.0284H335.062ZM335.952 37.5747C336.493 36.4859 337.167 35.7778 337.984 35.2758L331.698 25.0537C328.855 26.8017 326.688 29.2528 325.207 32.2321L335.952 37.5747ZM337.984 35.2758C338.739 34.8114 339.76 34.4773 341.267 34.4773V22.4773C337.865 22.4773 334.602 23.2681 331.698 25.0537L337.984 35.2758ZM341.267 34.4773C342.774 34.4773 343.795 34.8114 344.55 35.2758L350.836 25.0537C347.932 23.2681 344.669 22.4773 341.267 22.4773V34.4773ZM344.55 35.2758C345.367 35.7778 346.041 36.4859 346.582 37.5747L357.327 32.2321C355.846 29.2528 353.679 26.8017 350.836 25.0537L344.55 35.2758ZM346.582 37.5747C347.108 38.6317 347.472 40.0599 347.472 42.0284H359.472C359.472 38.5651 358.824 35.2433 357.327 32.2321L346.582 37.5747ZM347.472 42.0284C347.472 43.9823 347.109 45.3944 346.588 46.436L357.321 51.8026C358.823 48.7988 359.472 45.4836 359.472 42.0284H347.472ZM346.588 46.436C346.049 47.5135 345.375 48.2226 344.55 48.7299L350.836 58.9519C353.67 57.2092 355.837 54.7706 357.321 51.8026L346.588 46.436ZM344.55 48.7299C343.795 49.1943 342.774 49.5284 341.267 49.5284V61.5284C344.669 61.5284 347.932 60.7375 350.836 58.9519L344.55 48.7299ZM341.284 57.25C343.978 57.25 346.698 56.5145 348.999 54.6639L341.478 45.3134C341.508 45.2892 341.543 45.2661 341.579 45.2471C341.614 45.2283 341.638 45.22 341.643 45.2184C341.654 45.2148 341.552 45.25 341.284 45.25V57.25ZM348.999 54.6639C350.997 53.057 352.374 50.977 353.206 48.6516L341.907 44.6098C341.739 45.0798 341.571 45.2385 341.478 45.3134L348.999 54.6639ZM353.192 48.6922C353.974 46.554 354.324 44.3059 354.324 42.0114H342.324C342.324 43.0805 342.163 43.9119 341.922 44.5692L353.192 48.6922ZM354.324 42.0114C354.324 39.723 353.972 37.4815 353.192 35.3476L341.922 39.4706C342.164 40.1322 342.324 40.9588 342.324 42.0114H354.324ZM353.211 35.4026C352.385 33.0739 351.017 30.9866 349.03 29.3666L341.447 38.6675C341.551 38.752 341.729 38.9261 341.902 39.4155L353.211 35.4026ZM349.03 29.3666C346.729 27.4907 343.997 26.7386 341.284 26.7386V38.7386C341.544 38.7386 341.638 38.7732 341.62 38.7673C341.612 38.7646 341.586 38.7552 341.549 38.7353C341.512 38.7152 341.477 38.6915 341.447 38.6675L349.03 29.3666ZM341.284 26.7386C338.569 26.7386 335.837 27.4851 333.529 29.3466L341.062 38.6875C341.036 38.7085 341.005 38.7293 340.973 38.7466C340.94 38.7638 340.919 38.771 340.917 38.7719C340.909 38.7742 341.015 38.7386 341.284 38.7386V26.7386ZM333.504 29.3666C331.527 30.9781 330.159 33.0508 329.32 35.3623L340.6 39.4559C340.784 38.9492 340.973 38.7605 341.087 38.6675L333.504 29.3666ZM329.311 35.3882C328.552 37.5103 328.21 39.7376 328.21 42.0114H340.21C340.21 40.9442 340.369 40.1033 340.61 39.43L329.311 35.3882ZM328.21 42.0114C328.21 44.2914 328.55 46.5253 329.311 48.6516L340.61 44.6098C340.37 43.9406 340.21 43.0949 340.21 42.0114H328.21ZM329.325 48.6922C330.17 51.0002 331.548 53.0655 333.535 54.6639L341.056 45.3134C340.952 45.23 340.773 45.0567 340.595 44.5692L329.325 48.6922ZM333.56 54.6837C335.867 56.5199 338.588 57.25 341.284 57.25V45.25C341.146 45.25 341.048 45.2409 340.985 45.2319C340.923 45.2231 340.896 45.2143 340.894 45.2139C340.894 45.2138 340.913 45.2198 340.943 45.2359C340.974 45.2522 341.005 45.2724 341.031 45.2936L333.56 54.6837ZM359.161 55H353.161V61H359.161V55ZM359.161 28.8182V22.8182H353.161V28.8182H359.161ZM364.087 28.8182H370.087V22.8182H364.087V28.8182ZM364.087 32.9773H358.087V38.9773H364.087V32.9773ZM364.359 32.9773V38.9773H368.662L370.042 34.9021L364.359 32.9773ZM366.882 29.6534L370.221 34.6385L370.232 34.6313L366.882 29.6534ZM372.132 28.4602L371.817 34.4519L371.825 34.4524L372.132 28.4602ZM373.172 28.5455H379.172V23.3081L373.983 22.6005L373.172 28.5455ZM373.172 33.4205L371.566 39.2016L379.172 41.3143V33.4205H373.172ZM372.081 33.233L371.178 39.1647L371.242 39.1743L371.305 39.1826L372.081 33.233ZM367.291 33.8807L370.128 39.1676L370.14 39.1615L370.151 39.1553L367.291 33.8807ZM365.075 35.9773L370.185 39.1219L370.194 39.1074L370.203 39.0928L365.075 35.9773ZM364.257 55V61H370.257V55H364.257ZM365.161 55V28.8182H353.161V55H365.161ZM359.161 34.8182H364.087V22.8182H359.161V34.8182ZM358.087 28.8182V32.9773H370.087V28.8182H358.087ZM364.087 38.9773H364.359V26.9773H364.087V38.9773ZM370.042 34.9021C370.088 34.7674 370.124 34.721 370.127 34.7169C370.131 34.7115 370.137 34.7049 370.147 34.6952C370.158 34.6853 370.18 34.6658 370.221 34.6385L363.543 24.6684C361.211 26.2301 359.565 28.4285 358.677 31.0524L370.042 34.9021ZM370.232 34.6313C370.41 34.5116 370.607 34.4261 371.007 34.4261V22.4261C368.339 22.4261 365.786 23.1589 363.532 24.6755L370.232 34.6313ZM371.007 34.4261C371.191 34.4261 371.456 34.4329 371.817 34.4519L372.447 22.4685C371.945 22.4421 371.46 22.4261 371.007 22.4261V34.4261ZM371.825 34.4524C372.001 34.4614 372.136 34.4704 372.234 34.4785C372.337 34.487 372.374 34.4922 372.361 34.4904L373.983 22.6005C373.486 22.5328 372.945 22.4941 372.439 22.4681L371.825 34.4524ZM367.172 28.5455V33.4205H379.172V28.5455H367.172ZM374.778 27.6393C374.118 27.456 373.37 27.3502 372.857 27.2834L371.305 39.1826C371.517 39.2102 371.653 39.2312 371.729 39.2443C371.766 39.2506 371.773 39.2523 371.756 39.2487C371.743 39.2461 371.673 39.2314 371.566 39.2016L374.778 27.6393ZM372.984 27.3012C372.166 27.1768 371.341 27.1136 370.513 27.1136V39.1136C370.73 39.1136 370.951 39.1301 371.178 39.1647L372.984 27.3012ZM370.513 27.1136C368.434 27.1136 366.356 27.5626 364.431 28.606L370.151 39.1553C370.151 39.1552 370.151 39.1551 370.152 39.1549C370.152 39.1547 370.153 39.1542 370.156 39.1533C370.16 39.1517 370.172 39.1475 370.194 39.1422C370.236 39.1321 370.336 39.1136 370.513 39.1136V27.1136ZM364.454 28.5937C362.585 29.5965 361.053 31.0423 359.948 32.8617L370.203 39.0928C370.206 39.0873 370.204 39.0913 370.196 39.1016C370.188 39.112 370.176 39.1249 370.162 39.1382C370.148 39.1515 370.136 39.1613 370.127 39.1675C370.118 39.1736 370.118 39.1732 370.128 39.1676L364.454 28.5937ZM359.965 32.8327C358.785 34.7508 358.257 36.8703 358.257 39.0114H370.257C370.257 38.9264 370.267 38.9179 370.255 38.9627C370.249 38.9836 370.24 39.0106 370.227 39.0409C370.214 39.0713 370.199 39.0988 370.185 39.1219L359.965 32.8327ZM358.257 39.0114V55H370.257V39.0114H358.257ZM364.257 49H359.161V61H364.257V49ZM381.264 53.875L378.173 59.0172L378.191 59.0283L378.21 59.0393L381.264 53.875ZM376.969 49.1875L371.59 51.8466L371.599 51.8648L371.608 51.8829L376.969 49.1875ZM376.969 34.9886L371.59 32.3293L371.584 32.3413L371.578 32.3534L376.969 34.9886ZM381.196 30.1989L377.993 25.1252L377.986 25.1297L377.979 25.1343L381.196 30.1989ZM391.866 29.2102L393.861 23.5514L393.861 23.5514L391.866 29.2102ZM395.599 31.5114L391.47 35.8647L391.47 35.8647L395.599 31.5114ZM398.207 35.5852L392.6 37.7212L392.605 37.734L398.207 35.5852ZM399.162 43.4432V49.4432H405.162V43.4432H399.162ZM378.349 43.4432H372.349V49.4432H378.349V43.4432ZM378.349 39.625V33.625H372.349V39.625H378.349ZM394.168 39.625V45.625H400.168V39.625H394.168ZM393.349 36.0625L388.03 38.8379L388.036 38.8499L388.042 38.8618L393.349 36.0625ZM391.048 33.5909L387.9 38.6988L387.914 38.7069L387.927 38.715L391.048 33.5909ZM383.855 33.7443L387.146 38.7614L387.152 38.7572L387.159 38.753L383.855 33.7443ZM381.401 36.4716L376.067 33.7239L376.061 33.7343L376.056 33.7448L381.401 36.4716ZM381.469 47.5511L376.102 50.2344L376.112 50.2542L376.122 50.2739L381.469 47.5511ZM384.077 50.3636L381.06 55.5501L381.08 55.5617L381.1 55.5731L384.077 50.3636ZM390.622 50.9091L392.568 56.5848L392.604 56.5724L392.64 56.5595L390.622 50.9091ZM392.685 49.6477L388.528 45.3211L388.528 45.3211L392.685 49.6477ZM394.014 47.5852L395.078 41.6803L390.153 40.7928L388.396 45.4785L394.014 47.5852ZM398.838 48.4545L404.628 50.0293L406.346 43.711L399.902 42.5497L398.838 48.4545ZM396.759 52.1875L392.378 48.087L392.377 48.0886L396.759 52.1875ZM393.026 54.6591L395.202 60.2503L395.214 60.246L395.225 60.2415L393.026 54.6591ZM387.929 49.5284C386.217 49.5284 385.094 49.1694 384.319 48.7107L378.21 59.0393C381.161 60.7851 384.482 61.5284 387.929 61.5284V49.5284ZM384.356 48.7328C383.518 48.2289 382.853 47.5342 382.329 46.4921L371.608 51.8829C373.107 54.8636 375.306 57.2938 378.173 59.0172L384.356 48.7328ZM382.347 46.5284C381.831 45.4842 381.469 44.0587 381.469 42.0795H369.469C369.469 45.5322 370.106 48.8454 371.59 51.8466L382.347 46.5284ZM381.469 42.0795C381.469 40.1496 381.826 38.7151 382.359 37.6239L371.578 32.3534C370.112 35.3531 369.469 38.6458 369.469 42.0795H381.469ZM382.347 37.648C382.905 36.5193 383.595 35.7832 384.413 35.2635L377.979 25.1343C375.183 26.91 373.055 29.367 371.59 32.3293L382.347 37.648ZM384.399 35.2726C385.137 34.8066 386.12 34.4773 387.571 34.4773V22.4773C384.158 22.4773 380.891 23.2957 377.993 25.1252L384.399 35.2726ZM387.571 34.4773C388.372 34.4773 389.13 34.6074 389.872 34.869L393.861 23.5514C391.831 22.8358 389.724 22.4773 387.571 22.4773V34.4773ZM389.872 34.869C390.436 35.0679 390.959 35.3796 391.47 35.8647L399.728 27.158C398.035 25.5522 396.07 24.3299 393.861 23.5514L389.872 34.869ZM391.47 35.8647C391.815 36.1911 392.228 36.7439 392.6 37.7212L403.814 33.4493C402.914 31.0857 401.589 28.9226 399.728 27.158L391.47 35.8647ZM392.605 37.734C392.907 38.5192 393.162 39.7633 393.162 41.6364H405.162C405.162 38.7594 404.781 35.9694 403.809 33.4365L392.605 37.734ZM393.162 41.6364V43.4432H405.162V41.6364H393.162ZM399.162 37.4432H378.349V49.4432H399.162V37.4432ZM384.349 43.4432V39.625H372.349V43.4432H384.349ZM378.349 45.625H394.168V33.625H378.349V45.625ZM400.168 39.625C400.168 37.4529 399.72 35.2794 398.656 33.2632L388.042 38.8618C388.07 38.9137 388.168 39.1153 388.168 39.625H400.168ZM398.669 33.2871C397.628 31.2923 396.109 29.6484 394.17 28.4669L387.927 38.715C387.949 38.7283 387.96 38.7374 387.965 38.7413C387.97 38.7452 387.972 38.7474 387.974 38.749C387.975 38.7507 387.98 38.756 387.988 38.7677C387.997 38.7796 388.011 38.8018 388.03 38.8379L398.669 33.2871ZM394.196 28.483C392.139 27.2151 389.867 26.6875 387.605 26.6875V38.6875C387.806 38.6875 387.907 38.7103 387.932 38.7169C387.952 38.7222 387.933 38.7189 387.9 38.6988L394.196 28.483ZM387.605 26.6875C385.143 26.6875 382.714 27.3092 380.552 28.7357L387.159 38.753C387.169 38.7461 387.182 38.7378 387.221 38.7268C387.266 38.7143 387.384 38.6875 387.605 38.6875V26.6875ZM380.564 28.7273C378.641 29.9888 377.12 31.6801 376.067 33.7239L386.734 39.2193C386.841 39.0131 386.956 38.8862 387.146 38.7614L380.564 28.7273ZM376.056 33.7448C375.037 35.7414 374.548 37.8918 374.548 40.1023H386.548C386.548 39.6991 386.627 39.4291 386.745 39.1984L376.056 33.7448ZM374.548 40.1023V43.0852H386.548V40.1023H374.548ZM374.548 43.0852C374.548 45.5177 374.973 47.9767 376.102 50.2344L386.835 44.8679C386.737 44.671 386.548 44.1527 386.548 43.0852H374.548ZM376.122 50.2739C377.233 52.4551 378.879 54.2818 381.06 55.5501L387.093 45.1771C387.047 45.15 386.955 45.1017 386.815 44.8283L376.122 50.2739ZM381.1 55.5731C383.257 56.8055 385.617 57.3182 387.98 57.3182V45.3182C387.366 45.3182 387.124 45.1945 387.054 45.1542L381.1 55.5731ZM387.98 57.3182C389.511 57.3182 391.061 57.1015 392.568 56.5848L388.676 45.2334C388.592 45.2621 388.381 45.3182 387.98 45.3182V57.3182ZM392.64 56.5595C394.193 56.0051 395.62 55.1485 396.842 53.9744L388.528 45.3211C388.551 45.2984 388.579 45.2773 388.604 45.262C388.628 45.2472 388.632 45.2485 388.604 45.2586L392.64 56.5595ZM396.842 53.9744C398.123 52.7433 399.038 51.2756 399.632 49.692L388.396 45.4785C388.383 45.5139 388.383 45.5032 388.409 45.4636C388.435 45.4226 388.475 45.3714 388.528 45.3211L396.842 53.9744ZM392.95 53.4901L397.774 54.3594L399.902 42.5497L395.078 41.6803L392.95 53.4901ZM393.048 46.8798C392.917 47.3619 392.705 47.7376 392.378 48.087L401.139 56.288C402.812 54.501 403.986 52.3881 404.628 50.0293L393.048 46.8798ZM392.377 48.0886C392.063 48.4242 391.593 48.7746 390.826 49.0766L395.225 60.2415C397.458 59.3618 399.477 58.0645 401.14 56.2864L392.377 48.0886ZM390.849 49.0679C390.175 49.3302 389.235 49.5284 387.929 49.5284V61.5284C390.441 61.5284 392.899 61.1471 395.202 60.2503L390.849 49.0679ZM404.817 55H398.817V61H404.817V55ZM404.817 28.8182V22.8182H398.817V28.8182H404.817ZM409.743 28.8182H415.743V22.8182H409.743V28.8182ZM409.743 32.9773H403.743V38.9773H409.743V32.9773ZM410.016 32.9773V38.9773H414.318L415.698 34.9021L410.016 32.9773ZM412.538 29.6534L415.877 34.6385L415.888 34.6313L412.538 29.6534ZM417.788 28.4602L417.473 34.4519L417.481 34.4524L417.788 28.4602ZM418.828 28.5455H424.828V23.3081L419.639 22.6005L418.828 28.5455ZM418.828 33.4205L417.222 39.2016L424.828 41.3143V33.4205H418.828ZM417.737 33.233L416.835 39.1647L416.898 39.1743L416.961 39.1826L417.737 33.233ZM412.947 33.8807L415.784 39.1676L415.796 39.1615L415.807 39.1553L412.947 33.8807ZM410.732 35.9773L415.841 39.1219L415.85 39.1074L415.859 39.0928L410.732 35.9773ZM409.913 55V61H415.913V55H409.913ZM410.817 55V28.8182H398.817V55H410.817ZM404.817 34.8182H409.743V22.8182H404.817V34.8182ZM403.743 28.8182V32.9773H415.743V28.8182H403.743ZM409.743 38.9773H410.016V26.9773H409.743V38.9773ZM415.698 34.9021C415.744 34.7674 415.78 34.721 415.784 34.7169C415.788 34.7115 415.793 34.7049 415.804 34.6952C415.814 34.6853 415.837 34.6658 415.877 34.6385L409.199 24.6684C406.868 26.2301 405.222 28.4285 404.333 31.0524L415.698 34.9021ZM415.888 34.6313C416.066 34.5116 416.264 34.4261 416.663 34.4261V22.4261C413.995 22.4261 411.443 23.1589 409.189 24.6755L415.888 34.6313ZM416.663 34.4261C416.847 34.4261 417.112 34.4329 417.473 34.4519L418.104 22.4685C417.601 22.4421 417.116 22.4261 416.663 22.4261V34.4261ZM417.481 34.4524C417.657 34.4614 417.792 34.4704 417.891 34.4785C417.993 34.487 418.03 34.4922 418.017 34.4904L419.639 22.6005C419.142 22.5328 418.602 22.4941 418.096 22.4681L417.481 34.4524ZM412.828 28.5455V33.4205H424.828V28.5455H412.828ZM420.434 27.6393C419.774 27.456 419.026 27.3502 418.513 27.2834L416.961 39.1826C417.173 39.2102 417.309 39.2312 417.386 39.2443C417.422 39.2506 417.429 39.2523 417.412 39.2487C417.4 39.2461 417.33 39.2314 417.222 39.2016L420.434 27.6393ZM418.64 27.3012C417.822 27.1768 416.997 27.1136 416.169 27.1136V39.1136C416.386 39.1136 416.607 39.1301 416.835 39.1647L418.64 27.3012ZM416.169 27.1136C414.09 27.1136 412.012 27.5626 410.088 28.606L415.807 39.1553C415.807 39.1552 415.808 39.1551 415.808 39.1549C415.808 39.1547 415.81 39.1542 415.812 39.1533C415.816 39.1517 415.828 39.1475 415.85 39.1422C415.892 39.1321 415.993 39.1136 416.169 39.1136V27.1136ZM410.111 28.5937C408.242 29.5965 406.709 31.0423 405.604 32.8617L415.859 39.0928C415.863 39.0873 415.861 39.0913 415.852 39.1016C415.844 39.112 415.832 39.1249 415.818 39.1382C415.804 39.1515 415.792 39.1613 415.783 39.1675C415.775 39.1736 415.774 39.1732 415.784 39.1676L410.111 28.5937ZM405.622 32.8327C404.441 34.7508 403.913 36.8703 403.913 39.0114H415.913C415.913 38.9264 415.923 38.9179 415.911 38.9627C415.905 38.9836 415.896 39.0106 415.883 39.0409C415.87 39.0713 415.856 39.0988 415.841 39.1219L405.622 32.8327ZM403.913 39.0114V55H415.913V39.0114H403.913ZM409.913 49H404.817V61H409.913V49Z" fill="#404040" mask="url(#path-2-outside-1_60_1217)"/>
</svg>
